{"glyphs":{"0":{"ha":961,"x_min":78,"x_max":883,"o":"m 481 -8 q 276 51 368 -8 q 131 216 185 110 q 78 458 78 322 q 131 701 78 594 q 276 866 185 807 q 481 925 368 925 q 685 866 593 925 q 830 701 776 807 q 883 458 883 594 q 830 216 883 322 q 685 51 776 110 q 481 -8 593 -8 m 481 158 q 592 197 543 158 q 669 303 642 235 q 697 458 697 371 q 669 614 697 546 q 592 720 642 682 q 481 758 543 758 q 369 720 418 758 q 292 614 319 682 q 264 458 264 546 q 292 303 264 371 q 369 197 319 235 q 481 158 418 158 z "},"1":{"ha":533,"x_min":78,"x_max":444,"o":"m 353 917 q 417 890 390 917 q 444 825 444 863 l 444 92 q 417 27 444 54 q 353 0 390 0 q 288 27 314 0 q 261 92 261 54 l 261 671 l 213 643 q 168 632 194 632 q 122 644 143 632 q 90 678 101 656 q 78 722 78 699 q 90 767 78 746 q 124 800 103 788 l 306 903 l 306 903 q 353 917 325 917 z "},"2":{"ha":803,"x_min":78,"x_max":725,"o":"m 642 167 q 701 142 676 167 q 725 83 725 118 q 701 24 725 49 q 642 0 676 0 l 161 0 q 102 24 126 0 q 78 83 78 49 q 94 133 78 110 q 231 304 164 236 q 385 447 299 372 q 465 519 439 493 q 508 574 492 544 q 524 640 524 604 q 485 729 524 697 q 392 761 446 761 q 320 744 354 761 q 264 697 286 728 q 233 670 253 681 q 192 660 214 660 q 128 686 154 660 q 101 751 101 713 q 122 810 101 782 q 240 897 169 867 q 388 926 310 926 q 545 892 471 926 q 665 794 619 858 q 710 640 710 729 q 679 519 710 576 q 602 413 649 463 q 475 290 556 364 q 346 167 389 213 l 642 167 z "},"3":{"ha":772,"x_min":78,"x_max":694,"o":"m 367 -8 q 211 22 281 -8 q 99 106 142 51 q 78 163 78 131 q 104 226 78 200 q 168 251 131 251 q 209 242 190 251 q 240 215 228 232 q 293 173 260 188 q 367 158 326 158 q 469 192 429 158 q 508 278 508 225 q 469 364 508 331 q 367 397 429 397 l 317 397 q 258 422 282 397 q 233 481 233 446 q 258 540 233 515 q 317 564 282 564 l 367 564 q 449 591 418 564 q 481 661 481 618 q 449 731 481 704 q 367 758 418 758 q 308 747 335 758 q 267 715 282 736 q 235 690 254 700 q 196 681 217 681 q 132 707 158 681 q 106 771 106 733 q 129 831 106 803 q 231 900 171 875 q 367 925 292 925 q 522 892 454 925 q 628 801 590 858 q 667 672 667 743 q 643 568 667 617 q 575 485 619 519 q 663 391 632 447 q 694 268 694 335 q 653 128 694 192 q 537 28 611 65 q 367 -8 463 -8 z "},"4":{"ha":944,"x_min":89,"x_max":867,"o":"m 783 319 q 842 295 818 319 q 867 236 867 271 q 842 177 867 201 q 783 153 818 153 l 703 153 l 703 92 q 676 27 703 54 q 611 0 649 0 q 546 27 572 0 q 519 92 519 54 l 519 153 l 172 153 q 113 177 138 153 q 89 236 89 201 q 107 289 89 264 l 533 875 q 566 906 546 894 q 611 917 586 917 q 676 890 649 917 q 703 825 703 863 l 703 319 l 783 319 m 519 319 l 519 553 l 349 319 l 519 319 z "},"5":{"ha":751,"x_min":89,"x_max":674,"o":"m 346 -8 q 222 13 281 -8 q 118 76 164 35 q 89 142 89 101 q 115 204 89 178 q 178 231 142 231 q 243 203 215 231 q 346 158 283 158 q 447 199 406 158 q 488 300 488 239 q 447 401 488 361 q 346 442 406 442 q 267 418 301 442 q 214 401 242 401 q 149 428 178 401 q 121 493 121 454 l 121 825 q 148 890 121 863 q 213 917 175 917 l 563 917 q 622 892 597 917 q 646 833 646 868 q 622 774 646 799 q 563 750 597 750 l 304 750 l 304 606 q 346 608 332 608 q 511 569 436 608 q 630 459 586 529 q 674 300 674 389 q 630 141 674 211 q 511 31 586 71 q 346 -8 436 -8 z "},"6":{"ha":811,"x_min":78,"x_max":733,"o":"m 406 -8 q 235 30 310 -8 q 119 133 161 68 q 78 278 78 199 q 161 574 78 401 q 354 885 244 747 q 424 918 382 918 q 479 899 453 918 q 511 829 511 871 q 492 775 511 796 q 344 542 401 663 q 456 564 397 564 q 595 526 532 564 q 696 422 658 488 q 733 278 733 357 q 692 133 733 199 q 576 30 650 68 q 406 -8 501 -8 m 406 158 q 508 192 468 158 q 547 278 547 225 q 508 364 547 331 q 406 397 468 397 q 303 364 343 397 q 264 278 264 331 q 303 192 264 225 q 406 158 343 158 z "},"7":{"ha":822,"x_min":78,"x_max":733,"o":"m 733 833 q 724 794 733 813 l 378 50 q 344 11 367 25 q 294 -3 321 -3 q 228 24 254 -3 q 203 88 203 51 q 213 126 203 108 l 504 750 l 161 750 q 102 774 126 750 q 78 833 78 799 q 102 892 78 868 q 161 917 126 917 l 650 917 q 709 892 685 917 q 733 833 733 868 z "},"8":{"ha":811,"x_min":78,"x_max":733,"o":"m 614 485 q 702 391 671 447 q 733 268 733 335 q 692 128 733 192 q 576 28 650 65 q 406 -8 501 -8 q 235 28 310 -8 q 119 128 161 65 q 78 268 78 192 q 109 391 78 335 q 197 485 140 447 q 129 568 153 519 q 106 672 106 617 q 144 801 106 743 q 250 892 182 858 q 406 925 318 925 q 561 892 493 925 q 667 801 629 858 q 706 672 706 743 q 682 568 706 617 q 614 485 658 519 m 406 758 q 323 731 354 758 q 292 661 292 704 q 323 591 292 618 q 406 564 354 564 q 488 591 457 564 q 519 661 519 618 q 488 731 519 704 q 406 758 457 758 m 406 158 q 508 192 468 158 q 547 278 547 225 q 508 364 547 331 q 406 397 468 397 q 303 364 343 397 q 264 278 264 331 q 303 192 264 225 q 406 158 343 158 z "},"9":{"ha":811,"x_min":78,"x_max":733,"o":"m 332 11 q 300 79 300 39 q 319 135 300 111 q 467 368 410 247 q 356 346 414 346 q 216 384 279 346 q 115 488 153 422 q 78 632 78 553 q 119 776 78 711 q 235 880 161 842 q 406 918 310 918 q 576 880 501 918 q 692 776 650 842 q 733 632 733 711 q 650 335 733 508 q 457 25 567 163 q 388 -8 431 -8 q 332 11 358 -8 m 406 513 q 508 546 468 513 q 547 632 547 579 q 508 718 547 685 q 406 751 468 751 q 303 718 343 751 q 264 632 264 685 q 303 546 264 579 q 406 513 343 513 z "}," ":{"ha":444,"x_min":0,"x_max":0,"o":""},"A":{"ha":904,"x_min":39,"x_max":865,"o":"m 858 125 q 865 90 865 111 q 849 38 865 63 q 807 1 833 13 q 772 -6 793 -6 q 719 10 743 -6 q 683 53 694 26 l 633 176 l 269 176 l 219 53 q 185 9 208 24 q 133 -6 161 -6 q 66 22 93 -6 q 39 89 39 50 q 46 125 39 104 l 361 885 q 397 928 372 911 q 451 943 422 944 q 506 928 481 944 q 542 885 531 911 l 858 125 m 564 349 l 451 625 l 339 349 l 564 349 z "},"Á":{"ha":904,"x_min":39,"x_max":865,"o":"m 858 125 q 865 90 865 111 q 849 38 865 63 q 807 1 833 13 q 772 -6 793 -6 q 719 10 743 -6 q 683 53 694 26 l 633 176 l 269 176 l 219 53 q 185 9 208 24 q 133 -6 161 -6 q 66 22 93 -6 q 39 89 39 50 q 46 125 39 104 l 361 885 q 397 928 372 911 q 451 943 422 944 q 506 928 481 944 q 542 885 531 911 l 858 125 m 564 349 l 451 625 l 339 349 l 564 349 m 453 1022 q 408 1039 429 1022 q 386 1089 386 1056 q 403 1136 386 1113 l 493 1260 q 571 1306 526 1306 q 628 1281 604 1306 q 653 1217 653 1256 q 622 1151 653 1179 l 504 1043 q 453 1022 481 1022 z "},"Ă":{"ha":904,"x_min":39,"x_max":865,"o":"m 858 125 q 865 90 865 111 q 849 38 865 63 q 807 1 833 13 q 772 -6 793 -6 q 719 10 743 -6 q 683 53 694 26 l 633 176 l 269 176 l 219 53 q 185 9 208 24 q 133 -6 161 -6 q 66 22 93 -6 q 39 89 39 50 q 46 125 39 104 l 361 885 q 397 928 372 911 q 451 943 422 944 q 506 928 481 944 q 542 885 531 911 l 858 125 m 564 349 l 451 625 l 339 349 l 564 349 m 458 1022 q 349 1055 397 1022 q 278 1144 300 1088 q 274 1167 274 1156 q 292 1208 274 1190 q 335 1226 310 1226 q 368 1217 353 1226 q 390 1190 383 1207 q 417 1158 399 1169 q 458 1146 435 1146 q 499 1157 482 1146 q 526 1190 517 1168 q 549 1217 533 1207 q 582 1226 564 1226 q 625 1208 607 1226 q 643 1165 643 1190 q 639 1144 643 1156 q 568 1055 617 1088 q 458 1022 519 1022 z "},"Ǎ":{"ha":904,"x_min":39,"x_max":865,"o":"m 858 125 q 865 90 865 111 q 849 38 865 63 q 807 1 833 13 q 772 -6 793 -6 q 719 10 743 -6 q 683 53 694 26 l 633 176 l 269 176 l 219 53 q 185 9 208 24 q 133 -6 161 -6 q 66 22 93 -6 q 39 89 39 50 q 46 125 39 104 l 361 885 q 397 928 372 911 q 451 943 422 944 q 506 928 481 944 q 542 885 531 911 l 858 125 m 564 349 l 451 625 l 339 349 l 564 349 m 633 1260 q 665 1238 651 1254 q 679 1197 679 1221 q 676 1179 679 1186 q 646 1135 671 1153 l 521 1046 q 458 1022 490 1022 q 396 1046 426 1022 l 272 1135 q 240 1179 246 1154 q 238 1197 238 1193 q 251 1238 238 1221 q 285 1260 265 1254 q 306 1263 299 1263 q 339 1256 325 1263 l 458 1201 l 578 1256 q 611 1263 592 1263 q 633 1260 619 1263 z "},"Â":{"ha":904,"x_min":39,"x_max":865,"o":"m 858 125 q 865 90 865 111 q 849 38 865 63 q 807 1 833 13 q 772 -6 793 -6 q 719 10 743 -6 q 683 53 694 26 l 633 176 l 269 176 l 219 53 q 185 9 208 24 q 133 -6 161 -6 q 66 22 93 -6 q 39 89 39 50 q 46 125 39 104 l 361 885 q 397 928 372 911 q 451 943 422 944 q 506 928 481 944 q 542 885 531 911 l 858 125 m 564 349 l 451 625 l 339 349 l 564 349 m 676 1106 q 679 1088 679 1099 q 665 1048 679 1064 q 633 1026 651 1032 q 611 1022 624 1022 q 578 1029 599 1022 l 458 1085 l 339 1029 q 306 1022 318 1022 q 285 1026 296 1022 q 251 1048 265 1032 q 238 1088 238 1064 q 240 1106 238 1092 q 272 1150 246 1131 l 396 1239 q 458 1263 426 1263 q 521 1239 490 1263 l 646 1150 q 676 1106 671 1132 z "},"Ä":{"ha":904,"x_min":39,"x_max":865,"o":"m 858 125 q 865 90 865 111 q 849 38 865 63 q 807 1 833 13 q 772 -6 793 -6 q 719 10 743 -6 q 683 53 694 26 l 633 176 l 269 176 l 219 53 q 185 9 208 24 q 133 -6 161 -6 q 66 22 93 -6 q 39 89 39 50 q 46 125 39 104 l 361 885 q 397 928 372 911 q 451 943 422 944 q 506 928 481 944 q 542 885 531 911 l 858 125 m 564 349 l 451 625 l 339 349 l 564 349 m 324 1008 q 258 1035 285 1008 q 231 1103 231 1061 q 258 1171 231 1144 q 324 1197 285 1197 q 390 1171 363 1197 q 417 1103 417 1144 q 390 1035 417 1061 q 324 1008 363 1008 m 594 1008 q 528 1035 556 1008 q 501 1103 501 1061 q 528 1171 501 1144 q 594 1197 556 1197 q 660 1171 633 1197 q 688 1103 688 1144 q 660 1035 688 1061 q 594 1008 633 1008 z "},"À":{"ha":904,"x_min":39,"x_max":865,"o":"m 858 125 q 865 90 865 111 q 849 38 865 63 q 807 1 833 13 q 772 -6 793 -6 q 719 10 743 -6 q 683 53 694 26 l 633 176 l 269 176 l 219 53 q 185 9 208 24 q 133 -6 161 -6 q 66 22 93 -6 q 39 89 39 50 q 46 125 39 104 l 361 885 q 397 928 372 911 q 451 943 422 944 q 506 928 481 944 q 542 885 531 911 l 858 125 m 564 349 l 451 625 l 339 349 l 564 349 m 465 1021 q 414 1042 438 1021 l 296 1150 q 265 1215 265 1178 q 290 1278 265 1253 q 347 1304 314 1304 q 425 1258 392 1304 l 515 1135 q 532 1088 532 1111 q 511 1038 532 1054 q 465 1021 490 1021 z "},"Ā":{"ha":904,"x_min":39,"x_max":865,"o":"m 858 125 q 865 90 865 111 q 849 38 865 63 q 807 1 833 13 q 772 -6 793 -6 q 719 10 743 -6 q 683 53 694 26 l 633 176 l 269 176 l 219 53 q 185 9 208 24 q 133 -6 161 -6 q 66 22 93 -6 q 39 89 39 50 q 46 125 39 104 l 361 885 q 397 928 372 911 q 451 943 422 944 q 506 928 481 944 q 542 885 531 911 l 858 125 m 564 349 l 451 625 l 339 349 l 564 349 m 285 1047 q 233 1068 254 1047 q 213 1119 213 1089 q 233 1171 213 1150 q 285 1192 254 1192 l 626 1192 q 678 1171 657 1192 q 699 1119 699 1150 q 678 1068 699 1089 q 626 1047 657 1047 l 285 1047 z "},"Ą":{"ha":904,"x_min":39,"x_max":942,"o":"m 942 -158 q 900 -211 942 -196 q 821 -226 860 -226 q 711 -182 753 -226 q 669 -78 669 -137 q 707 19 669 -19 q 683 53 692 35 l 633 176 l 269 176 l 219 53 q 185 9 208 24 q 133 -6 161 -6 q 66 22 93 -6 q 39 89 39 50 q 46 125 39 104 l 361 885 q 397 928 372 911 q 451 943 422 944 q 506 928 481 944 q 542 885 531 911 l 858 125 q 865 90 865 111 q 849 38 865 63 q 807 1 833 13 q 779 -24 789 -8 q 769 -56 769 -39 q 785 -93 769 -78 q 829 -108 800 -108 q 869 -101 850 -108 q 886 -99 881 -99 q 925 -115 908 -99 q 942 -158 942 -132 m 564 349 l 451 625 l 339 349 l 564 349 z "},"Å":{"ha":904,"x_min":39,"x_max":865,"o":"m 858 125 q 865 90 865 111 q 849 38 865 63 q 807 1 833 13 q 772 -6 793 -6 q 719 10 743 -6 q 683 53 694 26 l 633 176 l 269 176 l 219 53 q 185 9 208 24 q 133 -6 161 -6 q 66 22 93 -6 q 39 89 39 50 q 46 125 39 104 l 361 885 q 397 928 372 911 q 451 943 422 944 q 506 928 481 944 q 542 885 531 911 l 858 125 m 564 349 l 451 625 l 339 349 l 564 349 m 458 1022 q 350 1066 394 1022 q 306 1175 306 1110 q 350 1285 306 1242 q 458 1328 394 1328 q 567 1285 522 1328 q 611 1175 611 1242 q 567 1066 611 1110 q 458 1022 522 1022 m 458 1118 q 497 1134 482 1118 q 513 1175 513 1150 q 497 1216 513 1200 q 458 1232 482 1232 q 419 1216 435 1232 q 404 1175 404 1200 q 419 1134 404 1150 q 458 1118 435 1118 z "},"Ã":{"ha":904,"x_min":39,"x_max":865,"o":"m 858 125 q 865 90 865 111 q 849 38 865 63 q 807 1 833 13 q 772 -6 793 -6 q 719 10 743 -6 q 683 53 694 26 l 633 176 l 269 176 l 219 53 q 185 9 208 24 q 133 -6 161 -6 q 66 22 93 -6 q 39 89 39 50 q 46 125 39 104 l 361 885 q 397 928 372 911 q 451 943 422 944 q 506 928 481 944 q 542 885 531 911 l 858 125 m 564 349 l 451 625 l 339 349 l 564 349 m 621 1035 q 594 1028 607 1028 q 560 1039 575 1028 q 519 1053 544 1053 q 475 1042 494 1053 q 386 1018 433 1018 q 260 1065 318 1018 q 240 1107 240 1082 q 248 1135 240 1122 q 268 1156 256 1149 q 294 1163 282 1163 q 329 1150 314 1163 q 369 1138 346 1138 q 414 1149 394 1138 q 503 1172 456 1172 q 629 1125 571 1172 q 649 1083 649 1108 q 641 1055 649 1068 q 621 1035 633 1042 z "},"Æ":{"ha":1243,"x_min":39,"x_max":1190,"o":"m 1104 172 q 1165 147 1140 172 q 1190 86 1190 122 q 1165 26 1190 51 q 1104 0 1140 0 l 729 0 l 729 0 l 729 0 q 663 28 690 0 q 635 94 635 56 l 635 176 l 293 176 l 213 44 q 178 11 200 22 q 133 0 157 0 q 83 14 103 0 q 51 48 63 26 q 39 94 39 69 q 53 144 39 121 l 519 894 q 556 928 533 915 q 604 939 579 940 l 1104 939 q 1165 914 1140 939 q 1190 853 1190 889 q 1165 792 1190 818 q 1104 767 1140 767 l 824 767 l 824 547 l 1063 547 q 1124 522 1099 547 q 1149 461 1149 497 q 1124 401 1149 426 q 1063 375 1099 375 l 824 375 l 824 172 l 1104 172 m 635 349 l 635 733 l 399 349 l 635 349 z "},"B":{"ha":831,"x_min":97,"x_max":778,"o":"m 638 494 q 740 407 703 463 q 778 279 778 351 q 738 140 778 204 q 628 38 697 75 q 475 0 558 0 l 192 0 q 125 28 153 0 q 97 94 97 56 l 97 844 q 125 911 97 883 q 192 939 153 939 l 436 939 q 578 905 513 939 q 683 810 644 871 q 722 676 722 750 q 700 575 722 621 q 638 494 678 529 m 286 767 l 286 572 l 436 572 q 505 599 476 572 q 533 671 533 626 q 508 739 533 711 q 443 767 483 767 l 286 767 m 475 172 q 555 203 521 172 q 589 285 589 235 q 556 367 589 335 q 475 400 524 400 l 286 400 l 286 172 l 475 172 z "},"Ḅ":{"ha":831,"x_min":97,"x_max":778,"o":"m 638 494 q 740 407 703 463 q 778 279 778 351 q 738 140 778 204 q 628 38 697 75 q 475 0 558 0 l 192 0 q 125 28 153 0 q 97 94 97 56 l 97 844 q 125 911 97 883 q 192 939 153 939 l 436 939 q 578 905 513 939 q 683 810 644 871 q 722 676 722 750 q 700 575 722 621 q 638 494 678 529 m 286 767 l 286 572 l 436 572 q 505 599 476 572 q 533 671 533 626 q 508 739 533 711 q 443 767 483 767 l 286 767 m 475 172 q 555 203 521 172 q 589 285 589 235 q 556 367 589 335 q 475 400 524 400 l 286 400 l 286 172 l 475 172 m 438 -69 q 511 -99 481 -69 q 542 -175 542 -129 q 511 -251 542 -221 q 438 -281 481 -281 q 364 -251 394 -281 q 333 -175 333 -221 q 364 -99 333 -129 q 438 -69 394 -69 z "},"C":{"ha":963,"x_min":78,"x_max":910,"o":"m 551 -8 q 313 53 421 -8 q 141 223 204 114 q 78 469 78 332 q 141 716 78 607 q 313 886 204 825 q 551 947 421 947 q 733 913 647 947 q 883 815 818 879 q 910 753 910 792 q 885 692 910 718 q 824 667 860 667 q 761 692 789 667 q 669 753 721 732 q 558 775 617 775 q 411 736 478 775 q 306 628 344 697 q 267 469 267 558 q 306 311 267 381 q 411 203 344 242 q 558 164 478 164 q 669 185 617 164 q 761 247 721 207 q 824 272 789 272 q 885 247 860 272 q 910 186 910 222 q 883 124 910 147 q 733 26 818 60 q 551 -8 647 -8 z "},"Ć":{"ha":963,"x_min":78,"x_max":910,"o":"m 551 -8 q 313 53 421 -8 q 141 223 204 114 q 78 469 78 332 q 141 716 78 607 q 313 886 204 825 q 551 947 421 947 q 733 913 647 947 q 883 815 818 879 q 910 753 910 792 q 885 692 910 718 q 824 667 860 667 q 761 692 789 667 q 669 753 721 732 q 558 775 617 775 q 411 736 478 775 q 306 628 344 697 q 267 469 267 558 q 306 311 267 381 q 411 203 344 242 q 558 164 478 164 q 669 185 617 164 q 761 247 721 207 q 824 272 789 272 q 885 247 860 272 q 910 186 910 222 q 883 124 910 147 q 733 26 818 60 q 551 -8 647 -8 m 546 1022 q 501 1039 522 1022 q 479 1089 479 1056 q 496 1136 479 1113 l 586 1260 q 664 1306 619 1306 q 722 1281 697 1306 q 746 1217 746 1256 q 715 1151 746 1179 l 597 1043 q 546 1022 574 1022 z "},"Č":{"ha":963,"x_min":78,"x_max":910,"o":"m 551 -8 q 313 53 421 -8 q 141 223 204 114 q 78 469 78 332 q 141 716 78 607 q 313 886 204 825 q 551 947 421 947 q 733 913 647 947 q 883 815 818 879 q 910 753 910 792 q 885 692 910 718 q 824 667 860 667 q 761 692 789 667 q 669 753 721 732 q 558 775 617 775 q 411 736 478 775 q 306 628 344 697 q 267 469 267 558 q 306 311 267 381 q 411 203 344 242 q 558 164 478 164 q 669 185 617 164 q 761 247 721 207 q 824 272 789 272 q 885 247 860 272 q 910 186 910 222 q 883 124 910 147 q 733 26 818 60 q 551 -8 647 -8 m 726 1260 q 758 1238 744 1254 q 772 1197 772 1221 q 769 1179 772 1186 q 739 1135 764 1153 l 614 1046 q 551 1022 583 1022 q 489 1046 519 1022 l 365 1135 q 333 1179 339 1154 q 331 1197 331 1193 q 344 1238 331 1221 q 378 1260 358 1254 q 399 1263 392 1263 q 432 1256 418 1263 l 551 1201 l 671 1256 q 704 1263 685 1263 q 726 1260 713 1263 z "},"Ç":{"ha":963,"x_min":78,"x_max":910,"o":"m 824 272 q 885 247 860 272 q 910 186 910 222 q 883 124 910 147 q 618 -4 772 17 q 650 -94 650 -44 q 608 -199 650 -154 q 497 -243 565 -243 q 418 -228 458 -243 q 388 -207 399 -221 q 376 -175 376 -193 q 393 -132 376 -149 q 432 -115 410 -115 q 449 -118 438 -115 q 489 -125 468 -125 q 534 -110 518 -125 q 550 -72 550 -94 q 533 -31 550 -50 q 483 -7 515 -12 l 483 -4 q 276 75 368 11 q 131 241 183 139 q 78 469 78 343 q 141 716 78 607 q 313 886 204 825 q 551 947 421 947 q 733 913 647 947 q 883 815 818 879 q 910 753 910 792 q 885 692 910 718 q 824 667 860 667 q 761 692 789 667 q 669 753 721 732 q 558 775 617 775 q 411 736 478 775 q 306 628 344 697 q 267 469 267 558 q 306 311 267 381 q 411 203 344 242 q 558 164 478 164 q 669 185 617 164 q 761 247 721 207 q 824 272 789 272 z "},"Ċ":{"ha":963,"x_min":78,"x_max":910,"o":"m 551 -8 q 313 53 421 -8 q 141 223 204 114 q 78 469 78 332 q 141 716 78 607 q 313 886 204 825 q 551 947 421 947 q 733 913 647 947 q 883 815 818 879 q 910 753 910 792 q 885 692 910 718 q 824 667 860 667 q 761 692 789 667 q 669 753 721 732 q 558 775 617 775 q 411 736 478 775 q 306 628 344 697 q 267 469 267 558 q 306 311 267 381 q 411 203 344 242 q 558 164 478 164 q 669 185 617 164 q 761 247 721 207 q 824 272 789 272 q 885 247 860 272 q 910 186 910 222 q 883 124 910 147 q 733 26 818 60 q 551 -8 647 -8 m 551 1008 q 478 1038 508 1008 q 447 1114 447 1068 q 478 1190 447 1160 q 551 1219 508 1219 q 625 1190 594 1219 q 656 1114 656 1160 q 625 1038 656 1068 q 551 1008 594 1008 z "},"D":{"ha":953,"x_min":97,"x_max":875,"o":"m 410 939 q 647 879 540 939 q 814 713 753 819 q 875 469 875 606 q 814 226 875 333 q 647 60 753 119 q 410 0 540 0 l 192 0 q 125 28 153 0 q 97 94 97 56 l 97 844 q 125 912 97 885 q 192 939 153 939 l 410 939 m 410 172 q 552 210 489 172 q 651 315 615 247 q 686 469 686 382 q 651 624 686 557 q 552 729 615 692 q 410 767 489 767 l 286 767 l 286 172 l 410 172 z "},"Ð":{"ha":917,"x_min":0,"x_max":931,"o":"m 465 939 q 702 879 596 939 q 869 713 808 819 q 931 469 931 606 q 869 226 931 333 q 702 60 808 119 q 465 0 596 0 l 247 0 q 181 28 208 0 q 153 94 153 56 l 153 378 l 83 378 q 24 402 49 378 q 0 461 0 426 q 24 520 0 496 q 83 544 49 544 l 153 544 l 153 844 q 181 912 153 885 q 247 939 208 939 l 465 939 m 465 172 q 608 210 544 172 q 706 315 671 247 q 742 469 742 382 q 706 624 742 557 q 608 729 671 692 q 465 767 544 767 l 342 767 l 342 544 l 444 544 q 503 520 479 544 q 528 461 528 496 q 503 402 528 426 q 444 378 479 378 l 342 378 l 342 172 l 465 172 z "},"Ď":{"ha":953,"x_min":97,"x_max":875,"o":"m 410 939 q 647 879 540 939 q 814 713 753 819 q 875 469 875 606 q 814 226 875 333 q 647 60 753 119 q 410 0 540 0 l 192 0 q 125 28 153 0 q 97 94 97 56 l 97 844 q 125 912 97 885 q 192 939 153 939 l 410 939 m 410 172 q 552 210 489 172 q 651 315 615 247 q 686 469 686 382 q 651 624 686 557 q 552 729 615 692 q 410 767 489 767 l 286 767 l 286 172 l 410 172 m 640 1260 q 672 1238 658 1254 q 686 1197 686 1221 q 683 1179 686 1186 q 653 1135 678 1153 l 528 1046 q 465 1022 497 1022 q 403 1046 433 1022 l 279 1135 q 247 1179 253 1154 q 244 1197 244 1193 q 258 1238 244 1221 q 292 1260 272 1254 q 313 1263 306 1263 q 346 1256 332 1263 l 465 1201 l 585 1256 q 618 1263 599 1263 q 640 1260 626 1263 z "},"Ḍ":{"ha":953,"x_min":97,"x_max":875,"o":"m 410 939 q 647 879 540 939 q 814 713 753 819 q 875 469 875 606 q 814 226 875 333 q 647 60 753 119 q 410 0 540 0 l 192 0 q 125 28 153 0 q 97 94 97 56 l 97 844 q 125 912 97 885 q 192 939 153 939 l 410 939 m 410 172 q 552 210 489 172 q 651 315 615 247 q 686 469 686 382 q 651 624 686 557 q 552 729 615 692 q 410 767 489 767 l 286 767 l 286 172 l 410 172 m 486 -69 q 560 -99 529 -69 q 590 -175 590 -129 q 560 -251 590 -221 q 486 -281 529 -281 q 413 -251 443 -281 q 382 -175 382 -221 q 413 -99 382 -129 q 486 -69 443 -69 z "},"E":{"ha":706,"x_min":97,"x_max":653,"o":"m 567 172 q 628 147 603 172 q 653 86 653 122 q 628 26 653 51 q 567 0 603 0 l 192 0 l 192 0 l 192 0 q 125 28 153 0 q 97 94 97 56 l 97 844 q 125 912 97 885 q 192 939 153 939 l 192 939 l 567 939 q 628 914 603 939 q 653 853 653 889 q 628 792 653 818 q 567 767 603 767 l 286 767 l 286 547 l 525 547 q 586 522 561 547 q 611 461 611 497 q 586 401 611 426 q 525 375 561 375 l 286 375 l 286 172 l 567 172 z "},"É":{"ha":706,"x_min":97,"x_max":653,"o":"m 567 172 q 628 147 603 172 q 653 86 653 122 q 628 26 653 51 q 567 0 603 0 l 192 0 l 192 0 l 192 0 q 125 28 153 0 q 97 94 97 56 l 97 844 q 125 912 97 885 q 192 939 153 939 l 192 939 l 567 939 q 628 914 603 939 q 653 853 653 889 q 628 792 653 818 q 567 767 603 767 l 286 767 l 286 547 l 525 547 q 586 522 561 547 q 611 461 611 497 q 586 401 611 426 q 525 375 561 375 l 286 375 l 286 172 l 567 172 m 363 1022 q 317 1039 339 1022 q 296 1089 296 1056 q 313 1136 296 1113 l 403 1260 q 481 1306 436 1306 q 538 1281 514 1306 q 563 1217 563 1256 q 532 1151 563 1179 l 414 1043 q 363 1022 390 1022 z "},"Ě":{"ha":706,"x_min":97,"x_max":653,"o":"m 567 172 q 628 147 603 172 q 653 86 653 122 q 628 26 653 51 q 567 0 603 0 l 192 0 l 192 0 l 192 0 q 125 28 153 0 q 97 94 97 56 l 97 844 q 125 912 97 885 q 192 939 153 939 l 192 939 l 567 939 q 628 914 603 939 q 653 853 653 889 q 628 792 653 818 q 567 767 603 767 l 286 767 l 286 547 l 525 547 q 586 522 561 547 q 611 461 611 497 q 586 401 611 426 q 525 375 561 375 l 286 375 l 286 172 l 567 172 m 543 1260 q 575 1238 561 1254 q 589 1197 589 1221 q 586 1179 589 1186 q 556 1135 581 1153 l 431 1046 q 368 1022 400 1022 q 306 1046 336 1022 l 182 1135 q 150 1179 156 1154 q 147 1197 147 1193 q 161 1238 147 1221 q 194 1260 175 1254 q 215 1263 208 1263 q 249 1256 235 1263 l 368 1201 l 488 1256 q 521 1263 501 1263 q 543 1260 529 1263 z "},"Ȩ":{"ha":706,"x_min":97,"x_max":653,"o":"m 567 172 q 628 147 603 172 q 653 86 653 122 q 628 26 653 51 q 567 0 603 0 l 500 0 q 535 -94 535 -40 q 492 -199 535 -154 q 382 -243 450 -243 q 303 -228 343 -243 q 272 -207 283 -221 q 261 -175 261 -193 q 278 -132 261 -149 q 317 -115 294 -115 q 333 -118 322 -115 q 374 -125 353 -125 q 419 -110 403 -125 q 435 -72 435 -94 q 417 -31 435 -50 q 368 -7 400 -12 l 368 0 l 192 0 l 192 0 l 192 0 q 125 28 153 0 q 97 94 97 56 l 97 844 q 125 912 97 885 q 192 939 153 939 l 192 939 l 567 939 q 628 914 603 939 q 653 853 653 889 q 628 792 653 818 q 567 767 603 767 l 286 767 l 286 547 l 525 547 q 586 522 561 547 q 611 461 611 497 q 586 401 611 426 q 525 375 561 375 l 286 375 l 286 172 l 567 172 z "},"Ê":{"ha":706,"x_min":97,"x_max":653,"o":"m 567 172 q 628 147 603 172 q 653 86 653 122 q 628 26 653 51 q 567 0 603 0 l 192 0 l 192 0 l 192 0 q 125 28 153 0 q 97 94 97 56 l 97 844 q 125 912 97 885 q 192 939 153 939 l 192 939 l 567 939 q 628 914 603 939 q 653 853 653 889 q 628 792 653 818 q 567 767 603 767 l 286 767 l 286 547 l 525 547 q 586 522 561 547 q 611 461 611 497 q 586 401 611 426 q 525 375 561 375 l 286 375 l 286 172 l 567 172 m 586 1106 q 589 1088 589 1099 q 575 1048 589 1064 q 543 1026 561 1032 q 521 1022 533 1022 q 488 1029 508 1022 l 368 1085 l 249 1029 q 215 1022 228 1022 q 194 1026 206 1022 q 161 1048 175 1032 q 147 1088 147 1064 q 150 1106 147 1092 q 182 1150 156 1131 l 306 1239 q 368 1263 336 1263 q 431 1239 400 1263 l 556 1150 q 586 1106 581 1132 z "},"Ë":{"ha":706,"x_min":97,"x_max":653,"o":"m 567 172 q 628 147 603 172 q 653 86 653 122 q 628 26 653 51 q 567 0 603 0 l 192 0 l 192 0 l 192 0 q 125 28 153 0 q 97 94 97 56 l 97 844 q 125 912 97 885 q 192 939 153 939 l 192 939 l 567 939 q 628 914 603 939 q 653 853 653 889 q 628 792 653 818 q 567 767 603 767 l 286 767 l 286 547 l 525 547 q 586 522 561 547 q 611 461 611 497 q 586 401 611 426 q 525 375 561 375 l 286 375 l 286 172 l 567 172 m 232 1008 q 166 1035 193 1008 q 139 1103 139 1061 q 166 1171 139 1144 q 232 1197 193 1197 q 298 1171 271 1197 q 325 1103 325 1144 q 298 1035 325 1061 q 232 1008 271 1008 m 503 1008 q 437 1035 464 1008 q 410 1103 410 1061 q 437 1171 410 1144 q 503 1197 464 1197 q 569 1171 542 1197 q 596 1103 596 1144 q 569 1035 596 1061 q 503 1008 542 1008 z "},"Ė":{"ha":706,"x_min":97,"x_max":653,"o":"m 567 172 q 628 147 603 172 q 653 86 653 122 q 628 26 653 51 q 567 0 603 0 l 192 0 l 192 0 l 192 0 q 125 28 153 0 q 97 94 97 56 l 97 844 q 125 912 97 885 q 192 939 153 939 l 192 939 l 567 939 q 628 914 603 939 q 653 853 653 889 q 628 792 653 818 q 567 767 603 767 l 286 767 l 286 547 l 525 547 q 586 522 561 547 q 611 461 611 497 q 586 401 611 426 q 525 375 561 375 l 286 375 l 286 172 l 567 172 m 368 1008 q 294 1038 325 1008 q 264 1114 264 1068 q 294 1190 264 1160 q 368 1219 325 1219 q 442 1190 411 1219 q 472 1114 472 1160 q 442 1038 472 1068 q 368 1008 411 1008 z "},"È":{"ha":706,"x_min":97,"x_max":653,"o":"m 567 172 q 628 147 603 172 q 653 86 653 122 q 628 26 653 51 q 567 0 603 0 l 192 0 l 192 0 l 192 0 q 125 28 153 0 q 97 94 97 56 l 97 844 q 125 912 97 885 q 192 939 153 939 l 192 939 l 567 939 q 628 914 603 939 q 653 853 653 889 q 628 792 653 818 q 567 767 603 767 l 286 767 l 286 547 l 525 547 q 586 522 561 547 q 611 461 611 497 q 586 401 611 426 q 525 375 561 375 l 286 375 l 286 172 l 567 172 m 374 1021 q 322 1042 346 1021 l 204 1150 q 174 1215 174 1178 q 198 1278 174 1253 q 256 1304 222 1304 q 333 1258 300 1304 l 424 1135 q 440 1088 440 1111 q 419 1038 440 1054 q 374 1021 399 1021 z "},"Ē":{"ha":706,"x_min":97,"x_max":653,"o":"m 567 172 q 628 147 603 172 q 653 86 653 122 q 628 26 653 51 q 567 0 603 0 l 192 0 l 192 0 l 192 0 q 125 28 153 0 q 97 94 97 56 l 97 844 q 125 912 97 885 q 192 939 153 939 l 192 939 l 567 939 q 628 914 603 939 q 653 853 653 889 q 628 792 653 818 q 567 767 603 767 l 286 767 l 286 547 l 525 547 q 586 522 561 547 q 611 461 611 497 q 586 401 611 426 q 525 375 561 375 l 286 375 l 286 172 l 567 172 m 194 1047 q 143 1068 164 1047 q 122 1119 122 1089 q 143 1171 122 1150 q 194 1192 164 1192 l 536 1192 q 588 1171 567 1192 q 608 1119 608 1150 q 588 1068 608 1089 q 536 1047 567 1047 l 194 1047 z "},"Ę":{"ha":796,"x_min":97,"x_max":743,"o":"m 743 -149 q 701 -201 743 -187 q 622 -217 664 -217 q 513 -172 554 -217 q 471 -68 471 -128 q 488 0 471 -32 l 192 0 l 192 0 l 192 0 q 125 28 153 0 q 97 94 97 56 l 97 844 q 125 912 97 885 q 192 939 153 939 l 192 939 l 567 939 q 628 914 603 939 q 653 853 653 889 q 628 792 653 818 q 567 767 603 767 l 286 767 l 286 547 l 525 547 q 586 522 561 547 q 611 461 611 497 q 586 401 611 426 q 525 375 561 375 l 286 375 l 286 172 l 567 172 q 628 147 603 172 q 653 86 653 122 q 640 41 653 61 q 607 10 628 21 q 581 -15 590 0 q 571 -46 571 -29 q 586 -83 571 -68 q 631 -99 601 -99 q 671 -92 651 -99 q 688 -89 682 -89 q 726 -106 710 -89 q 743 -149 743 -122 z "},"Ẽ":{"ha":706,"x_min":97,"x_max":653,"o":"m 567 172 q 628 147 603 172 q 653 86 653 122 q 628 26 653 51 q 567 0 603 0 l 192 0 l 192 0 l 192 0 q 125 28 153 0 q 97 94 97 56 l 97 844 q 125 912 97 885 q 192 939 153 939 l 192 939 l 567 939 q 628 914 603 939 q 653 853 653 889 q 628 792 653 818 q 567 767 603 767 l 286 767 l 286 547 l 525 547 q 586 522 561 547 q 611 461 611 497 q 586 401 611 426 q 525 375 561 375 l 286 375 l 286 172 l 567 172 m 531 1035 q 504 1028 517 1028 q 469 1039 485 1028 q 429 1053 454 1053 q 385 1042 404 1053 q 296 1018 343 1018 q 169 1065 228 1018 q 150 1107 150 1082 q 158 1135 150 1122 q 178 1156 165 1149 q 204 1163 192 1163 q 239 1150 224 1163 q 279 1138 256 1138 q 324 1149 304 1138 q 413 1172 365 1172 q 539 1125 481 1172 q 558 1083 558 1108 q 551 1055 558 1068 q 531 1035 543 1042 z "},"F":{"ha":706,"x_min":97,"x_max":653,"o":"m 286 767 l 286 547 l 511 547 q 572 522 547 547 q 597 461 597 497 q 572 401 597 426 q 511 375 547 375 l 286 375 l 286 94 q 259 28 286 56 q 192 0 232 0 q 125 28 153 0 q 97 94 97 56 l 97 844 q 125 912 97 885 q 192 939 153 939 l 192 939 l 567 939 q 628 914 603 939 q 653 853 653 889 q 628 792 653 818 q 567 767 603 767 l 286 767 z "},"G":{"ha":1068,"x_min":78,"x_max":992,"o":"m 551 -8 q 313 53 421 -8 q 141 223 204 114 q 78 469 78 332 q 141 716 78 607 q 313 886 204 825 q 551 947 421 947 q 733 913 647 947 q 883 815 818 879 q 910 753 910 792 q 885 692 910 718 q 824 667 860 667 q 761 692 789 667 q 669 753 721 732 q 558 775 617 775 q 411 736 478 775 q 306 628 344 697 q 267 469 267 558 q 305 311 267 381 q 408 203 343 242 q 551 164 474 164 q 704 210 638 164 q 799 336 771 257 l 589 336 q 528 362 554 336 q 503 422 503 388 q 528 483 503 458 q 589 508 554 508 l 897 508 q 967 486 942 508 q 990 421 992 464 q 930 203 988 301 q 773 48 872 104 q 551 -8 674 -8 z "},"Ğ":{"ha":1068,"x_min":78,"x_max":990,"o":"m 551 -8 q 313 53 421 -8 q 141 223 204 114 q 78 469 78 332 q 141 716 78 607 q 313 886 204 825 q 551 947 421 947 q 733 913 647 947 q 883 815 818 879 q 910 753 910 792 q 885 692 910 718 q 824 667 860 667 q 761 692 789 667 q 669 753 721 732 q 558 775 617 775 q 411 736 478 775 q 306 628 344 697 q 267 469 267 558 q 305 311 267 381 q 408 203 343 242 q 551 164 474 164 q 704 210 638 164 q 799 336 771 257 l 589 336 q 528 362 554 336 q 503 422 503 388 q 528 483 503 458 q 589 508 554 508 l 897 508 q 967 486 942 508 q 990 421 992 464 q 930 203 988 301 q 773 48 872 104 q 551 -8 674 -8 m 535 1022 q 425 1055 474 1022 q 354 1144 376 1088 q 350 1167 350 1156 q 368 1208 350 1190 q 411 1226 386 1226 q 444 1217 429 1226 q 467 1190 460 1207 q 493 1158 475 1169 q 535 1146 511 1146 q 576 1157 558 1146 q 603 1190 593 1168 q 625 1217 610 1207 q 658 1226 640 1226 q 701 1208 683 1226 q 719 1165 719 1190 q 715 1144 719 1156 q 644 1055 693 1088 q 535 1022 596 1022 z "},"Ǧ":{"ha":1068,"x_min":78,"x_max":990,"o":"m 551 -8 q 313 53 421 -8 q 141 223 204 114 q 78 469 78 332 q 141 716 78 607 q 313 886 204 825 q 551 947 421 947 q 733 913 647 947 q 883 815 818 879 q 910 753 910 792 q 885 692 910 718 q 824 667 860 667 q 761 692 789 667 q 669 753 721 732 q 558 775 617 775 q 411 736 478 775 q 306 628 344 697 q 267 469 267 558 q 305 311 267 381 q 408 203 343 242 q 551 164 474 164 q 704 210 638 164 q 799 336 771 257 l 589 336 q 528 362 554 336 q 503 422 503 388 q 528 483 503 458 q 589 508 554 508 l 897 508 q 967 486 942 508 q 990 421 992 464 q 930 203 988 301 q 773 48 872 104 q 551 -8 674 -8 m 710 1260 q 742 1238 728 1254 q 756 1197 756 1221 q 753 1179 756 1186 q 722 1135 747 1153 l 597 1046 q 535 1022 567 1022 q 472 1046 503 1022 l 349 1135 q 317 1179 322 1154 q 314 1197 314 1193 q 328 1238 314 1221 q 361 1260 342 1254 q 382 1263 375 1263 q 415 1256 401 1263 l 535 1201 l 654 1256 q 688 1263 668 1263 q 710 1260 696 1263 z "},"Ġ":{"ha":1068,"x_min":78,"x_max":990,"o":"m 551 -8 q 313 53 421 -8 q 141 223 204 114 q 78 469 78 332 q 141 716 78 607 q 313 886 204 825 q 551 947 421 947 q 733 913 647 947 q 883 815 818 879 q 910 753 910 792 q 885 692 910 718 q 824 667 860 667 q 761 692 789 667 q 669 753 721 732 q 558 775 617 775 q 411 736 478 775 q 306 628 344 697 q 267 469 267 558 q 305 311 267 381 q 408 203 343 242 q 551 164 474 164 q 704 210 638 164 q 799 336 771 257 l 589 336 q 528 362 554 336 q 503 422 503 388 q 528 483 503 458 q 589 508 554 508 l 897 508 q 967 486 942 508 q 990 421 992 464 q 930 203 988 301 q 773 48 872 104 q 551 -8 674 -8 m 535 1008 q 461 1038 492 1008 q 431 1114 431 1068 q 461 1190 431 1160 q 535 1219 492 1219 q 608 1190 578 1219 q 639 1114 639 1160 q 608 1038 639 1068 q 535 1008 578 1008 z "},"H":{"ha":944,"x_min":97,"x_max":847,"o":"m 753 939 q 820 911 793 939 q 847 844 847 883 l 847 94 q 820 28 847 56 q 753 0 793 0 q 686 27 714 0 q 658 94 658 54 l 658 375 l 286 375 l 286 94 q 259 27 286 54 q 192 0 232 0 q 125 28 153 0 q 97 94 97 56 l 97 844 q 125 912 97 885 q 192 939 153 939 q 259 912 232 939 q 286 844 286 885 l 286 547 l 658 547 l 658 844 q 686 912 658 885 q 753 939 714 939 z "},"Ħ":{"ha":1139,"x_min":83,"x_max":1056,"o":"m 983 800 q 1035 779 1014 800 q 1056 728 1056 758 q 1035 676 1056 697 q 983 656 1014 656 l 951 656 l 951 94 q 924 28 951 56 q 857 0 897 0 q 790 28 818 0 q 763 94 763 56 l 763 375 l 376 375 l 376 94 q 349 28 376 56 q 282 0 322 0 q 215 28 243 0 q 188 94 188 56 l 188 656 l 156 656 q 104 676 125 656 q 83 728 83 697 q 104 779 83 758 q 156 800 125 800 l 188 800 l 188 844 q 215 912 188 885 q 282 939 243 939 q 349 912 322 939 q 376 844 376 885 l 376 800 l 763 800 l 763 844 q 790 912 763 885 q 857 939 818 939 q 924 912 897 939 q 951 844 951 885 l 951 800 l 983 800 m 763 656 l 376 656 l 376 547 l 763 547 l 763 656 z "},"Ḥ":{"ha":917,"x_min":83,"x_max":833,"o":"m 739 939 q 806 912 779 939 q 833 844 833 885 l 833 94 q 806 28 833 56 q 739 0 779 0 q 672 28 700 0 q 644 94 644 56 l 644 375 l 272 375 l 272 94 q 245 28 272 56 q 178 0 218 0 q 111 28 139 0 q 83 94 83 56 l 83 844 q 111 912 83 885 q 178 939 139 939 q 245 912 218 939 q 272 844 272 885 l 272 547 l 644 547 l 644 844 q 672 912 644 885 q 739 939 700 939 m 458 -69 q 532 -99 501 -69 q 563 -175 563 -129 q 532 -251 563 -221 q 458 -281 501 -281 q 385 -251 415 -281 q 354 -175 354 -221 q 385 -99 354 -129 q 458 -69 415 -69 z "},"I":{"ha":383,"x_min":97,"x_max":286,"o":"m 192 0 q 125 28 153 0 q 97 94 97 56 l 97 844 q 125 912 97 885 q 192 939 153 939 q 259 912 232 939 q 286 844 286 885 l 286 94 q 259 27 286 54 q 192 0 232 0 z "},"Í":{"ha":383,"x_min":97,"x_max":386,"o":"m 192 0 q 125 28 153 0 q 97 94 97 56 l 97 844 q 125 912 97 885 q 192 939 153 939 q 259 912 232 939 q 286 844 286 885 l 286 94 q 259 27 286 54 q 192 0 232 0 m 186 1022 q 141 1039 163 1022 q 119 1089 119 1056 q 136 1136 119 1113 l 226 1260 q 304 1306 260 1306 q 362 1281 338 1306 q 386 1217 386 1256 q 356 1151 386 1179 l 238 1043 q 186 1022 214 1022 z "},"Ǐ":{"ha":383,"x_min":-29,"x_max":413,"o":"m 192 0 q 125 28 153 0 q 97 94 97 56 l 97 844 q 125 912 97 885 q 192 939 153 939 q 259 912 232 939 q 286 844 286 885 l 286 94 q 259 27 286 54 q 192 0 232 0 m 367 1260 q 399 1238 385 1254 q 413 1197 413 1221 q 410 1179 413 1186 q 379 1135 404 1153 l 254 1046 q 192 1022 224 1022 q 129 1046 160 1022 l 6 1135 q -26 1179 -21 1154 q -29 1197 -29 1193 q -15 1238 -29 1221 q 18 1260 -1 1254 q 39 1263 32 1263 q 72 1256 58 1263 l 192 1201 l 311 1256 q 344 1263 325 1263 q 367 1260 353 1263 z "},"Î":{"ha":383,"x_min":-29,"x_max":413,"o":"m 192 0 q 125 28 153 0 q 97 94 97 56 l 97 844 q 125 912 97 885 q 192 939 153 939 q 259 912 232 939 q 286 844 286 885 l 286 94 q 259 27 286 54 q 192 0 232 0 m 410 1106 q 413 1088 413 1099 q 399 1048 413 1064 q 367 1026 385 1032 q 344 1022 357 1022 q 311 1029 332 1022 l 192 1085 l 72 1029 q 39 1022 51 1022 q 18 1026 29 1022 q -15 1048 -1 1032 q -29 1088 -29 1064 q -26 1106 -29 1092 q 6 1150 -21 1131 l 129 1239 q 192 1263 160 1263 q 254 1239 224 1263 l 379 1150 q 410 1106 404 1132 z "},"Ï":{"ha":383,"x_min":-37,"x_max":421,"o":"m 192 0 q 125 28 153 0 q 97 94 97 56 l 97 844 q 125 912 97 885 q 192 939 153 939 q 259 912 232 939 q 286 844 286 885 l 286 94 q 259 27 286 54 q 192 0 232 0 m 56 1008 q -10 1035 17 1008 q -37 1103 -37 1061 q -10 1171 -37 1144 q 56 1197 17 1197 q 122 1171 94 1197 q 149 1103 149 1144 q 122 1035 149 1061 q 56 1008 94 1008 m 326 1008 q 260 1035 288 1008 q 233 1103 233 1061 q 260 1171 233 1144 q 326 1197 288 1197 q 392 1171 365 1197 q 419 1103 419 1144 q 392 1035 419 1061 q 326 1008 365 1008 z "},"İ":{"ha":383,"x_min":88,"x_max":296,"o":"m 192 0 q 125 28 153 0 q 97 94 97 56 l 97 844 q 125 912 97 885 q 192 939 153 939 q 259 912 232 939 q 286 844 286 885 l 286 94 q 259 27 286 54 q 192 0 232 0 m 192 1008 q 118 1038 149 1008 q 88 1114 88 1068 q 118 1190 88 1160 q 192 1219 149 1219 q 265 1190 235 1219 q 296 1114 296 1160 q 265 1038 296 1068 q 192 1008 235 1008 z "},"Ị":{"ha":356,"x_min":76,"x_max":285,"o":"m 181 0 q 114 28 142 0 q 86 94 86 56 l 86 844 q 114 912 86 885 q 181 939 142 939 q 248 912 221 939 q 275 844 275 885 l 275 94 q 248 28 275 56 q 181 0 221 0 m 181 -281 q 107 -251 138 -281 q 76 -175 76 -221 q 107 -99 76 -129 q 181 -69 138 -69 q 254 -99 224 -69 q 285 -175 285 -129 q 254 -251 285 -221 q 181 -281 224 -281 z "},"Ì":{"ha":383,"x_min":-3,"x_max":286,"o":"m 192 0 q 125 28 153 0 q 97 94 97 56 l 97 844 q 125 912 97 885 q 192 939 153 939 q 259 912 232 939 q 286 844 286 885 l 286 94 q 259 27 286 54 q 192 0 232 0 m 197 1021 q 146 1042 169 1021 l 28 1150 q -3 1215 -3 1178 q 22 1278 -3 1253 q 79 1304 46 1304 q 157 1258 124 1304 l 247 1135 q 264 1088 264 1111 q 243 1038 264 1054 q 197 1021 222 1021 z "},"Ī":{"ha":383,"x_min":-54,"x_max":432,"o":"m 192 0 q 125 28 153 0 q 97 94 97 56 l 97 844 q 125 912 97 885 q 192 939 153 939 q 259 912 232 939 q 286 844 286 885 l 286 94 q 259 27 286 54 q 192 0 232 0 m 18 1047 q -33 1068 -12 1047 q -54 1119 -54 1089 q -33 1171 -54 1150 q 18 1192 -12 1192 l 360 1192 q 411 1171 390 1192 q 432 1119 432 1150 q 411 1068 432 1089 q 360 1047 390 1047 l 18 1047 z "},"Į":{"ha":356,"x_min":11,"x_max":285,"o":"m 285 -168 q 274 -199 285 -185 q 243 -221 263 -214 q 164 -236 197 -236 q 53 -192 94 -236 q 11 -86 11 -147 q 33 -10 11 -46 q 97 46 54 25 q 83 94 83 65 l 83 844 q 111 911 83 883 q 178 939 139 939 q 245 912 218 939 q 272 844 272 885 l 272 94 q 245 27 272 54 q 178 0 218 0 q 128 -23 146 -4 q 111 -65 111 -42 q 127 -103 111 -87 q 172 -118 143 -118 q 213 -111 188 -118 q 229 -108 224 -108 q 268 -125 251 -108 q 285 -168 285 -142 z "},"Ĩ":{"ha":383,"x_min":-26,"x_max":382,"o":"m 192 0 q 125 28 153 0 q 97 94 97 56 l 97 844 q 125 912 97 885 q 192 939 153 939 q 259 912 232 939 q 286 844 286 885 l 286 94 q 259 27 286 54 q 192 0 232 0 m 354 1035 q 328 1028 340 1028 q 293 1039 308 1028 q 253 1053 278 1053 q 208 1042 228 1053 q 119 1018 167 1018 q -7 1065 51 1018 q -26 1107 -26 1082 q -19 1135 -26 1122 q 1 1156 -11 1149 q 28 1163 15 1163 q 63 1150 47 1163 q 103 1138 79 1138 q 147 1149 128 1138 q 236 1172 189 1172 q 363 1125 304 1172 q 382 1083 382 1108 q 374 1055 382 1068 q 354 1035 367 1042 z "},"J":{"ha":694,"x_min":39,"x_max":597,"o":"m 74 69 q 48 102 57 83 q 39 140 39 121 q 57 193 39 171 q 128 228 83 228 q 181 210 158 228 q 296 168 238 168 q 353 183 328 168 q 393 228 379 199 q 411 357 411 268 l 410 846 q 435 912 408 885 q 501 939 463 939 q 567 912 540 939 q 596 846 594 885 l 597 333 q 585 215 597 268 q 540 114 574 161 q 434 24 499 54 q 296 -7 369 -7 q 179 13 236 -7 q 74 69 122 32 z "},"K":{"ha":876,"x_min":97,"x_max":838,"o":"m 821 146 q 838 92 838 121 q 827 49 838 69 q 797 15 817 29 q 744 -1 775 -1 q 702 9 722 -1 q 668 39 682 19 l 407 410 l 286 292 l 286 94 q 259 28 286 56 q 192 0 232 0 q 125 28 153 0 q 97 94 97 56 l 97 844 q 125 912 97 885 q 192 939 153 939 q 259 912 232 939 q 286 844 286 885 l 286 547 l 663 914 q 726 940 689 940 q 793 913 765 940 q 819 847 819 886 q 792 781 819 808 l 544 542 l 821 146 z "},"L":{"ha":692,"x_min":97,"x_max":653,"o":"m 567 172 q 628 147 603 172 q 653 86 653 122 q 628 26 653 51 q 567 0 603 0 l 192 0 l 192 0 l 192 0 q 125 28 153 0 q 97 94 97 56 l 97 844 q 125 912 97 885 q 192 939 153 939 q 259 912 232 939 q 286 844 286 885 l 286 172 l 567 172 z "},"Ĺ":{"ha":692,"x_min":97,"x_max":653,"o":"m 567 172 q 628 147 603 172 q 653 86 653 122 q 628 26 653 51 q 567 0 603 0 l 192 0 l 192 0 l 192 0 q 125 28 153 0 q 97 94 97 56 l 97 844 q 125 912 97 885 q 192 939 153 939 q 259 912 232 939 q 286 844 286 885 l 286 172 l 567 172 m 186 1022 q 141 1039 163 1022 q 119 1089 119 1056 q 136 1136 119 1113 l 226 1260 q 304 1306 260 1306 q 362 1281 338 1306 q 386 1217 386 1256 q 356 1151 386 1179 l 238 1043 q 186 1022 214 1022 z "},"Ľ":{"ha":681,"x_min":83,"x_max":639,"o":"m 553 172 q 614 147 589 172 q 639 86 639 122 q 614 26 639 51 q 553 0 589 0 l 178 0 l 178 0 l 178 0 q 111 28 139 0 q 83 94 83 56 l 83 844 q 111 912 83 885 q 178 939 139 939 q 245 912 218 939 q 272 844 272 885 l 272 172 l 553 172 m 393 847 q 415 911 389 883 q 476 939 440 939 q 540 911 514 939 q 561 847 565 883 l 540 665 q 519 625 538 642 q 476 608 501 608 q 433 625 451 608 q 413 667 415 642 l 393 847 z "},"Ḷ":{"ha":681,"x_min":83,"x_max":639,"o":"m 553 172 q 614 147 589 172 q 639 86 639 122 q 614 26 639 51 q 553 0 589 0 l 178 0 l 178 0 l 178 0 q 111 28 139 0 q 83 94 83 56 l 83 844 q 111 912 83 885 q 178 939 139 939 q 245 912 218 939 q 272 844 272 885 l 272 172 l 553 172 m 361 -69 q 435 -99 404 -69 q 465 -175 465 -129 q 435 -251 465 -221 q 361 -281 404 -281 q 288 -251 318 -281 q 257 -175 257 -221 q 288 -99 257 -129 q 361 -69 318 -69 z "},"Ł":{"ha":681,"x_min":-81,"x_max":639,"o":"m 553 172 q 614 147 589 172 q 639 86 639 122 q 614 26 639 51 q 553 0 589 0 l 178 0 l 178 0 l 178 0 q 111 28 139 0 q 83 94 83 56 l 83 376 l 22 347 q -8 340 6 340 q -47 351 -29 340 q -74 382 -64 363 q -81 413 -81 396 q -69 451 -81 433 q -39 479 -58 469 l 83 536 l 83 844 q 111 912 83 885 q 178 939 139 939 q 245 912 218 939 q 272 844 272 885 l 272 624 l 333 653 q 364 660 350 660 q 402 649 385 660 q 429 618 419 638 q 436 588 436 604 q 425 549 436 567 q 394 521 414 531 l 272 464 l 272 172 l 553 172 z "},"M":{"ha":1069,"x_min":97,"x_max":972,"o":"m 878 939 q 945 912 918 939 q 972 844 972 885 l 972 94 q 945 28 972 56 q 878 0 918 0 q 811 28 839 0 q 783 94 783 56 l 783 594 l 607 367 q 574 340 593 349 q 535 332 554 331 q 496 340 515 331 q 463 367 476 349 l 286 594 l 286 94 q 259 28 286 56 q 192 0 232 0 q 125 28 153 0 q 97 94 97 56 l 97 844 q 125 912 97 885 q 192 939 153 939 q 237 928 217 939 q 269 897 257 917 l 535 556 l 800 897 q 833 928 813 917 q 878 939 853 939 z "},"Ḿ":{"ha":1069,"x_min":97,"x_max":972,"o":"m 878 939 q 945 912 918 939 q 972 844 972 885 l 972 94 q 945 28 972 56 q 878 0 918 0 q 811 28 839 0 q 783 94 783 56 l 783 594 l 607 367 q 574 340 593 349 q 535 332 554 331 q 496 340 515 331 q 463 367 476 349 l 286 594 l 286 94 q 259 28 286 56 q 192 0 232 0 q 125 28 153 0 q 97 94 97 56 l 97 844 q 125 912 97 885 q 192 939 153 939 q 237 928 217 939 q 269 897 257 917 l 535 556 l 800 897 q 833 928 813 917 q 878 939 853 939 m 529 1022 q 484 1039 506 1022 q 463 1089 463 1056 q 479 1136 463 1113 l 569 1260 q 647 1306 603 1306 q 705 1281 681 1306 q 729 1217 729 1256 q 699 1151 729 1179 l 581 1043 q 529 1022 557 1022 z "},"N":{"ha":944,"x_min":90,"x_max":854,"o":"m 183 0 q 117 28 144 0 q 90 94 90 56 l 90 844 q 117 911 90 883 q 183 939 144 939 q 229 927 208 939 q 263 899 250 915 l 665 353 l 665 844 q 693 912 665 885 q 760 939 721 939 q 826 911 799 939 q 854 844 854 883 l 854 94 q 826 28 854 56 q 761 0 799 0 q 715 12 736 0 q 681 40 693 24 l 279 585 l 279 94 q 251 28 279 56 q 183 0 222 0 z "},"Ń":{"ha":944,"x_min":90,"x_max":854,"o":"m 183 0 q 117 28 144 0 q 90 94 90 56 l 90 844 q 117 911 90 883 q 183 939 144 939 q 229 927 208 939 q 263 899 250 915 l 665 353 l 665 844 q 693 912 665 885 q 760 939 721 939 q 826 911 799 939 q 854 844 854 883 l 854 94 q 826 28 854 56 q 761 0 799 0 q 715 12 736 0 q 681 40 693 24 l 279 585 l 279 94 q 251 28 279 56 q 183 0 222 0 m 467 1022 q 422 1039 443 1022 q 400 1089 400 1056 q 417 1136 400 1113 l 507 1260 q 585 1306 540 1306 q 642 1281 618 1306 q 667 1217 667 1256 q 636 1151 667 1179 l 518 1043 q 467 1022 494 1022 z "},"Ň":{"ha":944,"x_min":90,"x_max":854,"o":"m 183 0 q 117 28 144 0 q 90 94 90 56 l 90 844 q 117 911 90 883 q 183 939 144 939 q 229 927 208 939 q 263 899 250 915 l 665 353 l 665 844 q 693 912 665 885 q 760 939 721 939 q 826 911 799 939 q 854 844 854 883 l 854 94 q 826 28 854 56 q 761 0 799 0 q 715 12 736 0 q 681 40 693 24 l 279 585 l 279 94 q 251 28 279 56 q 183 0 222 0 m 647 1260 q 679 1238 665 1254 q 693 1197 693 1221 q 690 1179 693 1186 q 660 1135 685 1153 l 535 1046 q 472 1022 504 1022 q 410 1046 440 1022 l 286 1135 q 254 1179 260 1154 q 251 1197 251 1193 q 265 1238 251 1221 q 299 1260 279 1254 q 319 1263 313 1263 q 353 1256 339 1263 l 472 1201 l 592 1256 q 625 1263 606 1263 q 647 1260 633 1263 z "},"Ṅ":{"ha":944,"x_min":90,"x_max":854,"o":"m 183 0 q 117 28 144 0 q 90 94 90 56 l 90 844 q 117 911 90 883 q 183 939 144 939 q 229 927 208 939 q 263 899 250 915 l 665 353 l 665 844 q 693 912 665 885 q 760 939 721 939 q 826 911 799 939 q 854 844 854 883 l 854 94 q 826 28 854 56 q 761 0 799 0 q 715 12 736 0 q 681 40 693 24 l 279 585 l 279 94 q 251 28 279 56 q 183 0 222 0 m 472 1008 q 399 1038 429 1008 q 368 1114 368 1068 q 399 1190 368 1160 q 472 1219 429 1219 q 546 1190 515 1219 q 576 1114 576 1160 q 546 1038 576 1068 q 472 1008 515 1008 z "},"Ṇ":{"ha":944,"x_min":90,"x_max":854,"o":"m 183 0 q 117 28 144 0 q 90 94 90 56 l 90 844 q 117 911 90 883 q 183 939 144 939 q 229 927 208 939 q 263 899 250 915 l 665 353 l 665 844 q 693 912 665 885 q 760 939 721 939 q 826 911 799 939 q 854 844 854 883 l 854 94 q 826 28 854 56 q 761 0 799 0 q 715 12 736 0 q 681 40 693 24 l 279 585 l 279 94 q 251 28 279 56 q 183 0 222 0 m 472 -281 q 399 -251 429 -281 q 368 -175 368 -221 q 399 -99 368 -129 q 472 -69 429 -69 q 546 -99 515 -69 q 576 -175 576 -129 q 546 -251 576 -221 q 472 -281 515 -281 z "},"Ñ":{"ha":944,"x_min":90,"x_max":854,"o":"m 183 0 q 117 28 144 0 q 90 94 90 56 l 90 844 q 117 911 90 883 q 183 939 144 939 q 229 927 208 939 q 263 899 250 915 l 665 353 l 665 844 q 693 912 665 885 q 760 939 721 939 q 826 911 799 939 q 854 844 854 883 l 854 94 q 826 28 854 56 q 761 0 799 0 q 715 12 736 0 q 681 40 693 24 l 279 585 l 279 94 q 251 28 279 56 q 183 0 222 0 m 635 1035 q 608 1028 621 1028 q 574 1039 589 1028 q 533 1053 558 1053 q 489 1042 508 1053 q 400 1018 447 1018 q 274 1065 332 1018 q 254 1107 254 1082 q 262 1135 254 1122 q 282 1156 269 1149 q 308 1163 296 1163 q 343 1150 328 1163 q 383 1138 360 1138 q 428 1149 408 1138 q 517 1172 469 1172 q 643 1125 585 1172 q 663 1083 663 1108 q 655 1055 663 1068 q 635 1035 647 1042 z "},"O":{"ha":1103,"x_min":78,"x_max":1025,"o":"m 551 -8 q 313 53 421 -8 q 141 223 204 114 q 78 469 78 332 q 141 716 78 607 q 313 886 204 825 q 551 947 421 947 q 790 886 682 947 q 962 716 899 825 q 1025 469 1025 607 q 962 223 1025 332 q 790 53 899 114 q 551 -8 682 -8 m 551 164 q 694 203 629 164 q 798 311 760 242 q 836 469 836 381 q 798 628 836 558 q 694 736 760 697 q 551 775 629 775 q 408 736 474 775 q 305 628 343 697 q 267 469 267 558 q 305 311 267 381 q 408 203 343 242 q 551 164 474 164 z "},"Ó":{"ha":1103,"x_min":78,"x_max":1025,"o":"m 551 -8 q 313 53 421 -8 q 141 223 204 114 q 78 469 78 332 q 141 716 78 607 q 313 886 204 825 q 551 947 421 947 q 790 886 682 947 q 962 716 899 825 q 1025 469 1025 607 q 962 223 1025 332 q 790 53 899 114 q 551 -8 682 -8 m 551 164 q 694 203 629 164 q 798 311 760 242 q 836 469 836 381 q 798 628 836 558 q 694 736 760 697 q 551 775 629 775 q 408 736 474 775 q 305 628 343 697 q 267 469 267 558 q 305 311 267 381 q 408 203 343 242 q 551 164 474 164 m 551 1022 q 506 1039 528 1022 q 485 1089 485 1056 q 501 1136 485 1113 l 592 1260 q 669 1306 625 1306 q 727 1281 703 1306 q 751 1217 751 1256 q 721 1151 751 1179 l 603 1043 q 551 1022 579 1022 z "},"Ǒ":{"ha":1103,"x_min":78,"x_max":1025,"o":"m 551 -8 q 313 53 421 -8 q 141 223 204 114 q 78 469 78 332 q 141 716 78 607 q 313 886 204 825 q 551 947 421 947 q 790 886 682 947 q 962 716 899 825 q 1025 469 1025 607 q 962 223 1025 332 q 790 53 899 114 q 551 -8 682 -8 m 551 164 q 694 203 629 164 q 798 311 760 242 q 836 469 836 381 q 798 628 836 558 q 694 736 760 697 q 551 775 629 775 q 408 736 474 775 q 305 628 343 697 q 267 469 267 558 q 305 311 267 381 q 408 203 343 242 q 551 164 474 164 m 732 1260 q 764 1238 750 1254 q 778 1197 778 1221 q 775 1179 778 1186 q 744 1135 769 1153 l 619 1046 q 557 1022 589 1022 q 494 1046 525 1022 l 371 1135 q 339 1179 344 1154 q 336 1197 336 1193 q 350 1238 336 1221 q 383 1260 364 1254 q 404 1263 397 1263 q 438 1256 424 1263 l 557 1201 l 676 1256 q 710 1263 690 1263 q 732 1260 718 1263 z "},"Ô":{"ha":1103,"x_min":78,"x_max":1025,"o":"m 551 -8 q 313 53 421 -8 q 141 223 204 114 q 78 469 78 332 q 141 716 78 607 q 313 886 204 825 q 551 947 421 947 q 790 886 682 947 q 962 716 899 825 q 1025 469 1025 607 q 962 223 1025 332 q 790 53 899 114 q 551 -8 682 -8 m 551 164 q 694 203 629 164 q 798 311 760 242 q 836 469 836 381 q 798 628 836 558 q 694 736 760 697 q 551 775 629 775 q 408 736 474 775 q 305 628 343 697 q 267 469 267 558 q 305 311 267 381 q 408 203 343 242 q 551 164 474 164 m 775 1106 q 778 1088 778 1099 q 764 1048 778 1064 q 732 1026 750 1032 q 710 1022 722 1022 q 676 1029 697 1022 l 557 1085 l 438 1029 q 404 1022 417 1022 q 383 1026 394 1022 q 350 1048 364 1032 q 336 1088 336 1064 q 339 1106 336 1092 q 371 1150 344 1131 l 494 1239 q 557 1263 525 1263 q 619 1239 589 1263 l 744 1150 q 775 1106 769 1132 z "},"Ö":{"ha":1103,"x_min":78,"x_max":1025,"o":"m 551 -8 q 313 53 421 -8 q 141 223 204 114 q 78 469 78 332 q 141 716 78 607 q 313 886 204 825 q 551 947 421 947 q 790 886 682 947 q 962 716 899 825 q 1025 469 1025 607 q 962 223 1025 332 q 790 53 899 114 q 551 -8 682 -8 m 551 164 q 694 203 629 164 q 798 311 760 242 q 836 469 836 381 q 798 628 836 558 q 694 736 760 697 q 551 775 629 775 q 408 736 474 775 q 305 628 343 697 q 267 469 267 558 q 305 311 267 381 q 408 203 343 242 q 551 164 474 164 m 421 1008 q 355 1035 382 1008 q 328 1103 328 1061 q 355 1171 328 1144 q 421 1197 382 1197 q 487 1171 460 1197 q 514 1103 514 1144 q 487 1035 514 1061 q 421 1008 460 1008 m 692 1008 q 626 1035 653 1008 q 599 1103 599 1061 q 626 1171 599 1144 q 692 1197 653 1197 q 758 1171 731 1197 q 785 1103 785 1144 q 758 1035 785 1061 q 692 1008 731 1008 z "},"Ọ":{"ha":1086,"x_min":69,"x_max":1017,"o":"m 543 -8 q 304 53 413 -8 q 133 223 196 114 q 69 469 69 332 q 133 716 69 607 q 304 886 196 825 q 543 947 413 947 q 782 886 674 947 q 953 716 890 825 q 1017 469 1017 607 q 953 223 1017 332 q 782 53 890 114 q 543 -8 674 -8 m 543 164 q 686 203 621 164 q 790 311 751 242 q 828 469 828 381 q 790 628 828 558 q 686 736 751 697 q 543 775 621 775 q 400 736 465 775 q 297 628 335 697 q 258 469 258 558 q 297 311 258 381 q 400 203 335 242 q 543 164 465 164 m 543 -281 q 469 -251 500 -281 q 439 -175 439 -221 q 469 -99 439 -129 q 543 -69 500 -69 q 617 -99 586 -69 q 647 -175 647 -129 q 617 -251 647 -221 q 543 -281 586 -281 z "},"Ò":{"ha":1103,"x_min":78,"x_max":1025,"o":"m 551 -8 q 313 53 421 -8 q 141 223 204 114 q 78 469 78 332 q 141 716 78 607 q 313 886 204 825 q 551 947 421 947 q 790 886 682 947 q 962 716 899 825 q 1025 469 1025 607 q 962 223 1025 332 q 790 53 899 114 q 551 -8 682 -8 m 551 164 q 694 203 629 164 q 798 311 760 242 q 836 469 836 381 q 798 628 836 558 q 694 736 760 697 q 551 775 629 775 q 408 736 474 775 q 305 628 343 697 q 267 469 267 558 q 305 311 267 381 q 408 203 343 242 q 551 164 474 164 m 563 1021 q 511 1042 535 1021 l 393 1150 q 363 1215 363 1178 q 387 1278 363 1253 q 444 1304 411 1304 q 522 1258 489 1304 l 613 1135 q 629 1088 629 1111 q 608 1038 629 1054 q 563 1021 588 1021 z "},"Ō":{"ha":1103,"x_min":78,"x_max":1025,"o":"m 551 -8 q 313 53 421 -8 q 141 223 204 114 q 78 469 78 332 q 141 716 78 607 q 313 886 204 825 q 551 947 421 947 q 790 886 682 947 q 962 716 899 825 q 1025 469 1025 607 q 962 223 1025 332 q 790 53 899 114 q 551 -8 682 -8 m 551 164 q 694 203 629 164 q 798 311 760 242 q 836 469 836 381 q 798 628 836 558 q 694 736 760 697 q 551 775 629 775 q 408 736 474 775 q 305 628 343 697 q 267 469 267 558 q 305 311 267 381 q 408 203 343 242 q 551 164 474 164 m 383 1047 q 332 1068 353 1047 q 311 1119 311 1089 q 332 1171 311 1150 q 383 1192 353 1192 l 725 1192 q 776 1171 756 1192 q 797 1119 797 1150 q 776 1068 797 1089 q 725 1047 756 1047 l 383 1047 z "},"Ø":{"ha":1067,"x_min":54,"x_max":1001,"o":"m 803 864 q 949 698 896 800 q 1001 469 1001 596 q 938 223 1001 332 q 767 53 875 114 q 528 -8 658 -8 q 404 7 465 -8 l 360 -87 q 329 -122 350 -110 q 285 -135 308 -135 q 224 -110 247 -135 q 201 -51 201 -85 q 210 -17 201 -33 l 253 75 q 107 242 160 139 q 54 469 54 344 q 117 716 54 607 q 289 886 181 825 q 528 947 397 947 q 651 932 590 947 l 696 1026 q 726 1061 706 1049 q 771 1074 747 1074 q 831 1049 808 1074 q 854 990 854 1024 q 846 956 854 972 l 803 864 m 243 469 q 266 344 243 401 q 331 244 289 286 l 576 771 q 528 775 554 775 q 385 736 450 775 q 281 628 319 697 q 243 469 243 558 m 528 164 q 671 203 606 164 q 774 311 736 242 q 813 469 813 381 q 790 595 813 538 q 725 694 767 653 l 479 168 q 528 164 503 164 z "},"Õ":{"ha":1103,"x_min":78,"x_max":1025,"o":"m 551 -8 q 313 53 421 -8 q 141 223 204 114 q 78 469 78 332 q 141 716 78 607 q 313 886 204 825 q 551 947 421 947 q 790 886 682 947 q 962 716 899 825 q 1025 469 1025 607 q 962 223 1025 332 q 790 53 899 114 q 551 -8 682 -8 m 551 164 q 694 203 629 164 q 798 311 760 242 q 836 469 836 381 q 798 628 836 558 q 694 736 760 697 q 551 775 629 775 q 408 736 474 775 q 305 628 343 697 q 267 469 267 558 q 305 311 267 381 q 408 203 343 242 q 551 164 474 164 m 719 1035 q 693 1028 706 1028 q 658 1039 674 1028 q 618 1053 643 1053 q 574 1042 593 1053 q 485 1018 532 1018 q 358 1065 417 1018 q 339 1107 339 1082 q 347 1135 339 1122 q 367 1156 354 1149 q 393 1163 381 1163 q 428 1150 413 1163 q 468 1138 444 1138 q 513 1149 493 1138 q 601 1172 554 1172 q 728 1125 669 1172 q 747 1083 747 1108 q 740 1055 747 1068 q 719 1035 732 1042 z "},"Œ":{"ha":1803,"x_min":54,"x_max":1369,"o":"m 1283 172 q 1344 147 1319 172 q 1369 86 1369 122 q 1344 26 1369 51 q 1283 0 1319 0 l 908 0 l 908 0 l 908 0 q 842 26 869 0 q 814 92 815 53 q 678 17 753 43 q 521 -8 603 -8 q 285 53 392 -8 q 117 223 179 114 q 54 469 54 332 q 117 716 54 607 q 285 886 179 825 q 521 947 392 947 q 678 922 603 947 q 814 847 753 896 q 842 913 815 886 q 908 939 869 939 l 908 939 l 1283 939 q 1344 914 1319 939 q 1369 853 1369 889 q 1344 792 1369 818 q 1283 767 1319 767 l 1003 767 l 1003 547 l 1242 547 q 1303 522 1278 547 q 1328 461 1328 497 q 1303 401 1328 426 q 1242 375 1278 375 l 1003 375 l 1003 172 l 1283 172 m 528 164 q 671 203 606 164 q 774 311 736 242 q 813 469 813 381 q 774 628 813 558 q 671 736 736 697 q 528 775 606 775 q 385 736 450 775 q 281 628 319 697 q 243 469 243 558 q 281 311 243 381 q 385 203 319 242 q 528 164 450 164 z "},"P":{"ha":772,"x_min":97,"x_max":694,"o":"m 390 939 q 543 901 474 939 q 653 797 613 864 q 694 647 694 731 q 653 497 694 564 q 543 393 613 431 q 390 356 474 356 l 286 356 l 286 94 q 259 28 286 56 q 192 0 232 0 q 125 28 153 0 q 97 94 97 56 l 97 844 q 125 912 97 885 q 192 939 153 939 l 390 939 m 383 528 q 470 562 435 528 q 506 647 506 596 q 470 733 506 699 q 383 767 435 767 l 286 767 l 286 528 l 383 528 z "},"Þ":{"ha":792,"x_min":97,"x_max":694,"o":"m 390 761 q 543 724 474 761 q 653 619 613 686 q 694 469 694 553 q 653 319 694 386 q 543 215 613 253 q 390 178 474 178 l 286 178 l 286 94 q 259 28 286 56 q 192 0 232 0 q 125 28 153 0 q 97 94 97 56 l 97 844 q 125 912 97 885 q 192 939 153 939 q 259 912 232 939 q 286 844 286 885 l 286 761 l 390 761 m 383 350 q 470 384 435 350 q 506 469 506 418 q 470 555 506 521 q 383 589 435 589 l 286 589 l 286 350 l 383 350 z "},"Q":{"ha":1111,"x_min":78,"x_max":1033,"o":"m 1033 82 q 1007 17 1033 43 q 942 -10 981 -10 q 876 18 904 -10 l 822 72 q 551 -8 703 -8 q 313 53 421 -8 q 141 223 204 114 q 78 469 78 332 q 141 716 78 607 q 313 886 204 825 q 551 947 421 947 q 790 886 682 947 q 962 716 899 825 q 1025 469 1025 607 q 950 204 1025 321 l 1007 147 q 1033 82 1033 121 m 551 164 q 693 201 626 164 l 589 307 q 563 372 563 333 q 589 438 563 411 q 654 464 615 464 q 718 436 690 464 l 813 342 q 836 469 836 401 q 798 628 836 558 q 694 736 760 697 q 551 775 629 775 q 408 736 474 775 q 305 628 343 697 q 267 469 267 558 q 305 311 267 381 q 408 203 343 242 q 551 164 474 164 z "},"R":{"ha":742,"x_min":97,"x_max":703,"o":"m 690 132 q 703 85 703 111 q 691 40 703 61 q 657 4 679 18 q 610 -8 635 -8 q 563 4 585 -8 q 529 38 542 17 l 340 356 l 286 356 l 286 94 q 259 27 286 54 q 192 0 232 0 q 125 28 153 0 q 97 94 97 56 l 97 844 q 125 912 97 885 q 192 939 153 939 l 390 939 q 543 901 474 939 q 653 797 613 864 q 694 647 694 731 q 652 494 694 561 q 538 390 610 426 l 690 132 m 286 528 l 383 528 q 470 562 435 528 q 506 647 506 596 q 470 733 506 699 q 383 767 435 767 l 286 767 l 286 528 z "},"Ŕ":{"ha":742,"x_min":97,"x_max":703,"o":"m 690 132 q 703 85 703 111 q 691 40 703 61 q 657 4 679 18 q 610 -8 635 -8 q 563 4 585 -8 q 529 38 542 17 l 340 356 l 286 356 l 286 94 q 259 27 286 54 q 192 0 232 0 q 125 28 153 0 q 97 94 97 56 l 97 844 q 125 912 97 885 q 192 939 153 939 l 390 939 q 543 901 474 939 q 653 797 613 864 q 694 647 694 731 q 652 494 694 561 q 538 390 610 426 l 690 132 m 286 528 l 383 528 q 470 562 435 528 q 506 647 506 596 q 470 733 506 699 q 383 767 435 767 l 286 767 l 286 528 m 394 1022 q 349 1039 371 1022 q 328 1089 328 1056 q 344 1136 328 1113 l 435 1260 q 513 1306 468 1306 q 570 1281 546 1306 q 594 1217 594 1256 q 564 1151 594 1179 l 446 1043 q 394 1022 422 1022 z "},"Ř":{"ha":742,"x_min":97,"x_max":703,"o":"m 690 132 q 703 85 703 111 q 691 40 703 61 q 657 4 679 18 q 610 -8 635 -8 q 563 4 585 -8 q 529 38 542 17 l 340 356 l 286 356 l 286 94 q 259 27 286 54 q 192 0 232 0 q 125 28 153 0 q 97 94 97 56 l 97 844 q 125 912 97 885 q 192 939 153 939 l 390 939 q 543 901 474 939 q 653 797 613 864 q 694 647 694 731 q 652 494 694 561 q 538 390 610 426 l 690 132 m 286 528 l 383 528 q 470 562 435 528 q 506 647 506 596 q 470 733 506 699 q 383 767 435 767 l 286 767 l 286 528 m 575 1260 q 607 1238 593 1254 q 621 1197 621 1221 q 618 1179 621 1186 q 588 1135 613 1153 l 463 1046 q 400 1022 432 1022 q 338 1046 368 1022 l 214 1135 q 182 1179 188 1154 q 179 1197 179 1193 q 193 1238 179 1221 q 226 1260 207 1254 q 247 1263 240 1263 q 281 1256 267 1263 l 400 1201 l 519 1256 q 553 1263 533 1263 q 575 1260 561 1263 z "},"S":{"ha":797,"x_min":53,"x_max":744,"o":"m 390 -8 q 229 15 310 -8 q 104 72 149 39 q 61 146 61 103 q 88 211 61 185 q 149 238 114 238 q 193 226 174 238 q 297 180 251 196 q 406 164 343 164 q 515 190 475 164 q 556 254 556 215 q 532 306 556 285 q 473 340 508 326 q 372 372 438 353 q 210 428 274 400 q 99 513 146 456 q 53 663 53 569 q 100 819 53 756 q 225 915 147 883 q 394 946 303 946 q 553 918 469 946 q 686 856 636 890 q 726 788 726 825 q 703 730 726 754 q 647 706 679 706 q 604 717 624 706 q 503 760 546 749 q 390 772 460 772 q 281 744 321 772 q 242 672 242 715 q 288 599 242 625 q 433 546 335 574 q 594 490 532 517 q 700 408 656 463 q 744 267 744 354 q 694 112 744 174 q 563 21 643 50 q 390 -8 482 -8 z "},"Ś":{"ha":797,"x_min":53,"x_max":744,"o":"m 390 -8 q 229 15 310 -8 q 104 72 149 39 q 61 146 61 103 q 88 211 61 185 q 149 238 114 238 q 193 226 174 238 q 297 180 251 196 q 406 164 343 164 q 515 190 475 164 q 556 254 556 215 q 532 306 556 285 q 473 340 508 326 q 372 372 438 353 q 210 428 274 400 q 99 513 146 456 q 53 663 53 569 q 100 819 53 756 q 225 915 147 883 q 394 946 303 946 q 553 918 469 946 q 686 856 636 890 q 726 788 726 825 q 703 730 726 754 q 647 706 679 706 q 604 717 624 706 q 503 760 546 749 q 390 772 460 772 q 281 744 321 772 q 242 672 242 715 q 288 599 242 625 q 433 546 335 574 q 594 490 532 517 q 700 408 656 463 q 744 267 744 354 q 694 112 744 174 q 563 21 643 50 q 390 -8 482 -8 m 364 1022 q 319 1039 340 1022 q 297 1089 297 1056 q 314 1136 297 1113 l 404 1260 q 482 1306 438 1306 q 540 1281 515 1306 q 564 1217 564 1256 q 533 1151 564 1179 l 415 1043 q 364 1022 392 1022 z "},"Š":{"ha":797,"x_min":53,"x_max":744,"o":"m 390 -8 q 229 15 310 -8 q 104 72 149 39 q 61 146 61 103 q 88 211 61 185 q 149 238 114 238 q 193 226 174 238 q 297 180 251 196 q 406 164 343 164 q 515 190 475 164 q 556 254 556 215 q 532 306 556 285 q 473 340 508 326 q 372 372 438 353 q 210 428 274 400 q 99 513 146 456 q 53 663 53 569 q 100 819 53 756 q 225 915 147 883 q 394 946 303 946 q 553 918 469 946 q 686 856 636 890 q 726 788 726 825 q 703 730 726 754 q 647 706 679 706 q 604 717 624 706 q 503 760 546 749 q 390 772 460 772 q 281 744 321 772 q 242 672 242 715 q 288 599 242 625 q 433 546 335 574 q 594 490 532 517 q 700 408 656 463 q 744 267 744 354 q 694 112 744 174 q 563 21 643 50 q 390 -8 482 -8 m 546 1260 q 578 1238 564 1254 q 592 1197 592 1221 q 589 1179 592 1186 q 558 1135 583 1153 l 433 1046 q 371 1022 403 1022 q 308 1046 339 1022 l 185 1135 q 153 1179 158 1154 q 150 1197 150 1193 q 164 1238 150 1221 q 197 1260 178 1254 q 218 1263 211 1263 q 251 1256 238 1263 l 371 1201 l 490 1256 q 524 1263 504 1263 q 546 1260 532 1263 z "},"Ş":{"ha":797,"x_min":53,"x_max":746,"o":"m 744 267 q 677 92 746 158 q 500 3 608 25 q 536 -94 536 -37 q 494 -199 536 -154 q 385 -243 453 -243 q 306 -228 346 -243 q 275 -207 286 -221 q 264 -175 264 -193 q 281 -132 264 -149 q 319 -115 297 -115 q 336 -118 325 -115 q 376 -125 356 -125 q 421 -110 406 -125 q 436 -72 436 -94 q 420 -32 436 -50 q 375 -8 404 -14 q 222 17 297 -7 q 104 72 146 40 q 61 146 61 103 q 88 211 61 185 q 149 238 114 238 q 193 226 174 238 q 297 180 251 196 q 406 164 343 164 q 515 190 475 164 q 556 254 556 215 q 532 306 556 285 q 473 340 508 326 q 372 372 438 353 q 210 428 274 400 q 99 513 146 456 q 53 663 53 569 q 100 819 53 756 q 225 915 147 883 q 394 946 303 946 q 553 918 469 946 q 686 856 636 890 q 726 788 726 825 q 703 730 726 754 q 647 706 679 706 q 604 717 624 706 q 503 760 546 749 q 390 772 460 772 q 281 744 321 772 q 242 672 242 715 q 288 599 242 625 q 433 546 335 574 q 594 490 532 517 q 700 408 656 463 q 744 267 744 354 z "},"Ṣ":{"ha":797,"x_min":53,"x_max":744,"o":"m 390 -8 q 229 15 310 -8 q 104 72 149 39 q 61 146 61 103 q 88 211 61 185 q 149 238 114 238 q 193 226 174 238 q 297 180 251 196 q 406 164 343 164 q 515 190 475 164 q 556 254 556 215 q 532 306 556 285 q 473 340 508 326 q 372 372 438 353 q 210 428 274 400 q 99 513 146 456 q 53 663 53 569 q 100 819 53 756 q 225 915 147 883 q 394 946 303 946 q 553 918 469 946 q 686 856 636 890 q 726 788 726 825 q 703 730 726 754 q 647 706 679 706 q 604 717 624 706 q 503 760 546 749 q 390 772 460 772 q 281 744 321 772 q 242 672 242 715 q 288 599 242 625 q 433 546 335 574 q 594 490 532 517 q 700 408 656 463 q 744 267 744 354 q 694 112 744 174 q 563 21 643 50 q 390 -8 482 -8 m 399 -289 q 325 -259 356 -289 q 294 -183 294 -229 q 325 -108 294 -137 q 399 -78 356 -78 q 473 -108 443 -78 q 503 -183 503 -137 q 473 -259 503 -229 q 399 -289 443 -289 z "},"T":{"ha":786,"x_min":39,"x_max":747,"o":"m 661 939 q 722 914 697 939 q 747 853 747 889 q 722 792 747 818 q 661 767 697 767 l 488 767 l 488 94 q 460 28 488 56 q 393 0 433 0 q 326 28 354 0 q 299 94 299 56 l 299 767 l 125 767 q 65 792 90 767 q 39 853 39 818 q 65 914 39 889 q 125 939 90 939 l 661 939 z "},"Ŧ":{"ha":786,"x_min":39,"x_max":747,"o":"m 488 767 l 488 531 l 613 531 q 664 510 643 531 q 685 458 685 489 q 664 407 685 428 q 613 386 643 386 l 488 386 l 488 94 q 460 28 488 56 q 393 0 433 0 q 326 28 354 0 q 299 94 299 56 l 299 386 l 174 386 q 122 407 143 386 q 101 458 101 428 q 122 510 101 489 q 174 531 143 531 l 299 531 l 299 767 l 125 767 q 65 792 90 767 q 39 853 39 818 q 65 914 39 889 q 125 939 90 939 l 661 939 q 722 914 697 939 q 747 853 747 889 q 722 792 747 818 q 661 767 697 767 l 488 767 z "},"Ť":{"ha":786,"x_min":39,"x_max":747,"o":"m 661 939 q 722 914 697 939 q 747 853 747 889 q 722 792 747 818 q 661 767 697 767 l 488 767 l 488 94 q 460 28 488 56 q 393 0 433 0 q 326 28 354 0 q 299 94 299 56 l 299 767 l 125 767 q 65 792 90 767 q 39 853 39 818 q 65 914 39 889 q 125 939 90 939 l 661 939 m 568 1260 q 600 1238 586 1254 q 614 1197 614 1221 q 611 1179 614 1186 q 581 1135 606 1153 l 456 1046 q 393 1022 425 1022 q 331 1046 361 1022 l 207 1135 q 175 1179 181 1154 q 172 1197 172 1193 q 186 1238 172 1221 q 219 1260 200 1254 q 240 1263 233 1263 q 274 1256 260 1263 l 393 1201 l 513 1256 q 546 1263 526 1263 q 568 1260 554 1263 z "},"Ţ":{"ha":786,"x_min":39,"x_max":747,"o":"m 661 939 q 722 914 697 939 q 747 853 747 889 q 722 792 747 818 q 661 767 697 767 l 488 767 l 488 94 q 474 46 488 65 q 538 -10 517 25 q 560 -86 560 -46 q 518 -192 560 -147 q 407 -236 476 -236 q 328 -221 374 -236 q 297 -199 308 -214 q 286 -168 286 -185 q 303 -125 286 -142 q 342 -108 319 -108 q 358 -111 347 -108 q 399 -118 383 -118 q 444 -103 428 -118 q 460 -65 460 -87 q 442 -23 460 -42 q 393 0 425 -4 q 326 28 354 0 q 299 94 299 56 l 299 767 l 125 767 q 65 792 90 767 q 39 853 39 818 q 65 914 39 889 q 125 939 90 939 l 661 939 z "},"U":{"ha":939,"x_min":97,"x_max":842,"o":"m 469 -8 q 281 35 365 -8 q 147 163 196 78 q 97 368 97 249 l 97 844 q 125 912 97 885 q 192 939 153 939 q 259 912 232 939 q 286 844 286 885 l 286 368 q 338 218 286 272 q 469 164 390 164 q 601 218 549 164 q 653 368 653 272 l 653 844 q 681 912 653 885 q 747 939 708 939 q 815 912 788 939 q 842 844 842 885 l 842 368 q 792 163 842 249 q 658 35 743 78 q 469 -8 574 -8 z "},"Ú":{"ha":939,"x_min":97,"x_max":842,"o":"m 469 -8 q 281 35 365 -8 q 147 163 196 78 q 97 368 97 249 l 97 844 q 125 912 97 885 q 192 939 153 939 q 259 912 232 939 q 286 844 286 885 l 286 368 q 338 218 286 272 q 469 164 390 164 q 601 218 549 164 q 653 368 653 272 l 653 844 q 681 912 653 885 q 747 939 708 939 q 815 912 788 939 q 842 844 842 885 l 842 368 q 792 163 842 249 q 658 35 743 78 q 469 -8 574 -8 m 449 1022 q 403 1039 425 1022 q 382 1089 382 1056 q 399 1136 382 1113 l 489 1260 q 567 1306 522 1306 q 624 1281 600 1306 q 649 1217 649 1256 q 618 1151 649 1179 l 500 1043 q 449 1022 476 1022 z "},"Ǔ":{"ha":939,"x_min":97,"x_max":842,"o":"m 469 -8 q 281 35 365 -8 q 147 163 196 78 q 97 368 97 249 l 97 844 q 125 912 97 885 q 192 939 153 939 q 259 912 232 939 q 286 844 286 885 l 286 368 q 338 218 286 272 q 469 164 390 164 q 601 218 549 164 q 653 368 653 272 l 653 844 q 681 912 653 885 q 747 939 708 939 q 815 912 788 939 q 842 844 842 885 l 842 368 q 792 163 842 249 q 658 35 743 78 q 469 -8 574 -8 m 629 1260 q 661 1238 647 1254 q 675 1197 675 1221 q 672 1179 675 1186 q 642 1135 667 1153 l 517 1046 q 454 1022 486 1022 q 392 1046 422 1022 l 268 1135 q 236 1179 242 1154 q 233 1197 233 1193 q 247 1238 233 1221 q 281 1260 261 1254 q 301 1263 294 1263 q 335 1256 321 1263 l 454 1201 l 574 1256 q 607 1263 588 1263 q 629 1260 615 1263 z "},"Û":{"ha":939,"x_min":97,"x_max":842,"o":"m 469 -8 q 281 35 365 -8 q 147 163 196 78 q 97 368 97 249 l 97 844 q 125 912 97 885 q 192 939 153 939 q 259 912 232 939 q 286 844 286 885 l 286 368 q 338 218 286 272 q 469 164 390 164 q 601 218 549 164 q 653 368 653 272 l 653 844 q 681 912 653 885 q 747 939 708 939 q 815 912 788 939 q 842 844 842 885 l 842 368 q 792 163 842 249 q 658 35 743 78 q 469 -8 574 -8 m 672 1106 q 675 1088 675 1099 q 661 1048 675 1064 q 629 1026 647 1032 q 607 1022 619 1022 q 574 1029 594 1022 l 454 1085 l 335 1029 q 301 1022 314 1022 q 281 1026 292 1022 q 247 1048 261 1032 q 233 1088 233 1064 q 236 1106 233 1092 q 268 1150 242 1131 l 392 1239 q 454 1263 422 1263 q 517 1239 486 1263 l 642 1150 q 672 1106 667 1132 z "},"Ü":{"ha":939,"x_min":97,"x_max":842,"o":"m 469 -8 q 281 35 365 -8 q 147 163 196 78 q 97 368 97 249 l 97 844 q 125 912 97 885 q 192 939 153 939 q 259 912 232 939 q 286 844 286 885 l 286 368 q 338 218 286 272 q 469 164 390 164 q 601 218 549 164 q 653 368 653 272 l 653 844 q 681 912 653 885 q 747 939 708 939 q 815 912 788 939 q 842 844 842 885 l 842 368 q 792 163 842 249 q 658 35 743 78 q 469 -8 574 -8 m 318 1008 q 252 1035 279 1008 q 225 1103 225 1061 q 252 1171 225 1144 q 318 1197 279 1197 q 384 1171 357 1197 q 411 1103 411 1144 q 384 1035 411 1061 q 318 1008 357 1008 m 589 1008 q 523 1035 550 1008 q 496 1103 496 1061 q 523 1171 496 1144 q 589 1197 550 1197 q 655 1171 628 1197 q 682 1103 682 1144 q 655 1035 682 1061 q 589 1008 628 1008 z "},"Ụ":{"ha":939,"x_min":97,"x_max":842,"o":"m 469 -8 q 281 35 365 -8 q 147 163 196 78 q 97 368 97 249 l 97 844 q 125 912 97 885 q 192 939 153 939 q 259 912 232 939 q 286 844 286 885 l 286 368 q 338 218 286 272 q 469 164 390 164 q 601 218 549 164 q 653 368 653 272 l 653 844 q 681 912 653 885 q 747 939 708 939 q 815 912 788 939 q 842 844 842 885 l 842 368 q 792 163 842 249 q 658 35 743 78 q 469 -8 574 -8 m 469 -281 q 396 -251 426 -281 q 365 -175 365 -221 q 396 -99 365 -129 q 469 -69 426 -69 q 543 -99 513 -69 q 574 -175 574 -129 q 543 -251 574 -221 q 469 -281 513 -281 z "},"Ù":{"ha":939,"x_min":97,"x_max":842,"o":"m 469 -8 q 281 35 365 -8 q 147 163 196 78 q 97 368 97 249 l 97 844 q 125 912 97 885 q 192 939 153 939 q 259 912 232 939 q 286 844 286 885 l 286 368 q 338 218 286 272 q 469 164 390 164 q 601 218 549 164 q 653 368 653 272 l 653 844 q 681 912 653 885 q 747 939 708 939 q 815 912 788 939 q 842 844 842 885 l 842 368 q 792 163 842 249 q 658 35 743 78 q 469 -8 574 -8 m 460 1021 q 408 1042 432 1021 l 290 1150 q 260 1215 260 1178 q 284 1278 260 1253 q 342 1304 308 1304 q 419 1258 386 1304 l 510 1135 q 526 1088 526 1111 q 506 1038 526 1054 q 460 1021 485 1021 z "},"Ū":{"ha":939,"x_min":97,"x_max":842,"o":"m 469 -8 q 281 35 365 -8 q 147 163 196 78 q 97 368 97 249 l 97 844 q 125 912 97 885 q 192 939 153 939 q 259 912 232 939 q 286 844 286 885 l 286 368 q 338 218 286 272 q 469 164 390 164 q 601 218 549 164 q 653 368 653 272 l 653 844 q 681 912 653 885 q 747 939 708 939 q 815 912 788 939 q 842 844 842 885 l 842 368 q 792 163 842 249 q 658 35 743 78 q 469 -8 574 -8 m 281 1047 q 229 1068 250 1047 q 208 1119 208 1089 q 229 1171 208 1150 q 281 1192 250 1192 l 622 1192 q 674 1171 653 1192 q 694 1119 694 1150 q 674 1068 694 1089 q 622 1047 653 1047 l 281 1047 z "},"Ų":{"ha":939,"x_min":97,"x_max":842,"o":"m 775 -165 q 696 -179 733 -179 q 586 -135 628 -179 q 544 -31 544 -90 q 547 -1 544 -11 q 469 -8 506 -8 q 281 35 365 -8 q 147 163 196 78 q 97 368 97 249 l 97 844 q 125 912 97 885 q 192 939 153 939 q 259 912 232 939 q 286 844 286 885 l 286 368 q 338 218 286 272 q 469 164 390 164 q 601 218 549 164 q 653 368 653 272 l 653 844 q 681 912 653 885 q 747 939 708 939 q 815 912 788 939 q 842 844 842 885 l 842 368 q 798 173 842 256 q 676 44 754 90 q 653 21 661 35 q 644 -10 644 7 q 660 -47 644 -32 q 704 -62 676 -62 q 744 -56 719 -62 q 761 -53 750 -53 q 801 -69 785 -53 q 817 -112 817 -86 q 775 -165 817 -149 z "},"Ů":{"ha":939,"x_min":97,"x_max":842,"o":"m 469 -8 q 281 35 365 -8 q 147 163 196 78 q 97 368 97 249 l 97 844 q 125 912 97 885 q 192 939 153 939 q 259 912 232 939 q 286 844 286 885 l 286 368 q 338 218 286 272 q 469 164 390 164 q 601 218 549 164 q 653 368 653 272 l 653 844 q 681 912 653 885 q 747 939 708 939 q 815 912 788 939 q 842 844 842 885 l 842 368 q 792 163 842 249 q 658 35 743 78 q 469 -8 574 -8 m 454 1022 q 346 1066 390 1022 q 301 1175 301 1110 q 346 1285 301 1242 q 454 1328 390 1328 q 563 1285 518 1328 q 607 1175 607 1242 q 563 1066 607 1110 q 454 1022 518 1022 m 454 1118 q 493 1134 478 1118 q 508 1175 508 1150 q 493 1216 508 1200 q 454 1232 478 1232 q 415 1216 431 1232 q 400 1175 400 1200 q 415 1134 400 1150 q 454 1118 431 1118 z "},"Ũ":{"ha":939,"x_min":97,"x_max":842,"o":"m 469 -8 q 281 35 365 -8 q 147 163 196 78 q 97 368 97 249 l 97 844 q 125 912 97 885 q 192 939 153 939 q 259 912 232 939 q 286 844 286 885 l 286 368 q 338 218 286 272 q 469 164 390 164 q 601 218 549 164 q 653 368 653 272 l 653 844 q 681 912 653 885 q 747 939 708 939 q 815 912 788 939 q 842 844 842 885 l 842 368 q 792 163 842 249 q 658 35 743 78 q 469 -8 574 -8 m 617 1035 q 590 1028 603 1028 q 556 1039 571 1028 q 515 1053 540 1053 q 471 1042 490 1053 q 382 1018 429 1018 q 256 1065 314 1018 q 236 1107 236 1082 q 244 1135 236 1122 q 264 1156 251 1149 q 290 1163 278 1163 q 325 1150 310 1163 q 365 1138 342 1138 q 410 1149 390 1138 q 499 1172 451 1172 q 625 1125 567 1172 q 644 1083 644 1108 q 637 1055 644 1068 q 617 1035 629 1042 z "},"V":{"ha":904,"x_min":39,"x_max":865,"o":"m 453 -6 q 397 10 422 -7 q 361 53 372 26 l 46 813 q 39 849 39 833 q 54 901 39 878 q 96 936 69 925 q 133 943 117 943 q 185 928 161 943 q 219 885 208 914 l 451 313 l 683 885 q 718 927 693 911 q 771 943 743 943 q 839 914 813 943 q 865 847 865 885 q 858 813 865 826 l 542 53 q 506 10 531 26 q 453 -6 482 -7 z "},"W":{"ha":1546,"x_min":39,"x_max":1507,"o":"m 1414 943 q 1481 914 1454 943 q 1507 847 1507 885 q 1501 813 1507 828 l 1185 53 q 1149 10 1174 26 q 1094 -6 1124 -7 q 1040 10 1065 -7 q 1004 53 1015 26 l 774 618 l 542 53 q 506 10 531 26 q 453 -6 482 -7 q 397 10 422 -7 q 361 53 372 26 l 46 813 q 39 849 39 833 q 54 901 39 878 q 96 936 69 925 q 133 943 117 943 q 185 928 161 943 q 219 885 208 914 l 451 313 l 683 885 q 719 928 694 911 q 772 943 743 944 q 825 929 800 944 q 863 885 850 914 l 1094 313 l 1326 885 q 1361 927 1338 911 q 1414 943 1385 943 z "},"Ẃ":{"ha":1546,"x_min":39,"x_max":1507,"o":"m 1414 943 q 1481 914 1454 943 q 1507 847 1507 885 q 1501 813 1507 828 l 1185 53 q 1149 10 1174 26 q 1094 -6 1124 -7 q 1040 10 1065 -7 q 1004 53 1015 26 l 774 618 l 542 53 q 506 10 531 26 q 453 -6 482 -7 q 397 10 422 -7 q 361 53 372 26 l 46 813 q 39 849 39 833 q 54 901 39 878 q 96 936 69 925 q 133 943 117 943 q 185 928 161 943 q 219 885 208 914 l 451 313 l 683 885 q 719 928 694 911 q 772 943 743 944 q 825 929 800 944 q 863 885 850 914 l 1094 313 l 1326 885 q 1361 927 1338 911 q 1414 943 1385 943 m 768 1022 q 723 1039 744 1022 q 701 1089 701 1056 q 718 1136 701 1113 l 808 1260 q 886 1306 842 1306 q 944 1281 919 1306 q 968 1217 968 1256 q 938 1151 968 1179 l 819 1043 q 768 1022 796 1022 z "},"Ŵ":{"ha":1546,"x_min":39,"x_max":1507,"o":"m 1414 943 q 1481 914 1454 943 q 1507 847 1507 885 q 1501 813 1507 828 l 1185 53 q 1149 10 1174 26 q 1094 -6 1124 -7 q 1040 10 1065 -7 q 1004 53 1015 26 l 774 618 l 542 53 q 506 10 531 26 q 453 -6 482 -7 q 397 10 422 -7 q 361 53 372 26 l 46 813 q 39 849 39 833 q 54 901 39 878 q 96 936 69 925 q 133 943 117 943 q 185 928 161 943 q 219 885 208 914 l 451 313 l 683 885 q 719 928 694 911 q 772 943 743 944 q 825 929 800 944 q 863 885 850 914 l 1094 313 l 1326 885 q 1361 927 1338 911 q 1414 943 1385 943 m 992 1106 q 994 1088 994 1099 q 981 1048 994 1064 q 949 1026 967 1032 q 926 1022 939 1022 q 893 1029 914 1022 l 774 1085 l 654 1029 q 621 1022 633 1022 q 600 1026 611 1022 q 567 1048 581 1032 q 553 1088 553 1064 q 556 1106 553 1092 q 588 1150 561 1131 l 711 1239 q 774 1263 742 1263 q 836 1239 806 1263 l 961 1150 q 992 1106 986 1132 z "},"Ẅ":{"ha":1546,"x_min":39,"x_max":1507,"o":"m 1414 943 q 1481 914 1454 943 q 1507 847 1507 885 q 1501 813 1507 828 l 1185 53 q 1149 10 1174 26 q 1094 -6 1124 -7 q 1040 10 1065 -7 q 1004 53 1015 26 l 774 618 l 542 53 q 506 10 531 26 q 453 -6 482 -7 q 397 10 422 -7 q 361 53 372 26 l 46 813 q 39 849 39 833 q 54 901 39 878 q 96 936 69 925 q 133 943 117 943 q 185 928 161 943 q 219 885 208 914 l 451 313 l 683 885 q 719 928 694 911 q 772 943 743 944 q 825 929 800 944 q 863 885 850 914 l 1094 313 l 1326 885 q 1361 927 1338 911 q 1414 943 1385 943 m 638 1008 q 572 1035 599 1008 q 544 1103 544 1061 q 572 1171 544 1144 q 638 1197 599 1197 q 703 1171 676 1197 q 731 1103 731 1144 q 703 1035 731 1061 q 638 1008 676 1008 m 908 1008 q 842 1035 869 1008 q 815 1103 815 1061 q 842 1171 815 1144 q 908 1197 869 1197 q 974 1171 947 1197 q 1001 1103 1001 1144 q 974 1035 1001 1061 q 908 1008 947 1008 z "},"Ẁ":{"ha":1546,"x_min":39,"x_max":1507,"o":"m 1414 943 q 1481 914 1454 943 q 1507 847 1507 885 q 1501 813 1507 828 l 1185 53 q 1149 10 1174 26 q 1094 -6 1124 -7 q 1040 10 1065 -7 q 1004 53 1015 26 l 774 618 l 542 53 q 506 10 531 26 q 453 -6 482 -7 q 397 10 422 -7 q 361 53 372 26 l 46 813 q 39 849 39 833 q 54 901 39 878 q 96 936 69 925 q 133 943 117 943 q 185 928 161 943 q 219 885 208 914 l 451 313 l 683 885 q 719 928 694 911 q 772 943 743 944 q 825 929 800 944 q 863 885 850 914 l 1094 313 l 1326 885 q 1361 927 1338 911 q 1414 943 1385 943 m 779 1021 q 728 1042 751 1021 l 610 1150 q 579 1215 579 1178 q 603 1278 579 1253 q 661 1304 628 1304 q 739 1258 706 1304 l 829 1135 q 846 1088 846 1111 q 825 1038 846 1054 q 779 1021 804 1021 z "},"X":{"ha":908,"x_min":39,"x_max":869,"o":"m 849 149 q 869 89 869 122 q 835 15 869 44 q 775 -6 810 -6 q 703 29 729 -6 l 454 332 l 207 29 q 133 -6 178 -6 q 74 15 99 -6 q 39 89 39 44 q 61 149 39 122 l 335 478 l 75 790 q 53 850 53 817 q 88 924 53 894 q 147 944 113 944 q 221 910 192 944 l 454 624 l 689 910 q 761 944 715 944 q 821 924 796 944 q 856 850 856 894 q 835 790 856 818 l 574 478 l 849 149 z "},"Y":{"ha":788,"x_min":39,"x_max":749,"o":"m 703 931 q 737 895 725 917 q 749 849 749 874 q 735 800 749 822 l 488 386 l 488 94 q 460 28 488 56 q 393 0 433 0 q 326 28 354 0 q 299 94 299 56 l 299 386 l 53 800 q 39 849 39 822 q 51 895 39 874 q 85 931 63 917 q 133 944 110 944 q 180 933 158 944 q 214 899 201 921 l 393 581 l 574 899 q 608 933 586 921 q 654 944 629 944 q 703 931 678 944 z "},"Ý":{"ha":788,"x_min":39,"x_max":749,"o":"m 703 931 q 737 895 725 917 q 749 849 749 874 q 735 800 749 822 l 488 386 l 488 94 q 460 28 488 56 q 393 0 433 0 q 326 28 354 0 q 299 94 299 56 l 299 386 l 53 800 q 39 849 39 822 q 51 895 39 874 q 85 931 63 917 q 133 944 110 944 q 180 933 158 944 q 214 899 201 921 l 393 581 l 574 899 q 608 933 586 921 q 654 944 629 944 q 703 931 678 944 m 381 1022 q 335 1039 357 1022 q 314 1089 314 1056 q 331 1136 314 1113 l 421 1260 q 499 1306 454 1306 q 556 1281 532 1306 q 581 1217 581 1256 q 550 1151 581 1179 l 432 1043 q 381 1022 408 1022 z "},"Ŷ":{"ha":788,"x_min":39,"x_max":749,"o":"m 703 931 q 737 895 725 917 q 749 849 749 874 q 735 800 749 822 l 488 386 l 488 94 q 460 28 488 56 q 393 0 433 0 q 326 28 354 0 q 299 94 299 56 l 299 386 l 53 800 q 39 849 39 822 q 51 895 39 874 q 85 931 63 917 q 133 944 110 944 q 180 933 158 944 q 214 899 201 921 l 393 581 l 574 899 q 608 933 586 921 q 654 944 629 944 q 703 931 678 944 m 604 1106 q 607 1088 607 1099 q 593 1048 607 1064 q 561 1026 579 1032 q 539 1022 551 1022 q 506 1029 526 1022 l 386 1085 l 267 1029 q 233 1022 246 1022 q 213 1026 224 1022 q 179 1048 193 1032 q 165 1088 165 1064 q 168 1106 165 1092 q 200 1150 174 1131 l 324 1239 q 386 1263 354 1263 q 449 1239 418 1263 l 574 1150 q 604 1106 599 1132 z "},"Ÿ":{"ha":788,"x_min":39,"x_max":749,"o":"m 703 931 q 737 895 725 917 q 749 849 749 874 q 735 800 749 822 l 488 386 l 488 94 q 460 28 488 56 q 393 0 433 0 q 326 28 354 0 q 299 94 299 56 l 299 386 l 53 800 q 39 849 39 822 q 51 895 39 874 q 85 931 63 917 q 133 944 110 944 q 180 933 158 944 q 214 899 201 921 l 393 581 l 574 899 q 608 933 586 921 q 654 944 629 944 q 703 931 678 944 m 251 1008 q 185 1035 213 1008 q 158 1103 158 1061 q 185 1171 158 1144 q 251 1197 213 1197 q 317 1171 290 1197 q 344 1103 344 1144 q 317 1035 344 1061 q 251 1008 290 1008 m 522 1008 q 456 1035 483 1008 q 429 1103 429 1061 q 456 1171 429 1144 q 522 1197 483 1197 q 588 1171 561 1197 q 615 1103 615 1144 q 588 1035 615 1061 q 522 1008 561 1008 z "},"Ỵ":{"ha":788,"x_min":39,"x_max":749,"o":"m 703 931 q 737 895 725 917 q 749 849 749 874 q 735 800 749 822 l 488 386 l 488 94 q 460 28 488 56 q 393 0 433 0 q 326 28 354 0 q 299 94 299 56 l 299 386 l 53 800 q 39 849 39 822 q 51 895 39 874 q 85 931 63 917 q 133 944 110 944 q 180 933 158 944 q 214 899 201 921 l 393 581 l 574 899 q 608 933 586 921 q 654 944 629 944 q 703 931 678 944 m 393 -69 q 467 -99 438 -69 q 497 -175 497 -129 q 467 -251 497 -221 q 393 -281 438 -281 q 319 -251 350 -281 q 289 -175 289 -221 q 319 -99 289 -129 q 393 -69 350 -69 z "},"Ỳ":{"ha":788,"x_min":39,"x_max":749,"o":"m 703 931 q 737 895 725 917 q 749 849 749 874 q 735 800 749 822 l 488 386 l 488 94 q 460 28 488 56 q 393 0 433 0 q 326 28 354 0 q 299 94 299 56 l 299 386 l 53 800 q 39 849 39 822 q 51 895 39 874 q 85 931 63 917 q 133 944 110 944 q 180 933 158 944 q 214 899 201 921 l 393 581 l 574 899 q 608 933 586 921 q 654 944 629 944 q 703 931 678 944 m 393 1021 q 342 1042 365 1021 l 224 1150 q 193 1215 193 1178 q 217 1278 193 1253 q 275 1304 242 1304 q 353 1258 319 1304 l 443 1135 q 460 1088 460 1111 q 439 1038 460 1054 q 393 1021 418 1021 z "},"Ỹ":{"ha":788,"x_min":39,"x_max":749,"o":"m 703 931 q 737 895 725 917 q 749 849 749 874 q 735 800 749 822 l 488 386 l 488 94 q 460 28 488 56 q 393 0 433 0 q 326 28 354 0 q 299 94 299 56 l 299 386 l 53 800 q 39 849 39 822 q 51 895 39 874 q 85 931 63 917 q 133 944 110 944 q 180 933 158 944 q 214 899 201 921 l 393 581 l 574 899 q 608 933 586 921 q 654 944 629 944 q 703 931 678 944 m 550 1035 q 524 1028 536 1028 q 489 1039 504 1028 q 449 1053 474 1053 q 404 1042 424 1053 q 315 1018 363 1018 q 189 1065 247 1018 q 169 1107 169 1082 q 177 1135 169 1122 q 197 1156 185 1149 q 224 1163 211 1163 q 258 1150 243 1163 q 299 1138 275 1138 q 343 1149 324 1138 q 432 1172 385 1172 q 558 1125 500 1172 q 578 1083 578 1108 q 570 1055 578 1068 q 550 1035 563 1042 z "},"Z":{"ha":775,"x_min":53,"x_max":722,"o":"m 142 0 q 96 15 114 3 q 64 49 75 28 q 53 93 53 69 q 68 144 53 122 l 467 767 l 160 767 q 99 792 125 767 q 74 853 74 818 q 99 914 74 889 q 160 939 125 939 l 626 939 q 679 924 657 939 q 711 890 700 911 q 722 846 722 869 q 707 794 722 821 l 308 172 l 635 172 q 696 147 671 172 q 721 86 721 122 q 696 26 721 51 q 635 0 671 0 l 142 0 z "},"Ź":{"ha":775,"x_min":53,"x_max":722,"o":"m 142 0 q 96 15 114 3 q 64 49 75 28 q 53 93 53 69 q 68 144 53 122 l 467 767 l 160 767 q 99 792 125 767 q 74 853 74 818 q 99 914 74 889 q 160 939 125 939 l 626 939 q 679 924 657 939 q 711 890 700 911 q 722 846 722 869 q 707 794 722 821 l 308 172 l 635 172 q 696 147 671 172 q 721 86 721 122 q 696 26 721 51 q 635 0 671 0 l 142 0 m 382 1022 q 337 1039 358 1022 q 315 1089 315 1056 q 332 1136 315 1113 l 422 1260 q 500 1306 456 1306 q 558 1281 533 1306 q 582 1217 582 1256 q 551 1151 582 1179 l 433 1043 q 382 1022 410 1022 z "},"Ž":{"ha":775,"x_min":53,"x_max":722,"o":"m 142 0 q 96 15 114 3 q 64 49 75 28 q 53 93 53 69 q 68 144 53 122 l 467 767 l 160 767 q 99 792 125 767 q 74 853 74 818 q 99 914 74 889 q 160 939 125 939 l 626 939 q 679 924 657 939 q 711 890 700 911 q 722 846 722 869 q 707 794 722 821 l 308 172 l 635 172 q 696 147 671 172 q 721 86 721 122 q 696 26 721 51 q 635 0 671 0 l 142 0 m 563 1260 q 594 1238 581 1254 q 608 1197 608 1221 q 606 1179 608 1186 q 575 1135 600 1153 l 450 1046 q 388 1022 419 1022 q 325 1046 356 1022 l 201 1135 q 169 1179 175 1154 q 167 1197 167 1193 q 181 1238 167 1221 q 214 1260 194 1254 q 235 1263 228 1263 q 268 1256 254 1263 l 388 1201 l 507 1256 q 540 1263 521 1263 q 563 1260 549 1263 z "},"Ż":{"ha":775,"x_min":53,"x_max":722,"o":"m 142 0 q 96 15 114 3 q 64 49 75 28 q 53 93 53 69 q 68 144 53 122 l 467 767 l 160 767 q 99 792 125 767 q 74 853 74 818 q 99 914 74 889 q 160 939 125 939 l 626 939 q 679 924 657 939 q 711 890 700 911 q 722 846 722 869 q 707 794 722 821 l 308 172 l 635 172 q 696 147 671 172 q 721 86 721 122 q 696 26 721 51 q 635 0 671 0 l 142 0 m 388 1008 q 314 1038 344 1008 q 283 1114 283 1068 q 314 1190 283 1160 q 388 1219 344 1219 q 461 1190 431 1219 q 492 1114 492 1160 q 461 1038 492 1068 q 388 1008 431 1008 z "},"Ẓ":{"ha":775,"x_min":53,"x_max":722,"o":"m 142 0 q 96 15 114 3 q 64 49 75 28 q 53 93 53 69 q 68 144 53 122 l 467 767 l 160 767 q 99 792 125 767 q 74 853 74 818 q 99 914 74 889 q 160 939 125 939 l 626 939 q 679 924 657 939 q 711 890 700 911 q 722 846 722 869 q 707 794 722 821 l 308 172 l 635 172 q 696 147 671 172 q 721 86 721 122 q 696 26 721 51 q 635 0 671 0 l 142 0 m 388 -281 q 313 -251 343 -281 q 283 -175 283 -221 q 313 -99 283 -129 q 388 -69 343 -69 q 461 -99 431 -69 q 492 -175 492 -129 q 461 -251 492 -221 q 388 -281 431 -281 z "},"a":{"ha":822,"x_min":64,"x_max":739,"o":"m 647 669 q 712 642 685 669 q 739 578 739 615 l 739 92 q 712 27 739 54 q 647 0 685 0 q 590 20 615 0 q 558 71 565 40 q 468 13 518 33 q 363 -8 418 -8 q 212 36 281 -8 q 103 159 143 81 q 64 335 64 238 q 103 510 64 432 q 212 633 143 589 q 363 678 281 678 q 468 657 418 678 q 558 599 518 636 q 590 649 565 629 q 647 669 615 669 m 406 158 q 516 208 471 158 q 561 335 561 258 q 516 461 561 411 q 406 511 471 511 q 295 461 340 511 q 250 335 250 411 q 295 208 250 258 q 406 158 340 158 z "},"á":{"ha":822,"x_min":64,"x_max":739,"o":"m 647 669 q 712 642 685 669 q 739 578 739 615 l 739 92 q 712 27 739 54 q 647 0 685 0 q 590 20 615 0 q 558 71 565 40 q 468 13 518 33 q 363 -8 418 -8 q 212 36 281 -8 q 103 159 143 81 q 64 335 64 238 q 103 510 64 432 q 212 633 143 589 q 363 678 281 678 q 468 657 418 678 q 558 599 518 636 q 590 649 565 629 q 647 669 615 669 m 406 158 q 516 208 471 158 q 561 335 561 258 q 516 461 561 411 q 406 511 471 511 q 295 461 340 511 q 250 335 250 411 q 295 208 250 258 q 406 158 340 158 m 407 753 q 362 769 383 753 q 340 819 340 786 q 357 867 340 843 l 447 990 q 525 1036 481 1036 q 583 1011 558 1036 q 607 947 607 986 q 576 882 607 910 l 458 774 q 407 753 435 753 z "},"ă":{"ha":822,"x_min":64,"x_max":739,"o":"m 647 669 q 712 642 685 669 q 739 578 739 615 l 739 92 q 712 27 739 54 q 647 0 685 0 q 590 20 615 0 q 558 71 565 40 q 468 13 518 33 q 363 -8 418 -8 q 212 36 281 -8 q 103 159 143 81 q 64 335 64 238 q 103 510 64 432 q 212 633 143 589 q 363 678 281 678 q 468 657 418 678 q 558 599 518 636 q 590 649 565 629 q 647 669 615 669 m 406 158 q 516 208 471 158 q 561 335 561 258 q 516 461 561 411 q 406 511 471 511 q 295 461 340 511 q 250 335 250 411 q 295 208 250 258 q 406 158 340 158 m 413 753 q 303 785 351 753 q 232 875 254 818 q 228 897 228 886 q 246 939 228 921 q 289 957 264 957 q 322 947 307 957 q 344 921 338 938 q 371 888 353 900 q 413 876 389 876 q 453 888 436 876 q 481 921 471 899 q 503 947 488 938 q 536 957 518 957 q 579 939 561 957 q 597 896 597 921 q 593 875 597 886 q 522 785 571 818 q 413 753 474 753 z "},"ǎ":{"ha":822,"x_min":64,"x_max":739,"o":"m 647 669 q 712 642 685 669 q 739 578 739 615 l 739 92 q 712 27 739 54 q 647 0 685 0 q 590 20 615 0 q 558 71 565 40 q 468 13 518 33 q 363 -8 418 -8 q 212 36 281 -8 q 103 159 143 81 q 64 335 64 238 q 103 510 64 432 q 212 633 143 589 q 363 678 281 678 q 468 657 418 678 q 558 599 518 636 q 590 649 565 629 q 647 669 615 669 m 406 158 q 516 208 471 158 q 561 335 561 258 q 516 461 561 411 q 406 511 471 511 q 295 461 340 511 q 250 335 250 411 q 295 208 250 258 q 406 158 340 158 m 588 990 q 619 968 606 985 q 633 928 633 951 q 631 910 633 917 q 600 865 625 883 l 475 776 q 413 753 444 753 q 350 776 381 753 l 226 865 q 194 910 200 885 q 192 928 192 924 q 206 968 192 951 q 239 990 219 985 q 260 993 253 993 q 293 986 279 993 l 413 932 l 532 986 q 565 993 546 993 q 588 990 574 993 z "},"â":{"ha":822,"x_min":64,"x_max":739,"o":"m 647 669 q 712 642 685 669 q 739 578 739 615 l 739 92 q 712 27 739 54 q 647 0 685 0 q 590 20 615 0 q 558 71 565 40 q 468 13 518 33 q 363 -8 418 -8 q 212 36 281 -8 q 103 159 143 81 q 64 335 64 238 q 103 510 64 432 q 212 633 143 589 q 363 678 281 678 q 468 657 418 678 q 558 599 518 636 q 590 649 565 629 q 647 669 615 669 m 406 158 q 516 208 471 158 q 561 335 561 258 q 516 461 561 411 q 406 511 471 511 q 295 461 340 511 q 250 335 250 411 q 295 208 250 258 q 406 158 340 158 m 631 836 q 633 818 633 829 q 619 778 633 794 q 588 757 606 763 q 565 753 578 753 q 532 760 553 753 l 413 815 l 293 760 q 260 753 272 753 q 239 757 250 753 q 206 778 219 763 q 192 818 192 794 q 194 836 192 822 q 226 881 200 861 l 350 969 q 413 993 381 993 q 475 969 444 993 l 600 881 q 631 836 625 863 z "},"ä":{"ha":822,"x_min":64,"x_max":739,"o":"m 647 669 q 712 642 685 669 q 739 578 739 615 l 739 92 q 712 27 739 54 q 647 0 685 0 q 590 20 615 0 q 558 71 565 40 q 468 13 518 33 q 363 -8 418 -8 q 212 36 281 -8 q 103 159 143 81 q 64 335 64 238 q 103 510 64 432 q 212 633 143 589 q 363 678 281 678 q 468 657 418 678 q 558 599 518 636 q 590 649 565 629 q 647 669 615 669 m 406 158 q 516 208 471 158 q 561 335 561 258 q 516 461 561 411 q 406 511 471 511 q 295 461 340 511 q 250 335 250 411 q 295 208 250 258 q 406 158 340 158 m 276 739 q 210 765 238 739 q 183 833 183 792 q 210 901 183 875 q 276 928 238 928 q 342 901 315 928 q 369 833 369 875 q 342 765 369 792 q 276 739 315 739 m 547 739 q 481 765 508 739 q 454 833 454 792 q 481 901 454 875 q 547 928 508 928 q 613 901 586 928 q 640 833 640 875 q 613 765 640 792 q 547 739 586 739 z "},"à":{"ha":822,"x_min":64,"x_max":739,"o":"m 647 669 q 712 642 685 669 q 739 578 739 615 l 739 92 q 712 27 739 54 q 647 0 685 0 q 590 20 615 0 q 558 71 565 40 q 468 13 518 33 q 363 -8 418 -8 q 212 36 281 -8 q 103 159 143 81 q 64 335 64 238 q 103 510 64 432 q 212 633 143 589 q 363 678 281 678 q 468 657 418 678 q 558 599 518 636 q 590 649 565 629 q 647 669 615 669 m 406 158 q 516 208 471 158 q 561 335 561 258 q 516 461 561 411 q 406 511 471 511 q 295 461 340 511 q 250 335 250 411 q 295 208 250 258 q 406 158 340 158 m 418 751 q 367 772 390 751 l 249 881 q 218 946 218 908 q 242 1009 218 983 q 300 1035 267 1035 q 378 989 344 1035 l 468 865 q 485 818 485 842 q 464 768 485 785 q 418 751 443 751 z "},"ā":{"ha":822,"x_min":64,"x_max":739,"o":"m 647 669 q 712 642 685 669 q 739 578 739 615 l 739 92 q 712 27 739 54 q 647 0 685 0 q 590 20 615 0 q 558 71 565 40 q 468 13 518 33 q 363 -8 418 -8 q 212 36 281 -8 q 103 159 143 81 q 64 335 64 238 q 103 510 64 432 q 212 633 143 589 q 363 678 281 678 q 468 657 418 678 q 558 599 518 636 q 590 649 565 629 q 647 669 615 669 m 406 158 q 516 208 471 158 q 561 335 561 258 q 516 461 561 411 q 406 511 471 511 q 295 461 340 511 q 250 335 250 411 q 295 208 250 258 q 406 158 340 158 m 239 778 q 188 799 208 778 q 167 850 167 819 q 188 901 167 881 q 239 922 208 922 l 581 922 q 632 901 611 922 q 653 850 653 881 q 632 799 653 819 q 581 778 611 778 l 239 778 z "},"ą":{"ha":821,"x_min":63,"x_max":785,"o":"m 785 -164 q 774 -194 785 -181 q 743 -217 763 -208 q 664 -232 697 -232 q 553 -187 596 -232 q 511 -82 511 -142 q 527 -16 511 -47 q 574 38 543 15 q 558 72 563 53 q 467 13 518 33 q 361 -8 417 -8 q 210 36 279 -8 q 102 159 142 81 q 63 335 63 238 q 102 510 63 432 q 210 633 142 589 q 361 678 279 678 q 467 657 417 678 q 558 597 518 636 q 590 649 565 629 q 647 669 614 669 q 713 643 686 669 q 739 578 739 617 l 739 92 q 718 35 739 60 q 665 3 697 10 q 625 -22 639 -4 q 611 -61 611 -40 q 627 -98 611 -82 q 672 -114 643 -114 q 713 -107 688 -114 q 729 -104 718 -104 q 769 -121 753 -104 q 785 -164 785 -137 m 404 158 q 515 208 469 158 q 560 335 560 258 q 515 461 560 411 q 404 511 469 511 q 294 461 339 511 q 249 335 249 411 q 294 208 249 258 q 404 158 339 158 z "},"å":{"ha":822,"x_min":64,"x_max":739,"o":"m 647 669 q 712 642 685 669 q 739 578 739 615 l 739 92 q 712 27 739 54 q 647 0 685 0 q 590 20 615 0 q 558 71 565 40 q 468 13 518 33 q 363 -8 418 -8 q 212 36 281 -8 q 103 159 143 81 q 64 335 64 238 q 103 510 64 432 q 212 633 143 589 q 363 678 281 678 q 468 657 418 678 q 558 599 518 636 q 590 649 565 629 q 647 669 615 669 m 406 158 q 516 208 471 158 q 561 335 561 258 q 516 461 561 411 q 406 511 471 511 q 295 461 340 511 q 250 335 250 411 q 295 208 250 258 q 406 158 340 158 m 413 753 q 304 797 349 753 q 260 906 260 840 q 304 1015 260 972 q 413 1058 349 1058 q 521 1015 476 1058 q 565 906 565 972 q 521 797 565 840 q 413 753 476 753 m 413 849 q 451 865 436 849 q 467 906 467 881 q 451 947 467 931 q 413 963 436 963 q 374 947 389 963 q 358 906 358 931 q 374 865 358 881 q 413 849 389 849 z "},"ã":{"ha":822,"x_min":64,"x_max":739,"o":"m 647 669 q 712 642 685 669 q 739 578 739 615 l 739 92 q 712 27 739 54 q 647 0 685 0 q 590 20 615 0 q 558 71 565 40 q 468 13 518 33 q 363 -8 418 -8 q 212 36 281 -8 q 103 159 143 81 q 64 335 64 238 q 103 510 64 432 q 212 633 143 589 q 363 678 281 678 q 468 657 418 678 q 558 599 518 636 q 590 649 565 629 q 647 669 615 669 m 406 158 q 516 208 471 158 q 561 335 561 258 q 516 461 561 411 q 406 511 471 511 q 295 461 340 511 q 250 335 250 411 q 295 208 250 258 q 406 158 340 158 m 575 765 q 549 758 561 758 q 514 769 529 758 q 474 783 499 783 q 429 772 449 783 q 340 749 388 749 q 214 796 272 749 q 194 838 194 813 q 202 866 194 853 q 222 886 210 879 q 249 893 236 893 q 283 881 268 893 q 324 868 300 868 q 368 879 349 868 q 457 903 410 903 q 583 856 525 903 q 603 814 603 839 q 595 785 603 799 q 575 765 588 772 z "},"æ":{"ha":1310,"x_min":63,"x_max":1247,"o":"m 1247 335 q 1225 281 1247 303 q 1171 258 1203 258 l 810 258 q 950 161 839 161 q 1085 188 1014 161 q 1115 193 1097 193 q 1174 169 1150 193 q 1199 110 1199 144 q 1183 62 1199 83 q 1143 32 1168 40 q 943 -4 1044 -4 q 735 72 819 -4 q 703 20 728 40 q 646 0 679 0 q 589 20 614 0 q 557 71 564 40 q 467 13 517 33 q 361 -8 417 -8 q 210 36 279 -8 q 102 159 142 81 q 63 335 63 238 q 102 510 63 432 q 210 633 142 589 q 361 678 279 678 q 467 657 417 678 q 557 599 517 636 q 589 649 564 629 q 646 669 614 669 q 704 649 679 669 q 736 596 729 628 q 933 679 819 679 q 1096 633 1024 679 q 1208 508 1168 588 q 1247 335 1247 429 m 404 158 q 515 208 469 158 q 560 335 560 258 q 515 461 560 411 q 404 511 469 511 q 294 461 339 511 q 249 335 249 411 q 294 208 249 258 q 404 158 339 158 m 1053 411 q 1008 483 1043 454 q 933 511 974 511 q 856 483 892 511 q 810 411 819 456 l 1053 411 z "},"b":{"ha":828,"x_min":89,"x_max":764,"o":"m 465 678 q 616 633 547 678 q 724 510 685 589 q 764 335 764 432 q 724 159 764 238 q 616 36 685 81 q 465 -8 547 -8 q 360 13 410 -8 q 269 71 310 33 q 238 20 263 40 q 181 0 213 0 q 116 27 143 0 q 89 92 89 54 l 89 889 q 116 953 89 926 q 181 981 143 981 q 245 953 218 981 q 272 889 272 926 l 272 600 q 360 658 311 638 q 465 678 410 678 m 422 158 q 533 208 488 158 q 578 335 578 258 q 533 461 578 411 q 422 511 488 511 q 312 461 357 511 q 267 335 267 411 q 312 208 267 258 q 422 158 357 158 z "},"ḅ":{"ha":822,"x_min":83,"x_max":758,"o":"m 460 678 q 610 633 542 678 q 719 510 679 589 q 758 335 758 432 q 719 159 758 238 q 610 36 679 81 q 460 -8 542 -8 q 354 13 404 -8 q 264 71 304 33 q 232 20 257 40 q 175 0 207 0 q 110 27 138 0 q 83 92 83 54 l 83 889 q 110 953 83 926 q 175 981 138 981 q 240 953 213 981 q 267 889 267 926 l 267 600 q 355 658 306 638 q 460 678 404 678 m 417 158 q 527 208 482 158 q 572 335 572 258 q 527 461 572 411 q 417 511 482 511 q 306 461 351 511 q 261 335 261 411 q 306 208 261 258 q 417 158 351 158 m 421 -69 q 494 -99 464 -69 q 525 -175 525 -129 q 494 -251 525 -221 q 421 -281 464 -281 q 347 -251 378 -281 q 317 -175 317 -221 q 347 -99 317 -129 q 421 -69 378 -69 z "},"c":{"ha":708,"x_min":64,"x_max":644,"o":"m 406 -8 q 233 36 311 -8 q 110 159 156 81 q 64 335 64 238 q 110 510 64 432 q 233 633 156 589 q 406 678 311 678 q 610 613 518 678 q 635 583 626 601 q 644 543 644 564 q 619 483 644 508 q 560 458 594 458 q 508 476 531 458 q 406 511 461 511 q 295 461 340 511 q 250 335 250 411 q 295 208 250 258 q 406 158 340 158 q 508 193 461 158 q 560 211 531 211 q 619 186 594 211 q 644 126 644 161 q 635 87 644 106 q 610 57 626 68 q 406 -8 518 -8 z "},"ć":{"ha":708,"x_min":64,"x_max":644,"o":"m 406 -8 q 233 36 311 -8 q 110 159 156 81 q 64 335 64 238 q 110 510 64 432 q 233 633 156 589 q 406 678 311 678 q 610 613 518 678 q 635 583 626 601 q 644 543 644 564 q 619 483 644 508 q 560 458 594 458 q 508 476 531 458 q 406 511 461 511 q 295 461 340 511 q 250 335 250 411 q 295 208 250 258 q 406 158 340 158 q 508 193 461 158 q 560 211 531 211 q 619 186 594 211 q 644 126 644 161 q 635 87 644 106 q 610 57 626 68 q 406 -8 518 -8 m 400 753 q 355 769 376 753 q 333 819 333 786 q 350 867 333 843 l 440 990 q 518 1036 474 1036 q 576 1011 551 1036 q 600 947 600 986 q 569 882 600 910 l 451 774 q 400 753 428 753 z "},"č":{"ha":708,"x_min":64,"x_max":644,"o":"m 406 -8 q 233 36 311 -8 q 110 159 156 81 q 64 335 64 238 q 110 510 64 432 q 233 633 156 589 q 406 678 311 678 q 610 613 518 678 q 635 583 626 601 q 644 543 644 564 q 619 483 644 508 q 560 458 594 458 q 508 476 531 458 q 406 511 461 511 q 295 461 340 511 q 250 335 250 411 q 295 208 250 258 q 406 158 340 158 q 508 193 461 158 q 560 211 531 211 q 619 186 594 211 q 644 126 644 161 q 635 87 644 106 q 610 57 626 68 q 406 -8 518 -8 m 581 990 q 613 968 599 985 q 626 928 626 951 q 624 910 626 917 q 593 865 618 883 l 468 776 q 406 753 438 753 q 343 776 374 753 l 219 865 q 188 910 193 885 q 185 928 185 924 q 199 968 185 951 q 232 990 213 985 q 253 993 246 993 q 286 986 272 993 l 406 932 l 525 986 q 558 993 539 993 q 581 990 567 993 z "},"ç":{"ha":708,"x_min":64,"x_max":644,"o":"m 560 211 q 619 186 594 211 q 644 126 644 161 q 635 87 644 106 q 610 57 626 68 q 525 13 567 28 q 572 -94 572 -31 q 530 -199 572 -154 q 419 -243 488 -243 q 340 -228 381 -243 q 310 -207 321 -221 q 299 -175 299 -193 q 315 -132 299 -149 q 354 -115 332 -115 q 371 -118 360 -115 q 411 -125 390 -125 q 456 -110 440 -125 q 472 -72 472 -94 q 456 -32 472 -50 q 411 -8 440 -14 l 406 -8 q 233 36 311 -8 q 110 159 156 81 q 64 335 64 238 q 110 510 64 432 q 233 633 156 589 q 406 678 311 678 q 610 613 518 678 q 635 583 626 601 q 644 543 644 564 q 619 483 644 508 q 560 458 594 458 q 508 476 531 458 q 406 511 461 511 q 295 461 340 511 q 250 335 250 411 q 295 208 250 258 q 406 158 340 158 q 508 193 461 158 q 560 211 531 211 z "},"ċ":{"ha":708,"x_min":64,"x_max":644,"o":"m 406 -8 q 233 36 311 -8 q 110 159 156 81 q 64 335 64 238 q 110 510 64 432 q 233 633 156 589 q 406 678 311 678 q 610 613 518 678 q 635 583 626 601 q 644 543 644 564 q 619 483 644 508 q 560 458 594 458 q 508 476 531 458 q 406 511 461 511 q 295 461 340 511 q 250 335 250 411 q 295 208 250 258 q 406 158 340 158 q 508 193 461 158 q 560 211 531 211 q 619 186 594 211 q 644 126 644 161 q 635 87 644 106 q 610 57 626 68 q 406 -8 518 -8 m 406 739 q 332 769 363 739 q 301 844 301 799 q 332 920 301 890 q 406 950 363 950 q 479 920 449 950 q 510 844 510 890 q 479 769 510 799 q 406 739 449 739 z "},"d":{"ha":822,"x_min":64,"x_max":739,"o":"m 647 981 q 712 953 685 981 q 739 889 739 926 l 739 92 q 712 27 739 54 q 647 0 685 0 q 590 20 615 0 q 558 71 565 40 q 468 13 518 33 q 363 -8 418 -8 q 212 36 281 -8 q 103 159 143 81 q 64 335 64 238 q 103 510 64 432 q 212 633 143 589 q 363 678 281 678 q 467 658 418 678 q 556 600 517 638 l 556 889 q 583 953 556 926 q 647 981 610 981 m 406 158 q 516 208 471 158 q 561 335 561 258 q 516 461 561 411 q 406 511 471 511 q 295 461 340 511 q 250 335 250 411 q 295 208 250 258 q 406 158 340 158 z "},"ď":{"ha":833,"x_min":83,"x_max":1022,"o":"m 667 981 q 731 953 704 981 q 758 889 758 926 l 758 92 q 731 27 758 54 q 667 0 704 0 q 610 20 635 0 q 578 71 585 40 q 488 13 538 33 q 382 -8 438 -8 q 231 36 300 -8 q 123 159 163 81 q 83 335 83 238 q 123 510 83 432 q 231 633 163 589 q 382 678 300 678 q 487 658 438 678 q 575 600 536 638 l 575 889 q 602 953 575 926 q 667 981 629 981 m 935 981 q 997 953 971 981 q 1018 889 1022 925 l 999 708 q 978 667 996 683 q 935 650 960 650 q 892 667 910 650 q 871 707 874 683 l 850 889 q 872 953 846 925 q 935 981 897 981 m 425 158 q 535 208 490 158 q 581 335 581 258 q 535 461 581 411 q 425 511 490 511 q 315 461 360 511 q 269 335 269 411 q 315 208 269 258 q 425 158 360 158 z "},"ḍ":{"ha":821,"x_min":93,"x_max":768,"o":"m 676 981 q 741 953 714 981 q 768 889 768 926 l 768 92 q 741 27 768 54 q 676 0 714 0 q 619 20 644 0 q 588 71 594 40 q 497 13 547 33 q 392 -8 447 -8 q 241 36 310 -8 q 133 159 172 81 q 93 335 93 238 q 133 510 93 432 q 241 633 172 589 q 392 678 310 678 q 497 658 447 678 q 585 600 546 638 l 585 889 q 612 953 585 926 q 676 981 639 981 m 435 158 q 545 208 500 158 q 590 335 590 258 q 545 461 590 411 q 435 511 500 511 q 324 461 369 511 q 279 335 279 411 q 324 208 279 258 q 435 158 369 158 m 431 -69 q 504 -99 474 -69 q 535 -175 535 -129 q 504 -251 535 -221 q 431 -281 474 -281 q 357 -251 388 -281 q 326 -175 326 -221 q 357 -99 326 -129 q 431 -69 388 -69 z "},"e":{"ha":750,"x_min":64,"x_max":692,"o":"m 388 -6 q 218 37 292 -6 q 104 155 144 79 q 64 329 64 231 q 106 509 64 429 q 219 633 147 589 q 378 678 292 678 q 541 632 469 678 q 652 508 613 586 q 692 333 692 429 q 669 280 692 303 q 615 257 647 257 l 254 257 q 303 186 268 211 q 394 161 339 161 q 529 188 464 161 q 560 193 549 193 q 619 169 594 193 q 643 110 643 144 q 628 60 643 82 q 588 31 613 39 q 388 -6 489 -6 m 497 410 q 453 482 488 454 q 378 510 418 510 q 301 482 338 510 q 254 410 264 454 l 497 410 z "},"é":{"ha":750,"x_min":64,"x_max":692,"o":"m 388 -6 q 218 37 292 -6 q 104 155 144 79 q 64 329 64 231 q 106 509 64 429 q 219 633 147 589 q 378 678 292 678 q 541 632 469 678 q 652 508 613 586 q 692 333 692 429 q 669 280 692 303 q 615 257 647 257 l 254 257 q 303 186 268 211 q 394 161 339 161 q 529 188 464 161 q 560 193 549 193 q 619 169 594 193 q 643 110 643 144 q 628 60 643 82 q 588 31 613 39 q 388 -6 489 -6 m 497 410 q 453 482 488 454 q 378 510 418 510 q 301 482 338 510 q 254 410 264 454 l 497 410 m 372 753 q 327 769 349 753 q 306 819 306 786 q 322 867 306 843 l 413 990 q 490 1036 446 1036 q 548 1011 524 1036 q 572 947 572 986 q 542 882 572 910 l 424 774 q 372 753 400 753 z "},"ě":{"ha":750,"x_min":64,"x_max":692,"o":"m 388 -6 q 218 37 292 -6 q 104 155 144 79 q 64 329 64 231 q 106 509 64 429 q 219 633 147 589 q 378 678 292 678 q 541 632 469 678 q 652 508 613 586 q 692 333 692 429 q 669 280 692 303 q 615 257 647 257 l 254 257 q 303 186 268 211 q 394 161 339 161 q 529 188 464 161 q 560 193 549 193 q 619 169 594 193 q 643 110 643 144 q 628 60 643 82 q 588 31 613 39 q 388 -6 489 -6 m 497 410 q 453 482 488 454 q 378 510 418 510 q 301 482 338 510 q 254 410 264 454 l 497 410 m 553 990 q 585 968 571 985 q 599 928 599 951 q 596 910 599 917 q 565 865 590 883 l 440 776 q 378 753 410 753 q 315 776 346 753 l 192 865 q 160 910 165 885 q 157 928 157 924 q 171 968 157 951 q 204 990 185 985 q 225 993 218 993 q 258 986 244 993 l 378 932 l 497 986 q 531 993 511 993 q 553 990 539 993 z "},"ȩ":{"ha":750,"x_min":64,"x_max":692,"o":"m 692 333 q 669 280 692 303 q 615 257 647 257 l 254 257 q 303 186 268 211 q 394 161 339 161 q 529 188 464 161 q 560 193 549 193 q 619 169 594 193 q 643 110 643 144 q 628 60 643 82 q 588 31 613 39 q 503 7 543 15 q 544 -94 544 -37 q 502 -199 544 -154 q 392 -243 460 -243 q 313 -228 353 -243 q 282 -207 293 -221 q 271 -175 271 -193 q 288 -132 271 -149 q 326 -115 304 -115 q 343 -118 332 -115 q 383 -125 363 -125 q 428 -110 413 -125 q 444 -72 444 -94 q 427 -31 444 -50 q 378 -7 410 -12 l 378 -6 q 214 40 285 -3 q 103 158 143 83 q 64 329 64 233 q 106 509 64 429 q 219 633 147 589 q 378 678 292 678 q 541 632 469 678 q 652 508 613 586 q 692 333 692 429 m 497 410 q 453 482 488 454 q 378 510 418 510 q 301 482 338 510 q 254 410 264 454 l 497 410 z "},"ê":{"ha":750,"x_min":64,"x_max":692,"o":"m 388 -6 q 218 37 292 -6 q 104 155 144 79 q 64 329 64 231 q 106 509 64 429 q 219 633 147 589 q 378 678 292 678 q 541 632 469 678 q 652 508 613 586 q 692 333 692 429 q 669 280 692 303 q 615 257 647 257 l 254 257 q 303 186 268 211 q 394 161 339 161 q 529 188 464 161 q 560 193 549 193 q 619 169 594 193 q 643 110 643 144 q 628 60 643 82 q 588 31 613 39 q 388 -6 489 -6 m 497 410 q 453 482 488 454 q 378 510 418 510 q 301 482 338 510 q 254 410 264 454 l 497 410 m 596 836 q 599 818 599 829 q 585 778 599 794 q 553 757 571 763 q 531 753 543 753 q 497 760 518 753 l 378 815 l 258 760 q 225 753 238 753 q 204 757 215 753 q 171 778 185 763 q 157 818 157 794 q 160 836 157 822 q 192 881 165 861 l 315 969 q 378 993 346 993 q 440 969 410 993 l 565 881 q 596 836 590 863 z "},"ë":{"ha":750,"x_min":64,"x_max":692,"o":"m 388 -6 q 218 37 292 -6 q 104 155 144 79 q 64 329 64 231 q 106 509 64 429 q 219 633 147 589 q 378 678 292 678 q 541 632 469 678 q 652 508 613 586 q 692 333 692 429 q 669 280 692 303 q 615 257 647 257 l 254 257 q 303 186 268 211 q 394 161 339 161 q 529 188 464 161 q 560 193 549 193 q 619 169 594 193 q 643 110 643 144 q 628 60 643 82 q 588 31 613 39 q 388 -6 489 -6 m 497 410 q 453 482 488 454 q 378 510 418 510 q 301 482 338 510 q 254 410 264 454 l 497 410 m 242 739 q 176 765 203 739 q 149 833 149 792 q 176 901 149 875 q 242 928 203 928 q 308 901 281 928 q 335 833 335 875 q 308 765 335 792 q 242 739 281 739 m 513 739 q 447 765 474 739 q 419 833 419 792 q 447 901 419 875 q 513 928 474 928 q 578 901 551 928 q 606 833 606 875 q 578 765 606 792 q 513 739 551 739 z "},"ė":{"ha":750,"x_min":64,"x_max":692,"o":"m 388 -6 q 218 37 292 -6 q 104 155 144 79 q 64 329 64 231 q 106 509 64 429 q 219 633 147 589 q 378 678 292 678 q 541 632 469 678 q 652 508 613 586 q 692 333 692 429 q 669 280 692 303 q 615 257 647 257 l 254 257 q 303 186 268 211 q 394 161 339 161 q 529 188 464 161 q 560 193 549 193 q 619 169 594 193 q 643 110 643 144 q 628 60 643 82 q 588 31 613 39 q 388 -6 489 -6 m 497 410 q 453 482 488 454 q 378 510 418 510 q 301 482 338 510 q 254 410 264 454 l 497 410 m 378 739 q 304 769 335 739 q 274 844 274 799 q 304 920 274 890 q 378 950 335 950 q 451 920 421 950 q 482 844 482 890 q 451 769 482 799 q 378 739 421 739 z "},"è":{"ha":750,"x_min":64,"x_max":692,"o":"m 388 -6 q 218 37 292 -6 q 104 155 144 79 q 64 329 64 231 q 106 509 64 429 q 219 633 147 589 q 378 678 292 678 q 541 632 469 678 q 652 508 613 586 q 692 333 692 429 q 669 280 692 303 q 615 257 647 257 l 254 257 q 303 186 268 211 q 394 161 339 161 q 529 188 464 161 q 560 193 549 193 q 619 169 594 193 q 643 110 643 144 q 628 60 643 82 q 588 31 613 39 q 388 -6 489 -6 m 497 410 q 453 482 488 454 q 378 510 418 510 q 301 482 338 510 q 254 410 264 454 l 497 410 m 383 751 q 332 772 356 751 l 214 881 q 183 946 183 908 q 208 1009 183 983 q 265 1035 232 1035 q 343 989 310 1035 l 433 865 q 450 818 450 842 q 429 768 450 785 q 383 751 408 751 z "},"ē":{"ha":750,"x_min":64,"x_max":692,"o":"m 388 -6 q 218 37 292 -6 q 104 155 144 79 q 64 329 64 231 q 106 509 64 429 q 219 633 147 589 q 378 678 292 678 q 541 632 469 678 q 652 508 613 586 q 692 333 692 429 q 669 280 692 303 q 615 257 647 257 l 254 257 q 303 186 268 211 q 394 161 339 161 q 529 188 464 161 q 560 193 549 193 q 619 169 594 193 q 643 110 643 144 q 628 60 643 82 q 588 31 613 39 q 388 -6 489 -6 m 497 410 q 453 482 488 454 q 378 510 418 510 q 301 482 338 510 q 254 410 264 454 l 497 410 m 204 778 q 153 799 174 778 q 132 850 132 819 q 153 901 132 881 q 204 922 174 922 l 546 922 q 597 901 576 922 q 618 850 618 881 q 597 799 618 819 q 546 778 576 778 l 204 778 z "},"ę":{"ha":739,"x_min":56,"x_max":733,"o":"m 733 -121 q 722 -151 733 -137 q 692 -174 711 -165 q 613 -187 650 -187 q 502 -143 544 -187 q 460 -39 460 -99 q 467 3 460 -21 q 379 -6 417 -6 q 210 37 283 -6 q 96 155 136 79 q 56 329 56 231 q 97 509 56 429 q 211 633 139 589 q 369 678 283 678 q 533 632 461 678 q 644 508 604 586 q 683 333 683 429 q 661 280 683 303 q 607 257 639 257 l 246 257 q 295 186 260 211 q 386 161 331 161 q 521 188 456 161 q 551 193 540 193 q 610 169 586 193 q 635 110 635 144 q 624 68 635 88 q 594 38 613 49 q 593 37 593 38 q 593 36 593 36 q 568 13 576 26 q 560 -18 560 -1 q 576 -55 560 -39 q 621 -71 592 -71 q 661 -64 636 -71 q 678 -61 667 -61 q 717 -78 701 -61 q 733 -121 733 -94 m 369 510 q 292 482 329 510 q 246 410 256 454 l 489 410 q 444 482 479 454 q 369 510 410 510 z "},"ẽ":{"ha":750,"x_min":64,"x_max":692,"o":"m 388 -6 q 218 37 292 -6 q 104 155 144 79 q 64 329 64 231 q 106 509 64 429 q 219 633 147 589 q 378 678 292 678 q 541 632 469 678 q 652 508 613 586 q 692 333 692 429 q 669 280 692 303 q 615 257 647 257 l 254 257 q 303 186 268 211 q 394 161 339 161 q 529 188 464 161 q 560 193 549 193 q 619 169 594 193 q 643 110 643 144 q 628 60 643 82 q 588 31 613 39 q 388 -6 489 -6 m 497 410 q 453 482 488 454 q 378 510 418 510 q 301 482 338 510 q 254 410 264 454 l 497 410 m 540 765 q 514 758 526 758 q 479 769 494 758 q 439 783 464 783 q 394 772 414 783 q 306 749 353 749 q 179 796 238 749 q 160 838 160 813 q 167 866 160 853 q 188 886 175 879 q 214 893 201 893 q 249 881 233 893 q 289 868 265 868 q 333 879 314 868 q 422 903 375 903 q 549 856 490 903 q 568 814 568 839 q 560 785 568 799 q 540 765 553 772 z "},"f":{"ha":651,"x_min":47,"x_max":610,"o":"m 551 963 q 594 931 578 951 q 610 886 610 911 q 585 830 610 853 q 531 807 561 807 q 510 810 524 807 q 460 818 481 818 q 390 779 413 818 q 375 701 375 753 l 375 661 l 492 661 q 551 637 526 661 q 575 578 575 613 q 551 519 575 543 q 492 494 526 494 l 375 494 l 375 92 q 348 27 375 54 q 283 0 321 0 q 219 27 246 0 q 192 92 192 54 l 192 494 l 131 494 q 72 519 96 494 q 47 578 47 543 q 72 637 47 613 q 131 661 96 661 l 192 661 l 192 665 q 198 778 192 736 q 228 864 204 821 q 316 953 260 924 q 439 983 372 983 q 551 963 497 983 z "},"g":{"ha":819,"x_min":67,"x_max":742,"o":"m 650 669 q 715 642 688 669 q 742 578 742 615 l 742 83 q 727 -44 742 6 q 678 -139 713 -94 q 557 -234 629 -203 q 399 -265 485 -265 q 131 -196 250 -265 q 101 -167 113 -186 q 90 -126 90 -149 q 114 -69 90 -93 q 171 -46 138 -46 q 211 -57 193 -46 q 379 -101 289 -101 q 533 -37 483 -101 q 551 3 546 -21 q 558 69 557 26 q 365 -8 476 -8 q 215 36 283 -8 q 106 159 146 81 q 67 335 67 238 q 106 510 67 432 q 215 633 146 589 q 365 678 283 678 q 471 657 421 678 q 561 599 521 636 q 593 649 568 629 q 650 669 618 669 m 408 158 q 519 208 474 158 q 564 335 564 258 q 519 461 564 411 q 408 511 474 511 q 298 461 343 511 q 253 335 253 411 q 298 208 253 258 q 408 158 343 158 z "},"ğ":{"ha":819,"x_min":67,"x_max":742,"o":"m 650 669 q 715 642 688 669 q 742 578 742 615 l 742 83 q 727 -44 742 6 q 678 -139 713 -94 q 557 -234 629 -203 q 399 -265 485 -265 q 131 -196 250 -265 q 101 -167 113 -186 q 90 -126 90 -149 q 114 -69 90 -93 q 171 -46 138 -46 q 211 -57 193 -46 q 379 -101 289 -101 q 533 -37 483 -101 q 551 3 546 -21 q 558 69 557 26 q 365 -8 476 -8 q 215 36 283 -8 q 106 159 146 81 q 67 335 67 238 q 106 510 67 432 q 215 633 146 589 q 365 678 283 678 q 471 657 421 678 q 561 599 521 636 q 593 649 568 629 q 650 669 618 669 m 408 158 q 519 208 474 158 q 564 335 564 258 q 519 461 564 411 q 408 511 474 511 q 298 461 343 511 q 253 335 253 411 q 298 208 253 258 q 408 158 343 158 m 421 753 q 311 785 360 753 q 240 875 263 818 q 236 897 236 886 q 254 939 236 921 q 297 957 272 957 q 331 947 315 957 q 353 921 346 938 q 379 888 361 900 q 421 876 397 876 q 462 888 444 876 q 489 921 479 899 q 511 947 496 938 q 544 957 526 957 q 588 939 569 957 q 606 896 606 921 q 601 875 606 886 q 531 785 579 818 q 421 753 482 753 z "},"ǧ":{"ha":819,"x_min":67,"x_max":742,"o":"m 650 669 q 715 642 688 669 q 742 578 742 615 l 742 83 q 727 -44 742 6 q 678 -139 713 -94 q 557 -234 629 -203 q 399 -265 485 -265 q 131 -196 250 -265 q 101 -167 113 -186 q 90 -126 90 -149 q 114 -69 90 -93 q 171 -46 138 -46 q 211 -57 193 -46 q 379 -101 289 -101 q 533 -37 483 -101 q 551 3 546 -21 q 558 69 557 26 q 365 -8 476 -8 q 215 36 283 -8 q 106 159 146 81 q 67 335 67 238 q 106 510 67 432 q 215 633 146 589 q 365 678 283 678 q 471 657 421 678 q 561 599 521 636 q 593 649 568 629 q 650 669 618 669 m 408 158 q 519 208 474 158 q 564 335 564 258 q 519 461 564 411 q 408 511 474 511 q 298 461 343 511 q 253 335 253 411 q 298 208 253 258 q 408 158 343 158 m 596 990 q 628 968 614 985 q 642 928 642 951 q 639 910 642 917 q 608 865 633 883 l 483 776 q 421 753 453 753 q 358 776 389 753 l 235 865 q 203 910 208 885 q 200 928 200 924 q 214 968 200 951 q 247 990 228 985 q 268 993 261 993 q 301 986 288 993 l 421 932 l 540 986 q 574 993 554 993 q 596 990 582 993 z "},"ġ":{"ha":819,"x_min":67,"x_max":742,"o":"m 650 669 q 715 642 688 669 q 742 578 742 615 l 742 83 q 727 -44 742 6 q 678 -139 713 -94 q 557 -234 629 -203 q 399 -265 485 -265 q 131 -196 250 -265 q 101 -167 113 -186 q 90 -126 90 -149 q 114 -69 90 -93 q 171 -46 138 -46 q 211 -57 193 -46 q 379 -101 289 -101 q 533 -37 483 -101 q 551 3 546 -21 q 558 69 557 26 q 365 -8 476 -8 q 215 36 283 -8 q 106 159 146 81 q 67 335 67 238 q 106 510 67 432 q 215 633 146 589 q 365 678 283 678 q 471 657 421 678 q 561 599 521 636 q 593 649 568 629 q 650 669 618 669 m 408 158 q 519 208 474 158 q 564 335 564 258 q 519 461 564 411 q 408 511 474 511 q 298 461 343 511 q 253 335 253 411 q 298 208 253 258 q 408 158 343 158 m 421 739 q 347 769 378 739 q 317 844 317 799 q 347 920 317 890 q 421 950 378 950 q 494 920 464 950 q 525 844 525 890 q 494 769 525 799 q 421 739 464 739 z "},"h":{"ha":794,"x_min":89,"x_max":717,"o":"m 467 678 q 649 606 582 678 q 717 407 717 535 l 717 90 q 690 26 717 53 q 626 0 664 0 q 563 26 589 0 q 536 90 536 53 l 536 376 q 498 474 536 438 q 404 511 460 511 q 308 471 347 511 q 269 371 269 431 l 269 90 q 243 26 269 53 q 179 0 217 0 q 115 26 142 0 q 89 90 89 53 l 89 890 q 115 954 89 928 q 179 981 142 981 q 243 954 217 981 q 269 890 269 928 l 269 593 q 353 656 303 633 q 467 678 404 678 z "},"ħ":{"ha":796,"x_min":-28,"x_max":718,"o":"m 468 678 q 651 606 583 678 q 718 407 718 535 l 718 90 q 692 26 718 53 q 628 0 665 0 q 564 26 590 0 q 538 90 538 53 l 538 376 q 499 474 538 438 q 406 511 461 511 q 310 471 349 511 q 271 371 271 431 l 271 90 q 244 26 271 53 q 181 0 218 0 q 117 26 143 0 q 90 90 90 53 l 90 719 l 44 719 q -7 740 14 719 q -28 792 -28 761 q -7 843 -28 822 q 44 864 14 864 l 90 864 l 90 890 q 117 954 90 928 q 181 981 143 981 q 244 954 218 981 q 271 890 271 928 l 271 864 l 368 864 q 419 843 399 864 q 440 792 440 822 q 419 740 440 761 q 368 719 399 719 l 271 719 l 271 593 q 355 656 304 633 q 468 678 406 678 z "},"ḥ":{"ha":794,"x_min":89,"x_max":717,"o":"m 467 678 q 649 606 582 678 q 717 407 717 535 l 717 90 q 690 26 717 53 q 626 0 664 0 q 563 26 589 0 q 536 90 536 53 l 536 376 q 498 474 536 438 q 404 511 460 511 q 308 471 347 511 q 269 371 269 431 l 269 90 q 243 26 269 53 q 179 0 217 0 q 115 26 142 0 q 89 90 89 53 l 89 890 q 115 954 89 928 q 179 981 142 981 q 243 954 217 981 q 269 890 269 928 l 269 593 q 353 656 303 633 q 467 678 404 678 m 403 -69 q 476 -99 446 -69 q 507 -175 507 -129 q 476 -251 507 -221 q 403 -281 446 -281 q 329 -251 360 -281 q 299 -175 299 -221 q 329 -99 299 -129 q 403 -69 360 -69 z "},"i":{"ha":364,"x_min":78,"x_max":286,"o":"m 182 739 q 108 769 139 739 q 78 844 78 799 q 108 920 78 890 q 182 950 139 950 q 256 920 225 950 q 286 844 286 890 q 256 769 286 799 q 182 739 225 739 m 182 0 q 117 27 144 0 q 90 92 90 54 l 90 578 q 117 642 90 615 q 182 669 144 669 q 247 642 219 669 q 274 578 274 615 l 274 92 q 247 27 274 54 q 182 0 219 0 z "},"ı":{"ha":350,"x_min":83,"x_max":267,"o":"m 175 0 q 110 27 138 0 q 83 92 83 54 l 83 578 q 110 642 83 615 q 175 669 138 669 q 240 642 213 669 q 267 578 267 615 l 267 92 q 240 27 267 54 q 175 0 213 0 z "},"í":{"ha":350,"x_min":83,"x_max":369,"o":"m 175 0 q 110 27 138 0 q 83 92 83 54 l 83 578 q 110 642 83 615 q 175 669 138 669 q 240 642 213 669 q 267 578 267 615 l 267 92 q 240 27 267 54 q 175 0 213 0 m 169 753 q 124 769 146 753 q 103 819 103 786 q 119 867 103 843 l 210 990 q 288 1036 243 1036 q 345 1011 321 1036 q 369 947 369 986 q 339 882 369 910 l 221 774 q 169 753 197 753 z "},"ǐ":{"ha":350,"x_min":-46,"x_max":396,"o":"m 175 0 q 110 27 138 0 q 83 92 83 54 l 83 578 q 110 642 83 615 q 175 669 138 669 q 240 642 213 669 q 267 578 267 615 l 267 92 q 240 27 267 54 q 175 0 213 0 m 350 990 q 382 968 368 985 q 396 928 396 951 q 393 910 396 917 q 363 865 388 883 l 238 776 q 175 753 207 753 q 113 776 143 753 l -11 865 q -43 910 -37 885 q -46 928 -46 924 q -32 968 -46 951 q 1 990 -18 985 q 22 993 15 993 q 56 986 42 993 l 175 932 l 294 986 q 328 993 308 993 q 350 990 336 993 z "},"î":{"ha":350,"x_min":-46,"x_max":396,"o":"m 175 0 q 110 27 138 0 q 83 92 83 54 l 83 578 q 110 642 83 615 q 175 669 138 669 q 240 642 213 669 q 267 578 267 615 l 267 92 q 240 27 267 54 q 175 0 213 0 m 393 836 q 396 818 396 829 q 382 778 396 794 q 350 757 368 763 q 328 753 340 753 q 294 760 315 753 l 175 815 l 56 760 q 22 753 35 753 q 1 757 13 753 q -32 778 -18 763 q -46 818 -46 794 q -43 836 -46 822 q -11 881 -37 861 l 113 969 q 175 993 143 993 q 238 969 207 993 l 363 881 q 393 836 388 863 z "},"ï":{"ha":350,"x_min":-54,"x_max":404,"o":"m 175 0 q 110 27 138 0 q 83 92 83 54 l 83 578 q 110 642 83 615 q 175 669 138 669 q 240 642 213 669 q 267 578 267 615 l 267 92 q 240 27 267 54 q 175 0 213 0 m 39 739 q -27 765 0 739 q -54 833 -54 792 q -27 901 -54 875 q 39 928 0 928 q 105 901 78 928 q 132 833 132 875 q 105 765 132 792 q 39 739 78 739 m 310 739 q 244 765 271 739 q 217 833 217 792 q 244 901 217 875 q 310 928 271 928 q 376 901 349 928 q 403 833 403 875 q 376 765 403 792 q 310 739 349 739 z "},"ị":{"ha":350,"x_min":71,"x_max":279,"o":"m 175 739 q 101 769 132 739 q 71 844 71 799 q 101 920 71 890 q 175 950 132 950 q 249 920 218 950 q 279 844 279 890 q 249 769 279 799 q 175 739 218 739 m 175 0 q 110 27 138 0 q 83 92 83 54 l 83 578 q 110 642 83 615 q 175 669 138 669 q 240 642 213 669 q 267 578 267 615 l 267 92 q 240 27 267 54 q 175 0 213 0 m 175 -281 q 101 -251 132 -281 q 71 -175 71 -221 q 101 -99 71 -129 q 175 -69 132 -69 q 249 -99 218 -69 q 279 -175 279 -129 q 249 -251 279 -221 q 175 -281 218 -281 z "},"ì":{"ha":350,"x_min":-19,"x_max":267,"o":"m 175 0 q 110 27 138 0 q 83 92 83 54 l 83 578 q 110 642 83 615 q 175 669 138 669 q 240 642 213 669 q 267 578 267 615 l 267 92 q 240 27 267 54 q 175 0 213 0 m 181 751 q 129 772 153 751 l 11 881 q -19 946 -19 908 q 5 1009 -19 983 q 63 1035 29 1035 q 140 989 107 1035 l 231 865 q 247 818 247 842 q 226 768 247 785 q 181 751 206 751 z "},"ī":{"ha":350,"x_min":-71,"x_max":415,"o":"m 175 0 q 110 27 138 0 q 83 92 83 54 l 83 578 q 110 642 83 615 q 175 669 138 669 q 240 642 213 669 q 267 578 267 615 l 267 92 q 240 27 267 54 q 175 0 213 0 m 1 778 q -50 799 -29 778 q -71 850 -71 819 q -50 901 -71 881 q 1 922 -29 922 l 343 922 q 394 901 374 922 q 415 850 415 881 q 394 799 415 819 q 343 778 374 778 l 1 778 z "},"į":{"ha":364,"x_min":46,"x_max":318,"o":"m 182 739 q 108 769 139 739 q 78 844 78 799 q 108 920 78 890 q 182 950 139 950 q 256 920 225 950 q 286 844 286 890 q 256 769 286 799 q 182 739 225 739 m 276 -217 q 199 -232 233 -232 q 88 -187 129 -232 q 46 -82 46 -143 q 62 -17 46 -49 q 108 36 78 15 q 90 92 90 64 l 90 578 q 117 642 90 615 q 182 669 144 669 q 247 642 219 669 q 274 578 274 615 l 274 92 q 253 35 274 60 q 200 1 232 10 q 160 -22 174 -4 q 146 -61 146 -40 q 162 -99 146 -83 q 207 -114 178 -114 q 246 -107 222 -114 q 264 -104 257 -104 q 302 -121 286 -104 q 318 -164 318 -137 q 308 -195 318 -181 q 276 -217 297 -210 z "},"ĩ":{"ha":350,"x_min":-43,"x_max":365,"o":"m 175 0 q 110 27 138 0 q 83 92 83 54 l 83 578 q 110 642 83 615 q 175 669 138 669 q 240 642 213 669 q 267 578 267 615 l 267 92 q 240 27 267 54 q 175 0 213 0 m 338 765 q 311 758 324 758 q 276 769 292 758 q 236 783 261 783 q 192 772 211 783 q 103 749 150 749 q -24 796 35 749 q -43 838 -43 813 q -35 866 -43 853 q -15 886 -28 879 q 11 893 -1 893 q 46 881 31 893 q 86 868 63 868 q 131 879 111 868 q 219 903 172 903 q 346 856 288 903 q 365 814 365 839 q 358 785 365 799 q 338 765 350 772 z "},"j":{"ha":475,"x_min":0,"x_max":392,"o":"m 288 753 q 213 783 243 753 q 183 858 183 813 q 213 934 183 904 q 288 964 243 964 q 361 934 331 964 q 392 858 392 904 q 361 783 392 813 q 288 753 331 753 m 78 -264 q 22 -237 43 -260 q 0 -181 0 -214 q 27 -117 0 -142 q 93 -97 54 -92 l 108 -99 q 169 -79 142 -99 q 197 7 197 -58 l 197 578 q 224 642 197 615 q 289 669 251 669 q 354 642 328 669 q 381 578 381 615 l 381 58 q 376 -60 381 -15 q 347 -153 372 -106 q 218 -253 308 -226 q 119 -267 172 -267 q 78 -264 106 -267 z "},"k":{"ha":725,"x_min":83,"x_max":683,"o":"m 667 140 q 683 89 683 118 q 674 49 683 68 q 646 15 664 29 q 594 0 624 0 q 554 10 574 0 q 521 38 535 19 l 349 281 l 267 213 l 267 92 q 240 27 267 54 q 175 0 213 0 q 110 27 138 0 q 83 92 83 54 l 83 889 q 110 953 83 926 q 175 981 138 981 q 240 953 213 981 q 267 889 267 926 l 267 443 l 511 651 q 569 674 535 674 q 607 665 589 674 q 638 640 625 657 q 660 583 660 617 q 626 514 660 542 l 486 396 l 667 140 z "},"l":{"ha":361,"x_min":89,"x_max":272,"o":"m 181 0 q 116 27 143 0 q 89 92 89 54 l 89 889 q 116 953 89 926 q 181 981 143 981 q 245 953 218 981 q 272 889 272 926 l 272 92 q 245 27 272 54 q 181 0 218 0 z "},"ĺ":{"ha":361,"x_min":89,"x_max":375,"o":"m 181 0 q 116 27 143 0 q 89 92 89 54 l 89 889 q 116 953 89 926 q 181 981 143 981 q 245 953 218 981 q 272 889 272 926 l 272 92 q 245 27 272 54 q 181 0 218 0 m 175 1064 q 130 1081 151 1064 q 108 1131 108 1097 q 125 1178 108 1154 l 215 1301 q 293 1347 249 1347 q 351 1322 326 1347 q 375 1258 375 1297 q 344 1193 375 1221 l 226 1085 q 175 1064 203 1064 z "},"ľ":{"ha":625,"x_min":89,"x_max":568,"o":"m 181 0 q 116 27 143 0 q 89 92 89 54 l 89 889 q 116 953 89 926 q 181 981 143 981 q 245 953 218 981 q 272 889 272 926 l 272 92 q 245 27 272 54 q 181 0 218 0 m 479 650 q 436 667 454 650 q 415 708 418 683 l 396 889 q 417 953 392 925 q 479 981 443 981 q 542 953 517 981 q 564 889 568 925 l 543 707 q 522 667 540 683 q 479 650 504 650 z "},"ḷ":{"ha":350,"x_min":76,"x_max":285,"o":"m 181 0 q 116 27 143 0 q 89 92 89 54 l 89 889 q 116 953 89 926 q 181 981 143 981 q 245 953 218 981 q 272 889 272 926 l 272 92 q 245 27 272 54 q 181 0 218 0 m 181 -281 q 107 -251 138 -281 q 76 -175 76 -221 q 107 -99 76 -129 q 181 -69 138 -69 q 254 -99 224 -69 q 285 -175 285 -129 q 254 -251 285 -221 q 181 -281 224 -281 z "},"ł":{"ha":606,"x_min":69,"x_max":536,"o":"m 536 565 q 525 527 536 544 q 494 500 514 510 l 394 453 l 394 92 q 367 27 394 54 q 303 0 340 0 q 238 27 265 0 q 211 92 211 54 l 211 368 l 172 350 q 142 343 160 343 q 103 354 121 343 q 76 385 86 365 q 69 415 69 401 q 81 453 69 436 q 111 481 92 471 l 211 528 l 211 889 q 238 953 211 926 q 303 981 265 981 q 367 953 340 981 q 394 889 394 926 l 394 613 l 433 631 q 464 638 446 638 q 515 617 493 638 q 536 565 536 597 z "},"m":{"ha":1236,"x_min":83,"x_max":1158,"o":"m 903 678 q 1089 608 1021 678 q 1158 407 1157 539 l 1158 90 q 1132 26 1158 53 q 1068 0 1106 0 q 1004 26 1031 0 q 978 90 978 53 l 978 376 q 940 474 978 438 q 846 511 901 511 q 750 471 789 511 q 711 371 711 431 l 711 90 q 685 26 711 53 q 621 0 658 0 q 557 26 583 0 q 531 90 531 53 l 531 376 q 492 474 531 438 q 399 511 454 511 q 303 471 342 511 q 264 371 264 431 l 264 90 q 238 26 264 53 q 174 0 211 0 q 110 26 136 0 q 83 90 83 53 l 83 581 q 110 644 83 617 q 174 671 136 671 q 233 649 207 671 q 263 593 258 626 q 461 678 336 678 q 586 650 532 678 q 671 569 640 622 q 767 649 708 621 q 903 678 826 678 z "},"ḿ":{"ha":1236,"x_min":83,"x_max":1158,"o":"m 903 678 q 1089 608 1021 678 q 1158 407 1157 539 l 1158 90 q 1132 26 1158 53 q 1068 0 1106 0 q 1004 26 1031 0 q 978 90 978 53 l 978 376 q 940 474 978 438 q 846 511 901 511 q 750 471 789 511 q 711 371 711 431 l 711 90 q 685 26 711 53 q 621 0 658 0 q 557 26 583 0 q 531 90 531 53 l 531 376 q 492 474 531 438 q 399 511 454 511 q 303 471 342 511 q 264 371 264 431 l 264 90 q 238 26 264 53 q 174 0 211 0 q 110 26 136 0 q 83 90 83 53 l 83 581 q 110 644 83 617 q 174 671 136 671 q 233 649 207 671 q 263 593 258 626 q 461 678 336 678 q 586 650 532 678 q 671 569 640 622 q 767 649 708 621 q 903 678 826 678 m 618 753 q 573 769 594 753 q 551 819 551 786 q 568 867 551 843 l 658 990 q 736 1036 692 1036 q 794 1011 769 1036 q 818 947 818 986 q 788 882 818 910 l 669 774 q 618 753 646 753 z "},"n":{"ha":789,"x_min":83,"x_max":711,"o":"m 461 678 q 644 606 576 678 q 711 407 711 535 l 711 90 q 685 26 711 53 q 621 0 658 0 q 557 26 583 0 q 531 90 531 53 l 531 376 q 492 474 531 438 q 399 511 454 511 q 303 471 342 511 q 264 371 264 431 l 264 90 q 238 26 264 53 q 174 0 211 0 q 110 26 136 0 q 83 90 83 53 l 83 579 q 110 643 83 617 q 174 669 136 669 q 233 647 208 669 q 263 592 258 625 q 461 678 335 678 z "},"ń":{"ha":789,"x_min":83,"x_max":711,"o":"m 461 678 q 644 606 576 678 q 711 407 711 535 l 711 90 q 685 26 711 53 q 621 0 658 0 q 557 26 583 0 q 531 90 531 53 l 531 376 q 492 474 531 438 q 399 511 454 511 q 303 471 342 511 q 264 371 264 431 l 264 90 q 238 26 264 53 q 174 0 211 0 q 110 26 136 0 q 83 90 83 53 l 83 579 q 110 643 83 617 q 174 669 136 669 q 233 647 208 669 q 263 592 258 625 q 461 678 335 678 m 411 753 q 366 769 388 753 q 344 819 344 786 q 361 867 344 843 l 451 990 q 529 1036 485 1036 q 587 1011 563 1036 q 611 947 611 986 q 581 882 611 910 l 463 774 q 411 753 439 753 z "},"ň":{"ha":789,"x_min":83,"x_max":711,"o":"m 461 678 q 644 606 576 678 q 711 407 711 535 l 711 90 q 685 26 711 53 q 621 0 658 0 q 557 26 583 0 q 531 90 531 53 l 531 376 q 492 474 531 438 q 399 511 454 511 q 303 471 342 511 q 264 371 264 431 l 264 90 q 238 26 264 53 q 174 0 211 0 q 110 26 136 0 q 83 90 83 53 l 83 579 q 110 643 83 617 q 174 669 136 669 q 233 647 208 669 q 263 592 258 625 q 461 678 335 678 m 592 990 q 624 968 610 985 q 638 928 638 951 q 635 910 638 917 q 604 865 629 883 l 479 776 q 417 753 449 753 q 354 776 385 753 l 231 865 q 199 910 204 885 q 196 928 196 924 q 210 968 196 951 q 243 990 224 985 q 264 993 257 993 q 297 986 283 993 l 417 932 l 536 986 q 569 993 550 993 q 592 990 578 993 z "},"ṅ":{"ha":789,"x_min":83,"x_max":711,"o":"m 461 678 q 644 606 576 678 q 711 407 711 535 l 711 90 q 685 26 711 53 q 621 0 658 0 q 557 26 583 0 q 531 90 531 53 l 531 376 q 492 474 531 438 q 399 511 454 511 q 303 471 342 511 q 264 371 264 431 l 264 90 q 238 26 264 53 q 174 0 211 0 q 110 26 136 0 q 83 90 83 53 l 83 579 q 110 643 83 617 q 174 669 136 669 q 233 647 208 669 q 263 592 258 625 q 461 678 335 678 m 417 739 q 343 769 374 739 q 313 844 313 799 q 343 920 313 890 q 417 950 374 950 q 490 920 460 950 q 521 844 521 890 q 490 769 521 799 q 417 739 460 739 z "},"ṇ":{"ha":789,"x_min":83,"x_max":711,"o":"m 461 678 q 644 606 576 678 q 711 407 711 535 l 711 90 q 685 26 711 53 q 621 0 658 0 q 557 26 583 0 q 531 90 531 53 l 531 376 q 492 474 531 438 q 399 511 454 511 q 303 471 342 511 q 264 371 264 431 l 264 90 q 238 26 264 53 q 174 0 211 0 q 110 26 136 0 q 83 90 83 53 l 83 579 q 110 643 83 617 q 174 669 136 669 q 233 647 208 669 q 263 592 258 625 q 461 678 335 678 m 397 -69 q 471 -99 440 -69 q 501 -175 501 -129 q 471 -251 501 -221 q 397 -281 440 -281 q 324 -251 354 -281 q 293 -175 293 -221 q 324 -99 293 -129 q 397 -69 354 -69 z "},"ñ":{"ha":789,"x_min":83,"x_max":711,"o":"m 461 678 q 644 606 576 678 q 711 407 711 535 l 711 90 q 685 26 711 53 q 621 0 658 0 q 557 26 583 0 q 531 90 531 53 l 531 376 q 492 474 531 438 q 399 511 454 511 q 303 471 342 511 q 264 371 264 431 l 264 90 q 238 26 264 53 q 174 0 211 0 q 110 26 136 0 q 83 90 83 53 l 83 579 q 110 643 83 617 q 174 669 136 669 q 233 647 208 669 q 263 592 258 625 q 461 678 335 678 m 579 765 q 553 758 565 758 q 518 769 533 758 q 478 783 503 783 q 433 772 453 783 q 344 749 392 749 q 218 796 276 749 q 199 838 199 813 q 206 866 199 853 q 226 886 214 879 q 253 893 240 893 q 288 881 272 893 q 328 868 304 868 q 372 879 353 868 q 461 903 414 903 q 588 856 529 903 q 607 814 607 839 q 599 785 607 799 q 579 765 592 772 z "},"o":{"ha":811,"x_min":64,"x_max":747,"o":"m 406 -8 q 233 36 311 -8 q 110 159 156 81 q 64 335 64 238 q 110 510 64 432 q 233 633 156 589 q 406 678 311 678 q 578 633 500 678 q 701 510 656 589 q 747 335 747 432 q 701 159 747 238 q 578 36 656 81 q 406 -8 500 -8 m 406 158 q 516 208 471 158 q 561 335 561 258 q 516 461 561 411 q 406 511 471 511 q 295 461 340 511 q 250 335 250 411 q 295 208 250 258 q 406 158 340 158 z "},"ó":{"ha":811,"x_min":64,"x_max":747,"o":"m 406 -8 q 233 36 311 -8 q 110 159 156 81 q 64 335 64 238 q 110 510 64 432 q 233 633 156 589 q 406 678 311 678 q 578 633 500 678 q 701 510 656 589 q 747 335 747 432 q 701 159 747 238 q 578 36 656 81 q 406 -8 500 -8 m 406 158 q 516 208 471 158 q 561 335 561 258 q 516 461 561 411 q 406 511 471 511 q 295 461 340 511 q 250 335 250 411 q 295 208 250 258 q 406 158 340 158 m 400 753 q 355 769 376 753 q 333 819 333 786 q 350 867 333 843 l 440 990 q 518 1036 474 1036 q 576 1011 551 1036 q 600 947 600 986 q 569 882 600 910 l 451 774 q 400 753 428 753 z "},"ǒ":{"ha":811,"x_min":64,"x_max":747,"o":"m 406 -8 q 233 36 311 -8 q 110 159 156 81 q 64 335 64 238 q 110 510 64 432 q 233 633 156 589 q 406 678 311 678 q 578 633 500 678 q 701 510 656 589 q 747 335 747 432 q 701 159 747 238 q 578 36 656 81 q 406 -8 500 -8 m 406 158 q 516 208 471 158 q 561 335 561 258 q 516 461 561 411 q 406 511 471 511 q 295 461 340 511 q 250 335 250 411 q 295 208 250 258 q 406 158 340 158 m 581 990 q 613 968 599 985 q 626 928 626 951 q 624 910 626 917 q 593 865 618 883 l 468 776 q 406 753 438 753 q 343 776 374 753 l 219 865 q 188 910 193 885 q 185 928 185 924 q 199 968 185 951 q 232 990 213 985 q 253 993 246 993 q 286 986 272 993 l 406 932 l 525 986 q 558 993 539 993 q 581 990 567 993 z "},"ô":{"ha":811,"x_min":64,"x_max":747,"o":"m 406 -8 q 233 36 311 -8 q 110 159 156 81 q 64 335 64 238 q 110 510 64 432 q 233 633 156 589 q 406 678 311 678 q 578 633 500 678 q 701 510 656 589 q 747 335 747 432 q 701 159 747 238 q 578 36 656 81 q 406 -8 500 -8 m 406 158 q 516 208 471 158 q 561 335 561 258 q 516 461 561 411 q 406 511 471 511 q 295 461 340 511 q 250 335 250 411 q 295 208 250 258 q 406 158 340 158 m 624 836 q 626 818 626 829 q 613 778 626 794 q 581 757 599 763 q 558 753 571 753 q 525 760 546 753 l 406 815 l 286 760 q 253 753 265 753 q 232 757 243 753 q 199 778 213 763 q 185 818 185 794 q 188 836 185 822 q 219 881 193 861 l 343 969 q 406 993 374 993 q 468 969 438 993 l 593 881 q 624 836 618 863 z "},"ö":{"ha":811,"x_min":64,"x_max":747,"o":"m 406 -8 q 233 36 311 -8 q 110 159 156 81 q 64 335 64 238 q 110 510 64 432 q 233 633 156 589 q 406 678 311 678 q 578 633 500 678 q 701 510 656 589 q 747 335 747 432 q 701 159 747 238 q 578 36 656 81 q 406 -8 500 -8 m 406 158 q 516 208 471 158 q 561 335 561 258 q 516 461 561 411 q 406 511 471 511 q 295 461 340 511 q 250 335 250 411 q 295 208 250 258 q 406 158 340 158 m 269 739 q 203 765 231 739 q 176 833 176 792 q 203 901 176 875 q 269 928 231 928 q 335 901 308 928 q 363 833 363 875 q 335 765 363 792 q 269 739 308 739 m 540 739 q 474 765 501 739 q 447 833 447 792 q 474 901 447 875 q 540 928 501 928 q 606 901 579 928 q 633 833 633 875 q 606 765 633 792 q 540 739 579 739 z "},"ọ":{"ha":811,"x_min":64,"x_max":747,"o":"m 406 -8 q 233 36 311 -8 q 110 159 156 81 q 64 335 64 238 q 110 510 64 432 q 233 633 156 589 q 406 678 311 678 q 578 633 500 678 q 701 510 656 589 q 747 335 747 432 q 701 159 747 238 q 578 36 656 81 q 406 -8 500 -8 m 406 158 q 516 208 471 158 q 561 335 561 258 q 516 461 561 411 q 406 511 471 511 q 295 461 340 511 q 250 335 250 411 q 295 208 250 258 q 406 158 340 158 m 406 -281 q 332 -251 363 -281 q 301 -175 301 -221 q 332 -99 301 -129 q 406 -69 363 -69 q 479 -99 449 -69 q 510 -175 510 -129 q 479 -251 510 -221 q 406 -281 449 -281 z "},"ò":{"ha":811,"x_min":64,"x_max":747,"o":"m 406 -8 q 233 36 311 -8 q 110 159 156 81 q 64 335 64 238 q 110 510 64 432 q 233 633 156 589 q 406 678 311 678 q 578 633 500 678 q 701 510 656 589 q 747 335 747 432 q 701 159 747 238 q 578 36 656 81 q 406 -8 500 -8 m 406 158 q 516 208 471 158 q 561 335 561 258 q 516 461 561 411 q 406 511 471 511 q 295 461 340 511 q 250 335 250 411 q 295 208 250 258 q 406 158 340 158 m 411 751 q 360 772 383 751 l 242 881 q 211 946 211 908 q 235 1009 211 983 q 293 1035 260 1035 q 371 989 338 1035 l 461 865 q 478 818 478 842 q 457 768 478 785 q 411 751 436 751 z "},"ō":{"ha":811,"x_min":64,"x_max":747,"o":"m 406 -8 q 233 36 311 -8 q 110 159 156 81 q 64 335 64 238 q 110 510 64 432 q 233 633 156 589 q 406 678 311 678 q 578 633 500 678 q 701 510 656 589 q 747 335 747 432 q 701 159 747 238 q 578 36 656 81 q 406 -8 500 -8 m 406 158 q 516 208 471 158 q 561 335 561 258 q 516 461 561 411 q 406 511 471 511 q 295 461 340 511 q 250 335 250 411 q 295 208 250 258 q 406 158 340 158 m 232 778 q 181 799 201 778 q 160 850 160 819 q 181 901 160 881 q 232 922 201 922 l 574 922 q 625 901 604 922 q 646 850 646 881 q 625 799 646 819 q 574 778 604 778 l 232 778 z "},"ø":{"ha":808,"x_min":63,"x_max":746,"o":"m 625 600 q 714 485 682 553 q 746 335 746 417 q 700 159 746 238 q 576 36 654 81 q 404 -8 499 -8 q 343 -3 369 -8 l 308 -79 q 278 -115 299 -101 q 232 -128 257 -128 q 171 -103 194 -128 q 147 -43 147 -78 q 154 -7 147 -21 l 189 65 q 96 182 129 113 q 63 335 63 251 q 108 510 63 432 q 232 633 154 589 q 404 678 310 678 q 471 672 429 678 l 500 735 q 531 770 510 757 q 576 783 551 783 q 638 758 614 783 q 661 699 661 733 q 654 663 661 676 l 625 600 m 249 335 q 271 242 249 283 l 396 511 q 291 458 333 508 q 249 335 249 408 m 419 160 q 519 214 479 165 q 560 335 560 263 q 542 421 560 381 l 419 160 z "},"õ":{"ha":811,"x_min":64,"x_max":747,"o":"m 406 -8 q 233 36 311 -8 q 110 159 156 81 q 64 335 64 238 q 110 510 64 432 q 233 633 156 589 q 406 678 311 678 q 578 633 500 678 q 701 510 656 589 q 747 335 747 432 q 701 159 747 238 q 578 36 656 81 q 406 -8 500 -8 m 406 158 q 516 208 471 158 q 561 335 561 258 q 516 461 561 411 q 406 511 471 511 q 295 461 340 511 q 250 335 250 411 q 295 208 250 258 q 406 158 340 158 m 568 765 q 542 758 554 758 q 507 769 522 758 q 467 783 492 783 q 422 772 442 783 q 333 749 381 749 q 207 796 265 749 q 188 838 188 813 q 195 866 188 853 q 215 886 203 879 q 242 893 229 893 q 276 881 261 893 q 317 868 293 868 q 361 879 342 868 q 450 903 403 903 q 576 856 518 903 q 596 814 596 839 q 588 785 596 799 q 568 765 581 772 z "},"œ":{"ha":1253,"x_min":64,"x_max":1189,"o":"m 1189 333 q 1167 279 1189 301 q 1113 257 1144 257 l 751 257 q 892 161 782 161 q 1026 188 963 161 q 1057 193 1046 193 q 1117 169 1092 193 q 1142 110 1142 144 q 1126 60 1142 82 q 1086 31 1111 39 q 885 -6 986 -6 q 750 22 810 -6 q 649 97 690 49 q 542 19 604 47 q 406 -8 479 -8 q 233 36 311 -8 q 110 159 156 81 q 64 335 64 238 q 110 510 64 432 q 233 633 156 589 q 406 678 311 678 q 543 649 479 678 q 651 569 607 621 q 750 649 693 621 q 875 678 807 678 q 1038 632 967 678 q 1149 508 1110 586 q 1189 333 1189 429 m 406 158 q 516 208 471 158 q 561 335 561 258 q 516 461 561 411 q 406 511 471 511 q 295 461 340 511 q 250 335 250 411 q 295 208 250 258 q 406 158 340 158 m 996 410 q 951 482 986 454 q 875 510 915 510 q 798 482 835 510 q 751 410 761 454 l 996 410 z "},"p":{"ha":828,"x_min":89,"x_max":764,"o":"m 465 678 q 616 633 547 678 q 724 510 685 589 q 764 335 764 432 q 724 159 764 238 q 616 36 685 81 q 465 -8 547 -8 q 360 12 410 -8 q 272 69 311 32 l 272 -167 q 245 -231 272 -204 q 181 -258 218 -258 q 116 -231 143 -258 q 89 -167 89 -204 l 89 578 q 116 642 89 615 q 181 669 143 669 q 238 649 213 669 q 269 599 263 629 q 360 657 310 636 q 465 678 410 678 m 422 158 q 533 208 488 158 q 578 335 578 258 q 533 461 578 411 q 422 511 488 511 q 312 461 357 511 q 267 335 267 411 q 312 208 267 258 q 422 158 357 158 z "},"þ":{"ha":828,"x_min":89,"x_max":764,"o":"m 465 678 q 616 633 547 678 q 724 510 685 589 q 764 335 764 432 q 724 159 764 238 q 616 36 685 81 q 465 -8 547 -8 q 360 12 410 -8 q 272 69 311 32 l 272 -167 q 245 -231 272 -204 q 181 -258 218 -258 q 116 -231 143 -258 q 89 -167 89 -204 l 89 889 q 116 953 89 926 q 181 981 143 981 q 245 953 218 981 q 272 889 272 926 l 272 600 q 360 658 311 638 q 465 678 410 678 m 422 158 q 533 208 488 158 q 578 335 578 258 q 533 461 578 411 q 422 511 488 511 q 312 461 357 511 q 267 335 267 411 q 312 208 267 258 q 422 158 357 158 z "},"q":{"ha":822,"x_min":64,"x_max":739,"o":"m 647 669 q 712 642 685 669 q 739 578 739 615 l 739 -167 q 712 -231 739 -204 q 647 -258 685 -258 q 583 -231 610 -258 q 556 -167 556 -204 l 556 69 q 467 12 517 32 q 363 -8 418 -8 q 212 36 281 -8 q 103 159 143 81 q 64 335 64 238 q 103 510 64 432 q 212 633 143 589 q 363 678 281 678 q 468 657 418 678 q 558 599 518 636 q 590 649 565 629 q 647 669 615 669 m 406 158 q 516 208 471 158 q 561 335 561 258 q 516 461 561 411 q 406 511 471 511 q 295 461 340 511 q 250 335 250 411 q 295 208 250 258 q 406 158 340 158 z "},"r":{"ha":593,"x_min":83,"x_max":551,"o":"m 461 678 q 525 651 499 678 q 551 588 551 625 q 525 524 551 550 q 461 497 499 497 q 311 445 358 497 q 264 264 264 393 l 264 90 q 238 27 264 54 q 174 0 211 0 q 110 26 136 0 q 83 90 83 53 l 83 579 q 110 643 83 617 q 174 669 136 669 q 233 647 208 669 q 263 592 258 625 q 461 678 335 678 z "},"ŕ":{"ha":593,"x_min":83,"x_max":551,"o":"m 461 678 q 525 651 499 678 q 551 588 551 625 q 525 524 551 550 q 461 497 499 497 q 311 445 358 497 q 264 264 264 393 l 264 90 q 238 27 264 54 q 174 0 211 0 q 110 26 136 0 q 83 90 83 53 l 83 579 q 110 643 83 617 q 174 669 136 669 q 233 647 208 669 q 263 592 258 625 q 461 678 335 678 m 313 753 q 267 769 289 753 q 246 819 246 786 q 263 867 246 843 l 353 990 q 431 1036 386 1036 q 488 1011 464 1036 q 513 947 513 986 q 482 882 513 910 l 364 774 q 313 753 340 753 z "},"ř":{"ha":593,"x_min":83,"x_max":551,"o":"m 461 678 q 525 651 499 678 q 551 588 551 625 q 525 524 551 550 q 461 497 499 497 q 311 445 358 497 q 264 264 264 393 l 264 90 q 238 27 264 54 q 174 0 211 0 q 110 26 136 0 q 83 90 83 53 l 83 579 q 110 643 83 617 q 174 669 136 669 q 233 647 208 669 q 263 592 258 625 q 461 678 335 678 m 493 990 q 525 968 511 985 q 539 928 539 951 q 536 910 539 917 q 506 865 531 883 l 381 776 q 318 753 350 753 q 256 776 286 753 l 132 865 q 100 910 106 885 q 97 928 97 924 q 111 968 97 951 q 144 990 125 985 q 165 993 158 993 q 199 986 185 993 l 318 932 l 438 986 q 471 993 451 993 q 493 990 479 993 z "},"s":{"ha":672,"x_min":69,"x_max":603,"o":"m 328 -7 q 107 49 201 -7 q 80 77 90 60 q 69 115 69 94 q 92 168 69 146 q 146 190 114 190 q 176 185 165 190 q 338 144 264 144 q 397 157 375 144 q 421 192 419 169 q 393 232 421 218 q 301 265 365 246 q 187 304 232 285 q 109 363 142 324 q 76 465 76 401 q 149 619 76 561 q 339 678 221 678 q 443 665 394 678 q 542 628 492 653 q 573 599 561 618 q 585 558 585 581 q 563 505 585 528 q 508 482 540 482 q 476 489 493 482 q 402 515 439 506 q 339 525 365 525 q 281 510 303 525 q 258 471 258 494 q 286 432 258 446 q 375 403 314 418 q 491 364 446 383 q 569 306 536 344 q 603 201 603 267 q 531 49 603 106 q 328 -7 460 -7 z "},"ś":{"ha":672,"x_min":69,"x_max":603,"o":"m 328 -7 q 107 49 201 -7 q 80 77 90 60 q 69 115 69 94 q 92 168 69 146 q 146 190 114 190 q 176 185 165 190 q 338 144 264 144 q 397 157 375 144 q 421 192 419 169 q 393 232 421 218 q 301 265 365 246 q 187 304 232 285 q 109 363 142 324 q 76 465 76 401 q 149 619 76 561 q 339 678 221 678 q 443 665 394 678 q 542 628 492 653 q 573 599 561 618 q 585 558 585 581 q 563 505 585 528 q 508 482 540 482 q 476 489 493 482 q 402 515 439 506 q 339 525 365 525 q 281 510 303 525 q 258 471 258 494 q 286 432 258 446 q 375 403 314 418 q 491 364 446 383 q 569 306 536 344 q 603 201 603 267 q 531 49 603 106 q 328 -7 460 -7 m 331 753 q 285 769 307 753 q 264 819 264 786 q 281 867 264 843 l 371 990 q 449 1036 404 1036 q 506 1011 482 1036 q 531 947 531 986 q 500 882 531 910 l 382 774 q 331 753 358 753 z "},"š":{"ha":672,"x_min":69,"x_max":603,"o":"m 328 -7 q 107 49 201 -7 q 80 77 90 60 q 69 115 69 94 q 92 168 69 146 q 146 190 114 190 q 176 185 165 190 q 338 144 264 144 q 397 157 375 144 q 421 192 419 169 q 393 232 421 218 q 301 265 365 246 q 187 304 232 285 q 109 363 142 324 q 76 465 76 401 q 149 619 76 561 q 339 678 221 678 q 443 665 394 678 q 542 628 492 653 q 573 599 561 618 q 585 558 585 581 q 563 505 585 528 q 508 482 540 482 q 476 489 493 482 q 402 515 439 506 q 339 525 365 525 q 281 510 303 525 q 258 471 258 494 q 286 432 258 446 q 375 403 314 418 q 491 364 446 383 q 569 306 536 344 q 603 201 603 267 q 531 49 603 106 q 328 -7 460 -7 m 511 990 q 543 968 529 985 q 557 928 557 951 q 554 910 557 917 q 524 865 549 883 l 399 776 q 336 753 368 753 q 274 776 304 753 l 150 865 q 118 910 124 885 q 115 928 115 924 q 129 968 115 951 q 163 990 143 985 q 183 993 176 993 q 217 986 203 993 l 336 932 l 456 986 q 489 993 469 993 q 511 990 497 993 z "},"ş":{"ha":672,"x_min":69,"x_max":603,"o":"m 258 471 q 286 432 258 446 q 375 403 314 418 q 491 364 446 383 q 569 306 536 344 q 603 201 603 267 q 565 83 603 133 q 457 11 528 33 q 491 -37 479 -10 q 503 -94 503 -65 q 460 -199 503 -154 q 350 -243 418 -243 q 271 -228 311 -243 q 240 -207 251 -221 q 229 -175 229 -193 q 246 -132 229 -149 q 285 -115 263 -115 q 301 -118 290 -115 q 342 -125 321 -125 q 387 -110 371 -125 q 403 -72 403 -94 q 385 -31 403 -50 q 336 -7 368 -12 l 336 -7 l 332 -7 q 107 49 204 -7 q 80 77 90 60 q 69 115 69 94 q 92 168 69 146 q 146 190 114 190 q 176 185 165 190 q 338 144 264 144 q 397 157 375 144 q 421 192 419 169 q 393 232 421 218 q 301 265 365 246 q 187 304 232 285 q 109 363 142 324 q 76 465 76 401 q 149 619 76 561 q 339 678 221 678 q 443 665 394 678 q 542 628 492 653 q 573 599 561 618 q 585 558 585 581 q 563 505 585 528 q 508 482 540 482 q 476 489 493 482 q 402 515 439 506 q 339 525 365 525 q 281 510 303 525 q 258 471 258 494 z "},"ṣ":{"ha":672,"x_min":69,"x_max":603,"o":"m 328 -7 q 107 49 201 -7 q 80 77 90 60 q 69 115 69 94 q 92 168 69 146 q 146 190 114 190 q 176 185 165 190 q 338 144 264 144 q 397 157 375 144 q 421 192 419 169 q 393 232 421 218 q 301 265 365 246 q 187 304 232 285 q 109 363 142 324 q 76 465 76 401 q 149 619 76 561 q 339 678 221 678 q 443 665 394 678 q 542 628 492 653 q 573 599 561 618 q 585 558 585 581 q 563 505 585 528 q 508 482 540 482 q 476 489 493 482 q 402 515 439 506 q 339 525 365 525 q 281 510 303 525 q 258 471 258 494 q 286 432 258 446 q 375 403 314 418 q 491 364 446 383 q 569 306 536 344 q 603 201 603 267 q 531 49 603 106 q 328 -7 460 -7 m 338 -281 q 264 -251 294 -281 q 233 -175 233 -221 q 264 -99 233 -129 q 338 -69 294 -69 q 412 -99 382 -69 q 442 -175 442 -129 q 412 -251 442 -221 q 338 -281 382 -281 z "},"t":{"ha":651,"x_min":42,"x_max":610,"o":"m 610 88 q 594 42 610 63 q 551 13 578 22 q 440 -8 497 -8 q 316 22 372 -8 q 228 111 260 51 q 198 200 204 156 q 192 318 192 244 l 192 494 l 125 494 q 66 519 90 494 q 42 578 42 543 q 66 637 42 613 q 125 661 90 661 l 192 661 l 192 797 q 219 862 192 835 q 283 889 246 889 q 349 862 322 889 q 375 797 375 835 l 375 661 l 500 661 q 559 637 535 661 q 583 578 583 613 q 559 519 583 543 q 500 494 535 494 l 375 494 l 375 272 q 400 182 375 214 q 460 156 419 156 q 510 164 483 156 q 531 167 524 167 q 586 144 563 167 q 610 88 610 121 z "},"ŧ":{"ha":664,"x_min":42,"x_max":610,"o":"m 610 88 q 594 42 610 63 q 551 13 578 22 q 440 -8 497 -8 q 316 22 372 -8 q 228 111 260 51 q 200 186 207 149 q 193 272 193 224 l 142 272 q 90 293 111 272 q 69 344 69 314 q 90 396 69 375 q 142 417 111 417 l 192 417 l 192 494 l 125 494 q 66 519 90 494 q 42 578 42 543 q 66 637 42 613 q 125 661 90 661 l 192 661 l 192 797 q 219 862 192 835 q 283 889 246 889 q 349 862 322 889 q 375 797 375 835 l 375 661 l 500 661 q 559 637 535 661 q 583 578 583 613 q 559 519 583 543 q 500 494 535 494 l 375 494 l 375 417 l 469 417 q 521 396 500 417 q 542 344 542 375 q 521 293 542 314 q 469 272 500 272 l 375 272 q 400 182 375 211 q 460 156 419 156 q 510 164 483 156 q 531 167 524 167 q 586 144 563 167 q 610 88 610 121 z "},"ť":{"ha":664,"x_min":42,"x_max":610,"o":"m 433 983 q 455 1047 429 1019 q 517 1075 481 1075 q 578 1047 553 1075 q 600 983 604 1019 l 581 801 q 560 760 578 776 q 517 743 542 743 q 474 760 492 743 q 454 801 457 778 l 433 983 m 610 88 q 594 42 610 63 q 551 13 578 22 q 440 -8 497 -8 q 316 22 372 -8 q 228 111 260 51 q 198 200 204 156 q 192 318 192 244 l 192 494 l 125 494 q 66 519 90 494 q 42 578 42 543 q 66 637 42 613 q 125 661 90 661 l 192 661 l 192 797 q 219 862 192 835 q 283 889 246 889 q 349 862 322 889 q 375 797 375 835 l 375 661 l 500 661 q 559 637 535 661 q 583 578 583 613 q 559 519 583 543 q 500 494 535 494 l 375 494 l 375 272 q 400 182 375 214 q 460 156 419 156 q 510 164 483 156 q 531 167 524 167 q 586 144 563 167 q 610 88 610 121 z "},"ţ":{"ha":664,"x_min":42,"x_max":610,"o":"m 610 88 q 594 42 610 63 q 551 13 578 22 l 535 6 q 575 -94 575 -35 q 533 -199 575 -154 q 424 -243 492 -243 q 344 -228 385 -243 q 303 -175 303 -214 q 319 -132 303 -149 q 358 -115 336 -115 q 375 -118 364 -115 q 415 -125 394 -125 q 460 -110 444 -125 q 475 -72 475 -94 q 458 -31 475 -50 q 410 -7 440 -12 q 258 67 317 1 q 203 171 214 115 q 192 318 192 226 l 192 494 l 125 494 q 66 519 90 494 q 42 578 42 543 q 66 637 42 613 q 125 661 90 661 l 192 661 l 192 797 q 219 862 192 835 q 283 889 246 889 q 349 862 322 889 q 375 797 375 835 l 375 661 l 500 661 q 559 637 535 661 q 583 578 583 613 q 559 519 583 543 q 500 494 535 494 l 375 494 l 375 272 q 400 182 375 214 q 460 156 419 156 q 510 164 483 156 q 531 167 524 167 q 586 144 563 167 q 610 88 610 121 z "},"u":{"ha":783,"x_min":78,"x_max":706,"o":"m 615 669 q 679 643 653 669 q 706 579 706 617 l 706 90 q 679 26 706 53 q 615 0 653 0 q 556 22 581 0 q 526 78 531 44 q 328 -8 454 -8 q 145 63 213 -8 q 78 263 78 135 l 78 579 q 104 643 78 617 q 168 669 131 669 q 232 643 206 669 q 258 579 258 617 l 258 293 q 297 195 258 232 q 390 158 335 158 q 486 199 447 158 q 525 299 525 239 l 525 579 q 551 643 525 617 q 615 669 578 669 z "},"ú":{"ha":783,"x_min":78,"x_max":706,"o":"m 615 669 q 679 643 653 669 q 706 579 706 617 l 706 90 q 679 26 706 53 q 615 0 653 0 q 556 22 581 0 q 526 78 531 44 q 328 -8 454 -8 q 145 63 213 -8 q 78 263 78 135 l 78 579 q 104 643 78 617 q 168 669 131 669 q 232 643 206 669 q 258 579 258 617 l 258 293 q 297 195 258 232 q 390 158 335 158 q 486 199 447 158 q 525 299 525 239 l 525 579 q 551 643 525 617 q 615 669 578 669 m 388 753 q 342 769 364 753 q 321 819 321 786 q 338 867 321 843 l 428 990 q 506 1036 461 1036 q 563 1011 539 1036 q 588 947 588 986 q 557 882 588 910 l 439 774 q 388 753 415 753 z "},"ǔ":{"ha":783,"x_min":78,"x_max":706,"o":"m 615 669 q 679 643 653 669 q 706 579 706 617 l 706 90 q 679 26 706 53 q 615 0 653 0 q 556 22 581 0 q 526 78 531 44 q 328 -8 454 -8 q 145 63 213 -8 q 78 263 78 135 l 78 579 q 104 643 78 617 q 168 669 131 669 q 232 643 206 669 q 258 579 258 617 l 258 293 q 297 195 258 232 q 390 158 335 158 q 486 199 447 158 q 525 299 525 239 l 525 579 q 551 643 525 617 q 615 669 578 669 m 568 990 q 600 968 586 985 q 614 928 614 951 q 611 910 614 917 q 581 865 606 883 l 456 776 q 393 753 425 753 q 331 776 361 753 l 207 865 q 175 910 181 885 q 172 928 172 924 q 186 968 172 951 q 219 990 200 985 q 240 993 233 993 q 274 986 260 993 l 393 932 l 513 986 q 546 993 526 993 q 568 990 554 993 z "},"û":{"ha":783,"x_min":78,"x_max":706,"o":"m 615 669 q 679 643 653 669 q 706 579 706 617 l 706 90 q 679 26 706 53 q 615 0 653 0 q 556 22 581 0 q 526 78 531 44 q 328 -8 454 -8 q 145 63 213 -8 q 78 263 78 135 l 78 579 q 104 643 78 617 q 168 669 131 669 q 232 643 206 669 q 258 579 258 617 l 258 293 q 297 195 258 232 q 390 158 335 158 q 486 199 447 158 q 525 299 525 239 l 525 579 q 551 643 525 617 q 615 669 578 669 m 611 836 q 614 818 614 829 q 600 778 614 794 q 568 757 586 763 q 546 753 558 753 q 513 760 533 753 l 393 815 l 274 760 q 240 753 253 753 q 219 757 231 753 q 186 778 200 763 q 172 818 172 794 q 175 836 172 822 q 207 881 181 861 l 331 969 q 393 993 361 993 q 456 969 425 993 l 581 881 q 611 836 606 863 z "},"ü":{"ha":783,"x_min":78,"x_max":706,"o":"m 615 669 q 679 643 653 669 q 706 579 706 617 l 706 90 q 679 26 706 53 q 615 0 653 0 q 556 22 581 0 q 526 78 531 44 q 328 -8 454 -8 q 145 63 213 -8 q 78 263 78 135 l 78 579 q 104 643 78 617 q 168 669 131 669 q 232 643 206 669 q 258 579 258 617 l 258 293 q 297 195 258 232 q 390 158 335 158 q 486 199 447 158 q 525 299 525 239 l 525 579 q 551 643 525 617 q 615 669 578 669 m 257 739 q 191 765 218 739 q 164 833 164 792 q 191 901 164 875 q 257 928 218 928 q 323 901 296 928 q 350 833 350 875 q 323 765 350 792 q 257 739 296 739 m 528 739 q 462 765 489 739 q 435 833 435 792 q 462 901 435 875 q 528 928 489 928 q 594 901 567 928 q 621 833 621 875 q 594 765 621 792 q 528 739 567 739 z "},"ụ":{"ha":783,"x_min":78,"x_max":706,"o":"m 615 669 q 679 643 653 669 q 706 579 706 617 l 706 90 q 679 26 706 53 q 615 0 653 0 q 556 22 581 0 q 526 78 531 44 q 328 -8 454 -8 q 145 63 213 -8 q 78 263 78 135 l 78 579 q 104 643 78 617 q 168 669 131 669 q 232 643 206 669 q 258 579 258 617 l 258 293 q 297 195 258 232 q 390 158 335 158 q 486 199 447 158 q 525 299 525 239 l 525 579 q 551 643 525 617 q 615 669 578 669 m 406 -69 q 479 -99 449 -69 q 510 -175 510 -129 q 479 -251 510 -221 q 406 -281 449 -281 q 332 -251 363 -281 q 301 -175 301 -221 q 332 -99 301 -129 q 406 -69 363 -69 z "},"ù":{"ha":783,"x_min":78,"x_max":706,"o":"m 615 669 q 679 643 653 669 q 706 579 706 617 l 706 90 q 679 26 706 53 q 615 0 653 0 q 556 22 581 0 q 526 78 531 44 q 328 -8 454 -8 q 145 63 213 -8 q 78 263 78 135 l 78 579 q 104 643 78 617 q 168 669 131 669 q 232 643 206 669 q 258 579 258 617 l 258 293 q 297 195 258 232 q 390 158 335 158 q 486 199 447 158 q 525 299 525 239 l 525 579 q 551 643 525 617 q 615 669 578 669 m 399 751 q 347 772 371 751 l 229 881 q 199 946 199 908 q 223 1009 199 983 q 281 1035 247 1035 q 358 989 325 1035 l 449 865 q 465 818 465 842 q 444 768 465 785 q 399 751 424 751 z "},"ū":{"ha":783,"x_min":78,"x_max":706,"o":"m 615 669 q 679 643 653 669 q 706 579 706 617 l 706 90 q 679 26 706 53 q 615 0 653 0 q 556 22 581 0 q 526 78 531 44 q 328 -8 454 -8 q 145 63 213 -8 q 78 263 78 135 l 78 579 q 104 643 78 617 q 168 669 131 669 q 232 643 206 669 q 258 579 258 617 l 258 293 q 297 195 258 232 q 390 158 335 158 q 486 199 447 158 q 525 299 525 239 l 525 579 q 551 643 525 617 q 615 669 578 669 m 219 778 q 168 799 189 778 q 147 850 147 819 q 168 901 147 881 q 219 922 189 922 l 561 922 q 613 901 592 922 q 633 850 633 881 q 613 799 633 819 q 561 778 592 778 l 219 778 z "},"ų":{"ha":797,"x_min":83,"x_max":758,"o":"m 758 -164 q 748 -195 758 -181 q 717 -217 738 -210 q 639 -232 674 -232 q 528 -187 569 -232 q 486 -82 486 -143 q 502 -17 486 -49 q 549 36 518 15 q 532 78 533 58 q 333 -8 460 -8 q 151 63 218 -8 q 83 263 83 135 l 83 579 q 110 643 83 617 q 174 669 136 669 q 238 643 211 669 q 264 579 264 617 l 264 293 q 302 195 264 232 q 396 158 340 158 q 492 199 453 158 q 531 299 531 239 l 531 578 q 558 642 531 615 q 622 669 585 669 q 687 642 660 669 q 714 578 714 615 l 714 92 q 693 34 714 60 q 640 1 672 8 q 600 -22 614 -4 q 586 -61 586 -40 q 602 -99 586 -83 q 647 -114 618 -114 q 686 -107 663 -114 q 704 -104 697 -104 q 742 -121 726 -104 q 758 -164 758 -137 z "},"ů":{"ha":783,"x_min":78,"x_max":706,"o":"m 615 669 q 679 643 653 669 q 706 579 706 617 l 706 90 q 679 26 706 53 q 615 0 653 0 q 556 22 581 0 q 526 78 531 44 q 328 -8 454 -8 q 145 63 213 -8 q 78 263 78 135 l 78 579 q 104 643 78 617 q 168 669 131 669 q 232 643 206 669 q 258 579 258 617 l 258 293 q 297 195 258 232 q 390 158 335 158 q 486 199 447 158 q 525 299 525 239 l 525 579 q 551 643 525 617 q 615 669 578 669 m 393 753 q 285 797 329 753 q 240 906 240 840 q 285 1015 240 972 q 393 1058 329 1058 q 501 1015 457 1058 q 546 906 546 972 q 501 797 546 840 q 393 753 457 753 m 393 849 q 432 865 417 849 q 447 906 447 881 q 432 947 447 931 q 393 963 417 963 q 354 947 369 963 q 339 906 339 931 q 354 865 339 881 q 393 849 369 849 z "},"ũ":{"ha":783,"x_min":78,"x_max":706,"o":"m 615 669 q 679 643 653 669 q 706 579 706 617 l 706 90 q 679 26 706 53 q 615 0 653 0 q 556 22 581 0 q 526 78 531 44 q 328 -8 454 -8 q 145 63 213 -8 q 78 263 78 135 l 78 579 q 104 643 78 617 q 168 669 131 669 q 232 643 206 669 q 258 579 258 617 l 258 293 q 297 195 258 232 q 390 158 335 158 q 486 199 447 158 q 525 299 525 239 l 525 579 q 551 643 525 617 q 615 669 578 669 m 556 765 q 529 758 542 758 q 494 769 510 758 q 454 783 479 783 q 410 772 429 783 q 321 749 368 749 q 194 796 253 749 q 175 838 175 813 q 183 866 175 853 q 203 886 190 879 q 229 893 217 893 q 264 881 249 893 q 304 868 281 868 q 349 879 329 868 q 438 903 390 903 q 564 856 506 903 q 583 814 583 839 q 576 785 583 799 q 556 765 568 772 z "},"v":{"ha":738,"x_min":42,"x_max":696,"o":"m 603 672 q 669 645 642 672 q 696 582 696 618 q 688 549 696 565 l 460 49 q 422 5 447 21 q 368 -10 397 -11 q 315 5 340 -11 q 278 49 290 21 l 49 549 q 42 582 42 567 q 68 645 42 618 q 133 672 94 672 q 185 656 161 672 q 219 614 208 640 l 368 264 l 517 614 q 551 656 528 640 q 603 672 575 672 z "},"w":{"ha":1208,"x_min":42,"x_max":1167,"o":"m 1075 672 q 1140 645 1114 672 q 1167 582 1167 618 q 1160 549 1167 563 l 932 49 q 894 5 919 21 q 840 -10 869 -11 q 787 4 813 -12 q 749 49 761 21 l 604 375 l 460 49 q 422 5 447 21 q 368 -10 397 -11 q 315 5 340 -11 q 278 49 290 21 l 49 549 q 42 582 42 567 q 68 645 42 618 q 133 672 94 672 q 185 656 161 672 q 219 614 208 640 l 368 264 l 517 614 q 551 656 528 640 q 603 672 575 672 q 656 657 632 672 q 692 614 681 642 l 840 264 l 989 614 q 1024 656 1000 640 q 1075 672 1047 672 z "},"ẃ":{"ha":1208,"x_min":42,"x_max":1167,"o":"m 1075 672 q 1140 645 1114 672 q 1167 582 1167 618 q 1160 549 1167 563 l 932 49 q 894 5 919 21 q 840 -10 869 -11 q 787 4 813 -12 q 749 49 761 21 l 604 375 l 460 49 q 422 5 447 21 q 368 -10 397 -11 q 315 5 340 -11 q 278 49 290 21 l 49 549 q 42 582 42 567 q 68 645 42 618 q 133 672 94 672 q 185 656 161 672 q 219 614 208 640 l 368 264 l 517 614 q 551 656 528 640 q 603 672 575 672 q 656 657 632 672 q 692 614 681 642 l 840 264 l 989 614 q 1024 656 1000 640 q 1075 672 1047 672 m 599 753 q 553 769 575 753 q 532 819 532 786 q 549 867 532 843 l 639 990 q 717 1036 672 1036 q 774 1011 750 1036 q 799 947 799 986 q 768 882 799 910 l 650 774 q 599 753 626 753 z "},"ŵ":{"ha":1208,"x_min":42,"x_max":1167,"o":"m 1075 672 q 1140 645 1114 672 q 1167 582 1167 618 q 1160 549 1167 563 l 932 49 q 894 5 919 21 q 840 -10 869 -11 q 787 4 813 -12 q 749 49 761 21 l 604 375 l 460 49 q 422 5 447 21 q 368 -10 397 -11 q 315 5 340 -11 q 278 49 290 21 l 49 549 q 42 582 42 567 q 68 645 42 618 q 133 672 94 672 q 185 656 161 672 q 219 614 208 640 l 368 264 l 517 614 q 551 656 528 640 q 603 672 575 672 q 656 657 632 672 q 692 614 681 642 l 840 264 l 989 614 q 1024 656 1000 640 q 1075 672 1047 672 m 822 836 q 825 818 825 829 q 811 778 825 794 q 779 757 797 763 q 757 753 769 753 q 724 760 744 753 l 604 815 l 485 760 q 451 753 464 753 q 431 757 442 753 q 397 778 411 763 q 383 818 383 794 q 386 836 383 822 q 418 881 392 861 l 542 969 q 604 993 572 993 q 667 969 636 993 l 792 881 q 822 836 817 863 z "},"ẅ":{"ha":1208,"x_min":42,"x_max":1167,"o":"m 1075 672 q 1140 645 1114 672 q 1167 582 1167 618 q 1160 549 1167 563 l 932 49 q 894 5 919 21 q 840 -10 869 -11 q 787 4 813 -12 q 749 49 761 21 l 604 375 l 460 49 q 422 5 447 21 q 368 -10 397 -11 q 315 5 340 -11 q 278 49 290 21 l 49 549 q 42 582 42 567 q 68 645 42 618 q 133 672 94 672 q 185 656 161 672 q 219 614 208 640 l 368 264 l 517 614 q 551 656 528 640 q 603 672 575 672 q 656 657 632 672 q 692 614 681 642 l 840 264 l 989 614 q 1024 656 1000 640 q 1075 672 1047 672 m 468 739 q 402 765 429 739 q 375 833 375 792 q 402 901 375 875 q 468 928 429 928 q 534 901 507 928 q 561 833 561 875 q 534 765 561 792 q 468 739 507 739 m 739 739 q 673 765 700 739 q 646 833 646 792 q 673 901 646 875 q 739 928 700 928 q 805 901 778 928 q 832 833 832 875 q 805 765 832 792 q 739 739 778 739 z "},"ẁ":{"ha":1208,"x_min":42,"x_max":1167,"o":"m 1075 672 q 1140 645 1114 672 q 1167 582 1167 618 q 1160 549 1167 563 l 932 49 q 894 5 919 21 q 840 -10 869 -11 q 787 4 813 -12 q 749 49 761 21 l 604 375 l 460 49 q 422 5 447 21 q 368 -10 397 -11 q 315 5 340 -11 q 278 49 290 21 l 49 549 q 42 582 42 567 q 68 645 42 618 q 133 672 94 672 q 185 656 161 672 q 219 614 208 640 l 368 264 l 517 614 q 551 656 528 640 q 603 672 575 672 q 656 657 632 672 q 692 614 681 642 l 840 264 l 989 614 q 1024 656 1000 640 q 1075 672 1047 672 m 610 751 q 558 772 582 751 l 440 881 q 410 946 410 908 q 434 1009 410 983 q 492 1035 458 1035 q 569 989 536 1035 l 660 865 q 676 818 676 842 q 656 768 676 785 q 610 751 635 751 z "},"x":{"ha":710,"x_min":42,"x_max":668,"o":"m 646 147 q 668 86 668 121 q 660 49 668 67 q 638 17 651 31 q 576 -6 611 -6 q 539 3 557 -6 q 507 26 521 11 l 356 201 l 203 26 q 171 3 189 11 q 133 -6 153 -6 q 74 17 97 -6 q 42 86 42 46 q 64 147 42 121 l 236 339 l 72 522 q 50 583 50 549 q 82 651 50 624 q 142 675 108 675 q 179 667 161 675 q 211 643 197 658 l 356 476 l 499 643 q 531 667 513 658 q 568 675 549 675 q 629 651 601 675 q 660 583 660 624 q 638 522 660 549 l 475 339 l 646 147 z "},"y":{"ha":793,"x_min":42,"x_max":751,"o":"m 697 665 q 737 631 722 654 q 751 582 751 608 q 743 543 751 563 l 399 -211 q 365 -251 388 -236 q 315 -265 342 -265 q 249 -238 274 -265 q 224 -174 224 -211 q 232 -136 224 -153 l 296 6 l 50 543 q 42 582 42 563 q 56 631 42 608 q 96 665 71 654 q 133 674 115 674 q 183 659 160 674 q 217 619 206 644 l 397 211 l 576 619 q 610 659 588 644 q 660 674 633 674 q 697 665 678 674 z "},"ý":{"ha":793,"x_min":42,"x_max":751,"o":"m 697 665 q 737 631 722 654 q 751 582 751 608 q 743 543 751 563 l 399 -211 q 365 -251 388 -236 q 315 -265 342 -265 q 249 -238 274 -265 q 224 -174 224 -211 q 232 -136 224 -153 l 296 6 l 50 543 q 42 582 42 563 q 56 631 42 608 q 96 665 71 654 q 133 674 115 674 q 183 659 160 674 q 217 619 206 644 l 397 211 l 576 619 q 610 659 588 644 q 660 674 633 674 q 697 665 678 674 m 396 753 q 351 769 372 753 q 329 819 329 786 q 346 867 329 843 l 436 990 q 514 1036 469 1036 q 572 1011 547 1036 q 596 947 596 986 q 565 882 596 910 l 447 774 q 396 753 424 753 z "},"ŷ":{"ha":793,"x_min":42,"x_max":751,"o":"m 697 665 q 737 631 722 654 q 751 582 751 608 q 743 543 751 563 l 399 -211 q 365 -251 388 -236 q 315 -265 342 -265 q 249 -238 274 -265 q 224 -174 224 -211 q 232 -136 224 -153 l 296 6 l 50 543 q 42 582 42 563 q 56 631 42 608 q 96 665 71 654 q 133 674 115 674 q 183 659 160 674 q 217 619 206 644 l 397 211 l 576 619 q 610 659 588 644 q 660 674 633 674 q 697 665 678 674 m 619 836 q 622 818 622 829 q 608 778 622 794 q 576 757 594 763 q 554 753 567 753 q 521 760 542 753 l 401 815 l 282 760 q 249 753 261 753 q 228 757 239 753 q 194 778 208 763 q 181 818 181 794 q 183 836 181 822 q 215 881 189 861 l 339 969 q 401 993 369 993 q 464 969 433 993 l 589 881 q 619 836 614 863 z "},"ÿ":{"ha":793,"x_min":42,"x_max":751,"o":"m 697 665 q 737 631 722 654 q 751 582 751 608 q 743 543 751 563 l 399 -211 q 365 -251 388 -236 q 315 -265 342 -265 q 249 -238 274 -265 q 224 -174 224 -211 q 232 -136 224 -153 l 296 6 l 50 543 q 42 582 42 563 q 56 631 42 608 q 96 665 71 654 q 133 674 115 674 q 183 659 160 674 q 217 619 206 644 l 397 211 l 576 619 q 610 659 588 644 q 660 674 633 674 q 697 665 678 674 m 265 739 q 199 765 226 739 q 172 833 172 792 q 199 901 172 875 q 265 928 226 928 q 331 901 304 928 q 358 833 358 875 q 331 765 358 792 q 265 739 304 739 m 536 739 q 470 765 497 739 q 443 833 443 792 q 470 901 443 875 q 536 928 497 928 q 602 901 575 928 q 629 833 629 875 q 602 765 629 792 q 536 739 575 739 z "},"ỵ":{"ha":793,"x_min":42,"x_max":751,"o":"m 697 665 q 737 631 722 654 q 751 582 751 608 q 743 543 751 563 l 399 -211 q 365 -251 388 -236 q 315 -265 342 -265 q 249 -238 274 -265 q 224 -174 224 -211 q 232 -136 224 -153 l 296 6 l 50 543 q 42 582 42 563 q 56 631 42 608 q 96 665 71 654 q 133 674 115 674 q 183 659 160 674 q 217 619 206 644 l 397 211 l 576 619 q 610 659 588 644 q 660 674 633 674 q 697 665 678 674 m 611 -69 q 685 -99 654 -69 q 715 -175 715 -129 q 685 -251 715 -221 q 611 -281 654 -281 q 538 -251 568 -281 q 507 -175 507 -221 q 538 -99 507 -129 q 611 -69 568 -69 z "},"ỳ":{"ha":793,"x_min":42,"x_max":751,"o":"m 697 665 q 737 631 722 654 q 751 582 751 608 q 743 543 751 563 l 399 -211 q 365 -251 388 -236 q 315 -265 342 -265 q 249 -238 274 -265 q 224 -174 224 -211 q 232 -136 224 -153 l 296 6 l 50 543 q 42 582 42 563 q 56 631 42 608 q 96 665 71 654 q 133 674 115 674 q 183 659 160 674 q 217 619 206 644 l 397 211 l 576 619 q 610 659 588 644 q 660 674 633 674 q 697 665 678 674 m 407 751 q 356 772 379 751 l 238 881 q 207 946 207 908 q 231 1009 207 983 q 289 1035 256 1035 q 367 989 333 1035 l 457 865 q 474 818 474 842 q 453 768 474 785 q 407 751 432 751 z "},"ỹ":{"ha":793,"x_min":42,"x_max":751,"o":"m 697 665 q 737 631 722 654 q 751 582 751 608 q 743 543 751 563 l 399 -211 q 365 -251 388 -236 q 315 -265 342 -265 q 249 -238 274 -265 q 224 -174 224 -211 q 232 -136 224 -153 l 296 6 l 50 543 q 42 582 42 563 q 56 631 42 608 q 96 665 71 654 q 133 674 115 674 q 183 659 160 674 q 217 619 206 644 l 397 211 l 576 619 q 610 659 588 644 q 660 674 633 674 q 697 665 678 674 m 564 765 q 538 758 550 758 q 503 769 518 758 q 463 783 488 783 q 418 772 438 783 q 329 749 376 749 q 203 796 261 749 q 183 838 183 813 q 191 866 183 853 q 211 886 199 879 q 238 893 225 893 q 272 881 257 893 q 313 868 289 868 q 357 879 338 868 q 446 903 399 903 q 572 856 514 903 q 592 814 592 839 q 584 785 592 799 q 564 765 576 772 z "},"z":{"ha":735,"x_min":61,"x_max":674,"o":"m 157 0 q 89 24 117 -3 q 61 89 61 51 q 85 150 61 122 l 404 503 l 168 503 q 109 527 133 503 q 85 586 85 551 q 109 645 85 621 q 168 669 133 669 l 576 669 q 644 646 621 669 q 674 581 674 619 q 671 563 674 576 q 649 519 667 538 l 331 167 l 589 167 q 648 142 624 167 q 672 83 672 118 q 648 24 672 49 q 589 0 624 0 l 157 0 z "},"ź":{"ha":735,"x_min":61,"x_max":674,"o":"m 157 0 q 89 24 117 -3 q 61 89 61 51 q 85 150 61 122 l 404 503 l 168 503 q 109 527 133 503 q 85 586 85 551 q 109 645 85 621 q 168 669 133 669 l 576 669 q 644 646 621 669 q 674 581 674 619 q 671 563 674 576 q 649 519 667 538 l 331 167 l 589 167 q 648 142 624 167 q 672 83 672 118 q 648 24 672 49 q 589 0 624 0 l 157 0 m 365 753 q 320 769 342 753 q 299 819 299 786 q 315 867 299 843 l 406 990 q 483 1036 439 1036 q 541 1011 517 1036 q 565 947 565 986 q 535 882 565 910 l 417 774 q 365 753 393 753 z "},"ž":{"ha":735,"x_min":61,"x_max":674,"o":"m 157 0 q 89 24 117 -3 q 61 89 61 51 q 85 150 61 122 l 404 503 l 168 503 q 109 527 133 503 q 85 586 85 551 q 109 645 85 621 q 168 669 133 669 l 576 669 q 644 646 621 669 q 674 581 674 619 q 671 563 674 576 q 649 519 667 538 l 331 167 l 589 167 q 648 142 624 167 q 672 83 672 118 q 648 24 672 49 q 589 0 624 0 l 157 0 m 547 990 q 579 968 565 985 q 593 928 593 951 q 590 910 593 917 q 560 865 585 883 l 435 776 q 372 753 404 753 q 310 776 340 753 l 186 865 q 154 910 160 885 q 151 928 151 924 q 165 968 151 951 q 199 990 179 985 q 219 993 213 993 q 253 986 239 993 l 372 932 l 492 986 q 525 993 506 993 q 547 990 533 993 z "},"ż":{"ha":735,"x_min":61,"x_max":674,"o":"m 157 0 q 89 24 117 -3 q 61 89 61 51 q 85 150 61 122 l 404 503 l 168 503 q 109 527 133 503 q 85 586 85 551 q 109 645 85 621 q 168 669 133 669 l 576 669 q 644 646 621 669 q 674 581 674 619 q 671 563 674 576 q 649 519 667 538 l 331 167 l 589 167 q 648 142 624 167 q 672 83 672 118 q 648 24 672 49 q 589 0 624 0 l 157 0 m 372 739 q 299 769 329 739 q 268 844 268 799 q 299 920 268 890 q 372 950 329 950 q 446 920 415 950 q 476 844 476 890 q 446 769 476 799 q 372 739 415 739 z "},"ẓ":{"ha":710,"x_min":82,"x_max":693,"o":"m 178 0 q 110 24 138 -3 q 82 89 82 51 q 106 150 82 122 l 424 503 l 189 503 q 130 527 154 503 q 106 586 106 551 q 130 645 106 621 q 189 669 154 669 l 597 669 q 665 646 640 669 q 693 581 693 619 q 692 563 693 569 q 669 519 688 538 l 351 167 l 610 167 q 669 142 644 167 q 693 83 693 118 q 669 24 693 49 q 610 0 644 0 l 178 0 m 389 -281 q 315 -251 346 -281 q 285 -175 285 -221 q 315 -99 285 -129 q 389 -69 346 -69 q 463 -99 432 -69 q 493 -175 493 -129 q 463 -251 493 -221 q 389 -281 432 -281 z "},"*":{"ha":593,"x_min":64,"x_max":529,"o":"m 493 731 q 519 703 510 719 q 529 668 529 686 q 519 632 529 651 q 492 606 510 615 q 456 596 475 596 q 421 606 436 596 l 368 635 l 368 581 q 347 529 368 550 q 296 508 326 508 q 244 529 265 508 q 224 581 224 550 l 224 635 l 172 606 q 136 596 157 596 q 100 605 117 596 q 74 632 83 614 q 64 668 64 647 q 73 704 64 688 q 100 731 82 721 l 151 760 l 100 790 q 74 817 83 800 q 64 853 64 833 q 74 889 64 871 q 101 915 85 906 q 136 925 118 925 q 172 915 153 925 l 224 885 l 224 936 q 245 988 224 967 q 296 1008 267 1008 q 347 988 326 1008 q 368 936 368 967 l 368 885 l 421 915 q 456 925 440 925 q 492 915 475 925 q 519 889 510 906 q 529 853 529 867 q 519 817 529 833 q 493 790 510 800 l 440 760 l 493 731 z "},"\\":{"ha":485,"x_min":42,"x_max":443,"o":"m 351 -136 q 294 -116 319 -136 q 263 -64 269 -96 l 43 964 q 42 983 42 971 q 69 1048 42 1021 q 133 1075 96 1075 q 192 1055 167 1075 q 224 1003 217 1035 l 442 -25 q 443 -44 443 -32 q 416 -109 443 -82 q 351 -136 389 -136 z "},"·":{"ha":311,"x_min":56,"x_max":256,"o":"m 156 225 q 226 253 197 225 q 256 326 256 282 q 226 399 256 371 q 156 428 197 428 q 85 399 114 428 q 56 326 56 371 q 85 253 56 282 q 156 225 114 225 z "},"•":{"ha":450,"x_min":83,"x_max":367,"o":"m 225 183 q 326 224 285 183 q 367 326 367 265 q 326 428 367 388 q 225 469 285 469 q 124 428 165 469 q 83 326 83 388 q 124 224 83 265 q 225 183 165 183 z "},":":{"ha":311,"x_min":56,"x_max":256,"o":"m 156 453 q 226 481 197 453 q 256 554 256 510 q 226 627 256 599 q 156 656 197 656 q 85 627 114 656 q 56 554 56 599 q 85 481 56 510 q 156 453 114 453 m 156 -6 q 226 23 197 -6 q 256 96 256 51 q 226 169 256 140 q 156 197 197 197 q 85 169 114 197 q 56 96 56 140 q 85 23 56 51 q 156 -6 114 -6 z "},",":{"ha":324,"x_min":14,"x_max":268,"o":"m 82 -197 q 34 -178 54 -197 q 14 -131 14 -158 q 18 -107 14 -118 l 94 104 q 127 147 104 131 q 179 164 150 164 q 242 138 217 164 q 268 74 268 111 q 256 28 268 47 l 139 -165 q 115 -189 131 -181 q 82 -197 100 -197 z "},"…":{"ha":922,"x_min":56,"x_max":867,"o":"m 767 -6 q 838 23 808 -6 q 867 96 867 51 q 838 169 867 140 q 767 197 808 197 q 696 169 725 197 q 667 96 667 140 q 696 23 667 51 q 767 -6 725 -6 m 156 -6 q 226 23 197 -6 q 256 96 256 51 q 226 169 256 140 q 156 197 197 197 q 85 169 114 197 q 56 96 56 140 q 85 23 56 51 q 156 -6 114 -6 m 461 -6 q 532 23 503 -6 q 561 96 561 51 q 532 169 561 140 q 461 197 503 197 q 390 169 419 197 q 361 96 361 140 q 390 23 361 51 q 461 -6 419 -6 z "},"!":{"ha":389,"x_min":83,"x_max":306,"o":"m 194 289 q 135 313 160 289 q 111 372 111 338 l 83 828 q 116 906 83 874 q 194 939 149 939 q 273 906 240 939 q 306 828 306 874 l 278 372 q 253 313 278 338 q 194 289 229 289 m 194 -7 q 124 22 153 -7 q 94 94 94 50 q 124 167 94 139 q 194 196 153 196 q 265 167 236 196 q 294 94 294 139 q 265 22 294 50 q 194 -7 236 -7 z "},"#":{"ha":1108,"x_min":89,"x_max":1019,"o":"m 825 483 l 803 350 l 878 350 q 939 325 914 350 q 964 264 964 300 q 939 203 964 229 q 878 178 914 178 l 776 178 l 757 54 q 726 0 751 22 q 667 -22 701 -22 q 603 5 629 -22 q 576 68 576 32 q 578 82 576 78 l 593 178 l 440 178 l 421 54 q 390 0 415 22 q 331 -22 365 -22 q 267 5 293 -22 q 240 68 240 32 q 242 82 240 78 l 257 178 l 175 178 q 115 203 140 178 q 89 264 89 229 q 115 325 89 300 q 175 350 140 350 l 283 350 l 306 483 l 231 483 q 170 509 196 483 q 144 569 144 535 q 170 631 144 606 q 231 656 196 656 l 332 656 l 351 779 q 382 833 357 811 q 442 856 407 856 q 506 828 479 856 q 532 765 532 801 q 531 751 532 756 l 515 656 l 668 656 l 688 779 q 718 833 693 811 q 778 856 743 856 q 842 828 815 856 q 868 765 868 801 q 867 751 868 756 l 851 656 l 933 656 q 994 631 969 656 q 1019 569 1019 606 q 994 509 1019 535 q 933 483 969 483 l 825 483 m 642 483 l 489 483 l 467 350 l 619 350 l 642 483 z "},".":{"ha":311,"x_min":56,"x_max":256,"o":"m 156 -6 q 226 23 197 -6 q 256 96 256 51 q 226 169 256 140 q 156 197 197 197 q 85 169 114 197 q 56 96 56 140 q 85 23 56 51 q 156 -6 114 -6 z "},"?":{"ha":713,"x_min":89,"x_max":624,"o":"m 292 267 q 227 294 254 267 q 200 358 200 321 l 200 446 q 213 492 200 471 q 247 525 225 514 l 292 551 q 378 604 350 585 q 422 647 406 624 q 438 700 438 669 q 346 782 438 782 q 240 739 283 782 q 176 711 217 711 q 115 737 140 711 q 89 799 89 763 q 119 865 89 839 q 224 928 165 907 q 347 949 283 949 q 491 917 428 949 q 589 827 554 885 q 624 696 624 769 q 585 567 624 622 q 505 481 547 511 q 383 400 463 450 l 383 358 q 357 294 383 321 q 292 267 331 267 m 292 -6 q 221 23 250 -6 q 192 96 192 51 q 221 169 192 140 q 292 197 250 197 q 363 169 333 197 q 392 96 392 140 q 363 23 392 51 q 292 -6 333 -6 z "},"\"":{"ha":539,"x_min":53,"x_max":486,"o":"m 400 778 q 357 795 375 778 q 336 836 339 813 l 317 1074 q 338 1138 313 1110 q 400 1165 363 1165 q 461 1138 436 1165 q 483 1074 486 1110 l 464 836 q 443 795 461 813 q 400 778 425 778 m 140 778 q 97 794 115 778 q 76 836 78 811 l 56 1074 q 78 1137 53 1110 q 140 1164 103 1164 q 201 1137 176 1164 q 224 1074 226 1110 l 203 836 q 183 794 200 811 q 140 778 165 778 z "},"'":{"ha":288,"x_min":53,"x_max":235,"o":"m 144 794 q 99 812 118 794 q 78 856 79 829 l 56 1104 q 79 1172 53 1143 q 144 1200 106 1200 q 209 1172 183 1200 q 232 1104 235 1143 l 211 856 q 190 812 210 829 q 144 794 171 794 z "},";":{"ha":325,"x_min":14,"x_max":269,"o":"m 169 453 q 99 481 128 453 q 69 554 69 510 q 99 627 69 599 q 169 656 128 656 q 240 627 211 656 q 269 554 269 599 q 240 481 269 510 q 169 453 211 453 m 82 -197 q 34 -178 54 -197 q 14 -131 14 -158 q 18 -107 14 -118 l 94 104 q 127 147 104 131 q 179 164 150 164 q 242 138 217 164 q 268 74 268 111 q 256 28 268 47 l 139 -165 q 115 -189 131 -181 q 82 -197 100 -197 z "},"/":{"ha":485,"x_min":42,"x_max":443,"o":"m 133 -136 q 69 -109 96 -136 q 42 -44 42 -82 q 43 -25 42 -32 l 263 1003 q 294 1055 269 1035 q 351 1075 319 1075 q 416 1048 389 1075 q 443 983 443 1021 q 442 964 443 971 l 224 -64 q 192 -116 217 -96 q 133 -136 167 -136 z "},"_":{"ha":764,"x_min":42,"x_max":722,"o":"m 42 -97 q 66 -38 42 -62 q 125 -14 90 -14 l 639 -14 q 698 -38 674 -14 q 722 -97 722 -62 q 698 -156 722 -132 q 639 -181 674 -181 l 125 -181 q 66 -156 90 -181 q 42 -97 42 -132 z "},"{":{"ha":833,"x_min":0,"x_max":0,"o":""},"}":{"ha":833,"x_min":0,"x_max":0,"o":""},"[":{"ha":833,"x_min":0,"x_max":0,"o":""},"]":{"ha":833,"x_min":0,"x_max":0,"o":""},"(":{"ha":438,"x_min":89,"x_max":396,"o":"m 346 -122 q 307 -131 328 -131 q 260 -117 282 -131 q 228 -81 239 -104 q 89 469 89 210 q 228 1019 89 729 q 260 1056 239 1043 q 307 1069 282 1069 q 372 1043 347 1069 q 396 982 396 1017 q 388 943 396 963 q 272 469 272 707 q 388 -4 272 232 q 396 -43 396 -24 q 383 -90 396 -68 q 346 -122 369 -111 z "},")":{"ha":438,"x_min":42,"x_max":349,"o":"m 210 1019 q 349 469 349 729 q 210 -81 349 210 q 176 -117 199 -104 q 129 -131 154 -131 q 66 -104 90 -131 q 42 -43 42 -78 q 50 -4 42 -24 q 165 469 165 232 q 50 943 165 707 q 42 982 42 963 q 55 1028 42 1007 q 92 1061 68 1050 q 129 1069 111 1069 q 176 1056 154 1069 q 210 1019 199 1043 z "},"—":{"ha":917,"x_min":42,"x_max":875,"o":"m 42 335 q 66 394 42 369 q 125 418 90 418 l 792 418 q 851 394 826 418 q 875 335 875 369 q 851 276 875 300 q 792 251 826 251 l 125 251 q 66 276 90 251 q 42 335 42 300 z "},"–":{"ha":722,"x_min":42,"x_max":681,"o":"m 42 335 q 66 394 42 369 q 125 418 90 418 l 597 418 q 656 394 632 418 q 681 335 681 369 q 656 276 681 300 q 597 251 632 251 l 125 251 q 66 276 90 251 q 42 335 42 300 z "},"-":{"ha":750,"x_min":42,"x_max":681,"o":"m 42 335 q 66 394 42 369 q 125 418 90 418 l 597 418 q 656 394 632 418 q 681 335 681 369 q 656 276 681 300 q 597 251 632 251 l 125 251 q 66 276 90 251 q 42 335 42 300 z "},"­":{"ha":750,"x_min":42,"x_max":681,"o":"m 42 335 q 66 394 42 369 q 125 418 90 418 l 597 418 q 656 394 632 418 q 681 335 681 369 q 656 276 681 300 q 597 251 632 251 l 125 251 q 66 276 90 251 q 42 335 42 300 z "},"«":{"ha":833,"x_min":0,"x_max":0,"o":""},"»":{"ha":833,"x_min":0,"x_max":0,"o":""},"‹":{"ha":833,"x_min":0,"x_max":0,"o":""},"›":{"ha":833,"x_min":0,"x_max":0,"o":""},"„":{"ha":833,"x_min":0,"x_max":0,"o":""},"“":{"ha":833,"x_min":0,"x_max":0,"o":""},"”":{"ha":833,"x_min":0,"x_max":0,"o":""},"‘":{"ha":288,"x_min":0,"x_max":0,"o":""},"’":{"ha":288,"x_min":0,"x_max":0,"o":""},"‚":{"ha":833,"x_min":0,"x_max":0,"o":""},"¢":{"ha":708,"x_min":64,"x_max":644,"o":"m 560 307 q 619 282 594 307 q 644 222 644 257 q 635 183 644 201 q 610 153 626 164 q 475 94 550 110 l 475 32 q 451 -27 475 -3 q 392 -51 426 -51 q 333 -27 357 -51 q 308 32 308 -3 l 308 101 q 132 220 200 131 q 64 431 64 310 q 132 641 64 551 q 308 760 200 731 l 308 829 q 333 888 308 864 q 392 913 357 913 q 451 888 426 913 q 475 829 475 864 l 475 767 q 610 708 550 751 q 635 678 626 697 q 644 639 644 660 q 619 579 644 604 q 560 554 594 554 q 508 572 531 554 q 406 607 461 607 q 295 557 340 607 q 250 431 250 507 q 295 304 250 354 q 406 254 340 254 q 508 289 461 254 q 560 307 531 307 z "},"¤":{"ha":833,"x_min":0,"x_max":0,"o":""},"$":{"ha":803,"x_min":56,"x_max":749,"o":"m 747 267 q 676 89 749 156 q 490 0 603 22 l 490 -83 q 463 -148 490 -121 q 399 -175 436 -175 q 333 -148 360 -175 q 307 -83 307 -121 l 307 -1 q 192 28 246 8 q 107 72 139 47 q 64 146 64 103 q 90 211 64 185 q 151 238 117 238 q 196 226 176 238 q 300 180 254 196 q 408 164 346 164 q 518 190 478 164 q 558 254 558 215 q 535 306 558 285 q 476 340 511 326 q 375 372 440 353 q 213 428 276 400 q 102 513 149 456 q 56 663 56 569 q 125 847 56 778 q 306 938 194 917 l 306 1021 q 332 1085 306 1058 q 397 1113 358 1113 q 462 1085 435 1113 q 489 1021 489 1058 l 489 936 q 600 901 546 924 q 689 856 654 879 q 729 788 729 825 q 706 730 729 754 q 650 706 682 706 q 607 717 626 706 q 506 760 549 749 q 393 772 463 772 q 284 744 324 772 q 244 672 244 715 q 291 599 244 625 q 436 546 338 574 q 597 490 535 517 q 703 408 658 463 q 747 267 747 354 z "},"€":{"ha":878,"x_min":78,"x_max":789,"o":"m 686 164 q 703 165 692 165 q 763 141 738 165 q 788 81 788 117 q 768 28 788 50 q 721 0 749 6 q 638 -8 679 -8 q 413 61 513 -8 q 263 251 313 131 l 163 251 q 103 276 128 251 q 78 336 78 301 q 103 397 78 372 q 163 421 128 421 l 222 421 q 221 469 221 436 q 222 518 221 503 l 163 518 q 103 543 128 518 q 78 603 78 568 q 103 663 78 639 q 163 688 128 688 l 263 688 q 413 878 313 808 q 638 947 513 947 q 721 939 679 947 q 769 912 750 935 q 789 858 789 889 q 764 797 789 822 q 706 772 739 772 q 686 775 697 772 q 638 781 664 781 q 542 756 586 781 q 467 688 499 732 l 632 688 q 692 663 668 688 q 717 603 717 639 q 692 543 717 568 q 632 518 668 518 l 410 518 q 407 469 407 488 q 410 421 407 451 l 632 421 q 692 397 668 421 q 717 336 717 372 q 692 276 717 301 q 632 251 668 251 l 467 251 q 542 183 499 207 q 638 158 586 158 q 686 164 664 158 z "},"£":{"ha":874,"x_min":78,"x_max":785,"o":"m 699 172 q 760 148 735 174 q 785 86 785 122 q 760 26 785 51 q 699 0 735 1 l 235 0 q 174 25 199 0 q 149 86 149 50 q 171 144 149 119 q 234 251 218 203 q 247 350 250 299 l 164 350 q 103 376 129 350 q 78 436 78 401 q 103 497 78 472 q 164 522 129 522 l 219 522 q 211 631 211 569 q 294 862 211 778 q 525 946 378 946 q 640 931 590 946 q 746 878 690 917 q 773 847 763 867 q 783 807 783 828 q 758 747 783 772 q 697 721 733 721 q 647 738 668 721 q 586 771 613 763 q 528 779 560 779 q 428 744 458 779 q 397 631 397 710 q 411 522 397 603 l 615 522 q 676 497 651 522 q 701 436 701 472 q 676 376 701 401 q 615 350 651 350 l 428 350 q 389 172 425 256 l 699 172 z "},"¥":{"ha":793,"x_min":42,"x_max":751,"o":"m 706 931 q 740 895 728 917 q 751 849 751 874 q 738 800 751 822 l 585 543 l 617 543 q 676 519 651 543 q 700 460 700 494 q 676 401 700 425 q 617 376 651 376 l 490 376 l 490 321 l 617 321 q 676 297 651 321 q 700 238 700 272 q 676 178 700 203 q 617 154 651 154 l 490 154 l 490 94 q 463 28 490 56 q 396 0 436 0 q 329 28 357 0 q 301 94 301 56 l 301 154 l 176 154 q 117 178 142 154 q 93 238 93 203 q 117 297 93 272 q 176 321 142 321 l 301 321 l 301 376 l 176 376 q 117 401 142 376 q 93 460 93 425 q 117 519 93 494 q 176 543 142 543 l 208 543 l 56 800 q 42 849 42 822 q 53 895 42 874 q 88 931 65 917 q 136 944 113 944 q 183 933 161 944 q 217 899 204 921 l 396 581 l 576 899 q 610 933 589 921 q 657 944 632 944 q 706 931 681 944 z "},"+":{"ha":833,"x_min":83,"x_max":750,"o":"m 665 501 q 726 477 701 501 q 750 417 750 453 q 726 357 750 382 q 665 332 701 332 l 501 332 l 501 168 q 477 108 501 133 q 417 83 453 83 q 357 108 382 83 q 332 168 332 133 l 332 332 l 168 332 q 108 357 133 332 q 83 417 83 382 q 108 477 83 453 q 168 501 133 501 l 332 501 l 332 665 q 357 726 332 701 q 417 750 382 750 q 477 726 453 750 q 501 665 501 701 l 501 501 l 665 501 z "},"−":{"ha":806,"x_min":83,"x_max":722,"o":"m 83 417 q 108 477 83 453 q 168 501 133 501 l 638 501 q 698 477 674 501 q 722 417 722 453 q 698 357 722 382 q 638 332 674 332 l 168 332 q 108 357 133 332 q 83 417 83 382 z "},"×":{"ha":726,"x_min":83,"x_max":643,"o":"m 619 281 q 643 221 643 257 q 619 161 643 188 q 558 136 594 136 q 499 161 524 136 l 364 297 l 228 161 q 168 136 203 136 q 108 161 133 136 q 83 221 83 186 q 108 281 83 258 l 243 417 l 108 553 q 83 613 83 576 q 108 672 83 647 q 168 697 133 697 q 228 672 203 697 l 364 536 l 499 672 q 558 697 524 697 q 619 672 594 697 q 643 613 643 646 q 619 553 643 576 l 483 417 l 619 281 z "},"÷":{"ha":806,"x_min":83,"x_max":722,"o":"m 403 571 q 342 595 367 571 q 317 657 317 619 q 342 719 317 694 q 403 743 367 743 q 464 719 439 743 q 489 657 489 694 q 464 595 489 619 q 403 571 439 571 m 168 332 q 108 357 133 332 q 83 417 83 382 q 108 477 83 453 q 168 501 133 501 l 638 501 q 698 477 674 501 q 722 417 722 453 q 698 357 722 382 q 638 332 674 332 l 168 332 m 403 90 q 342 115 367 90 q 317 176 317 139 q 342 238 317 214 q 403 263 367 263 q 464 238 439 263 q 489 176 489 214 q 464 115 489 139 q 403 90 439 90 z "},"=":{"ha":819,"x_min":83,"x_max":736,"o":"m 168 486 q 108 511 133 486 q 83 571 83 536 q 108 631 83 607 q 168 656 133 656 l 651 656 q 712 631 688 656 q 736 571 736 607 q 712 511 736 536 q 651 486 688 486 l 168 486 m 168 178 q 108 203 133 178 q 83 263 83 228 q 108 323 83 299 q 168 347 133 347 l 651 347 q 712 323 688 347 q 736 263 736 299 q 712 203 736 228 q 651 178 688 178 l 168 178 z "},">":{"ha":824,"x_min":83,"x_max":740,"o":"m 203 110 q 171 103 190 103 q 110 128 136 103 q 83 192 83 154 q 99 241 83 218 q 140 274 114 264 l 476 417 l 140 560 q 99 592 114 569 q 83 642 83 615 q 110 705 83 679 q 171 731 136 731 q 203 724 190 731 l 683 504 q 726 467 711 492 q 739 417 740 443 q 726 366 740 390 q 683 329 711 342 l 203 110 z "},"<":{"ha":824,"x_min":82,"x_max":740,"o":"m 139 329 q 97 366 113 342 q 83 417 82 390 q 97 467 82 443 q 139 504 113 492 l 619 724 q 653 731 633 731 q 714 705 688 731 q 740 642 740 679 q 725 592 740 615 q 683 560 710 569 l 347 417 l 683 274 q 725 241 710 264 q 740 192 740 218 q 714 128 740 154 q 653 103 688 103 q 619 110 633 103 l 139 329 z "},"±":{"ha":833,"x_min":83,"x_max":750,"o":"m 168 436 q 108 461 133 436 q 83 521 83 486 q 108 581 83 557 q 168 606 133 606 l 332 606 l 332 679 q 357 740 332 715 q 417 764 382 764 q 477 740 453 764 q 501 679 501 715 l 501 606 l 665 606 q 726 581 701 606 q 750 521 750 557 q 726 461 750 486 q 665 436 701 436 l 501 436 l 501 363 q 477 303 501 328 q 417 278 453 278 q 357 303 382 278 q 332 363 332 328 l 332 436 l 168 436 m 665 239 q 726 215 701 239 q 750 154 750 190 q 726 94 750 119 q 665 69 701 69 l 168 69 q 108 94 133 69 q 83 154 83 119 q 108 215 83 190 q 168 239 133 239 l 665 239 z "},"%":{"ha":1054,"x_min":78,"x_max":976,"o":"m 131 0 q 97 33 108 13 q 85 79 85 54 q 108 140 85 115 l 811 921 q 879 951 838 951 q 925 939 903 951 q 959 905 947 926 q 971 860 971 883 q 947 799 971 826 l 244 18 q 176 -12 217 -12 q 131 0 151 -12 m 272 517 q 175 542 219 517 q 104 611 131 567 q 78 711 78 656 q 104 811 78 767 q 175 881 131 856 q 272 906 219 906 q 369 881 325 906 q 440 811 414 856 q 467 711 467 767 q 440 611 467 656 q 369 542 414 567 q 272 517 325 517 m 272 640 q 321 660 301 640 q 340 711 340 681 q 321 762 340 742 q 272 782 301 782 q 224 762 243 782 q 204 711 204 742 q 224 660 204 681 q 272 640 243 640 m 782 33 q 685 58 729 33 q 614 128 640 83 q 588 228 588 172 q 614 328 588 283 q 685 397 640 372 q 782 422 729 422 q 920 367 864 422 q 976 228 976 313 q 920 88 976 143 q 782 33 864 33 m 782 157 q 831 177 811 157 q 850 228 850 197 q 831 278 850 258 q 782 299 811 299 q 733 278 753 299 q 714 228 714 258 q 733 177 714 197 q 782 157 753 157 z "},"‰":{"ha":1526,"x_min":78,"x_max":1449,"o":"m 131 0 q 97 33 108 13 q 85 79 85 54 q 108 140 85 115 l 811 921 q 879 951 838 951 q 925 939 903 951 q 959 905 947 926 q 971 860 971 883 q 947 799 971 826 l 244 18 q 176 -12 217 -12 q 131 0 151 -12 m 272 517 q 175 542 219 517 q 104 611 131 567 q 78 711 78 656 q 104 811 78 767 q 175 881 131 856 q 272 906 219 906 q 369 881 325 906 q 440 811 414 856 q 467 711 467 767 q 440 611 467 656 q 369 542 414 567 q 272 517 325 517 m 272 640 q 321 660 301 640 q 340 711 340 681 q 321 762 340 742 q 272 782 301 782 q 224 762 243 782 q 204 711 204 742 q 224 660 204 681 q 272 640 243 640 m 782 33 q 685 58 729 33 q 614 128 640 83 q 588 228 588 172 q 614 328 588 283 q 685 397 640 372 q 782 422 729 422 q 920 367 864 422 q 976 228 976 313 q 920 88 976 143 q 782 33 864 33 m 1254 33 q 1157 58 1201 33 q 1086 128 1113 83 q 1060 228 1060 172 q 1086 328 1060 283 q 1157 397 1113 372 q 1254 422 1201 422 q 1392 367 1336 422 q 1449 228 1449 313 q 1392 88 1449 143 q 1254 33 1336 33 m 782 157 q 831 177 811 157 q 850 228 850 197 q 831 278 850 258 q 782 299 811 299 q 733 278 753 299 q 714 228 714 258 q 733 177 714 197 q 782 157 753 157 m 1254 157 q 1303 177 1283 157 q 1322 228 1322 197 q 1303 278 1322 258 q 1254 299 1283 299 q 1206 278 1225 299 q 1186 228 1186 258 q 1206 177 1186 197 q 1254 157 1225 157 z "},"@":{"ha":1364,"x_min":89,"x_max":1275,"o":"m 682 1069 q 978 989 842 1069 q 1194 772 1114 908 q 1275 474 1275 635 q 1242 293 1275 382 q 1142 146 1208 204 q 979 88 1075 88 q 854 126 901 88 q 789 233 807 164 q 649 182 726 181 q 529 218 583 182 q 444 318 475 254 q 413 463 413 382 q 444 606 413 542 q 529 706 475 669 q 649 743 583 743 q 792 688 729 743 q 824 721 803 708 q 871 735 846 733 q 937 707 910 735 q 964 642 964 679 l 964 331 q 969 274 964 294 q 996 254 975 254 q 1041 288 1019 254 q 1076 372 1063 321 q 1089 474 1089 424 q 1031 687 1089 588 q 880 844 974 786 q 682 903 786 903 q 475 844 568 903 q 328 686 382 786 q 275 467 275 586 q 320 267 275 360 q 444 114 365 175 q 622 36 524 53 q 672 8 651 31 q 692 -46 692 -15 q 667 -105 692 -81 q 608 -129 642 -129 l 594 -129 q 336 -22 451 -107 q 155 191 221 63 q 89 467 89 319 q 169 769 89 631 q 385 988 249 907 q 682 1069 521 1069 m 692 349 q 757 381 731 349 q 785 463 783 413 q 758 542 785 510 q 692 576 731 575 q 624 544 651 576 q 599 463 597 511 q 626 380 599 413 q 692 349 653 347 z "},"&":{"ha":896,"x_min":78,"x_max":818,"o":"m 818 344 q 813 315 818 328 q 731 164 783 233 l 749 142 q 769 86 769 117 q 744 25 769 50 q 682 0 718 0 q 617 31 643 0 l 601 49 q 403 -8 510 -8 q 243 29 318 -8 q 123 134 168 67 q 78 286 78 201 q 122 434 78 372 q 240 543 165 496 q 193 713 193 642 q 227 828 193 775 q 316 915 261 882 q 432 947 371 947 q 549 914 494 947 q 636 825 604 881 q 668 708 668 769 q 619 581 669 631 q 478 483 569 532 q 614 306 526 414 q 647 375 633 340 q 679 416 657 400 q 731 432 701 432 q 792 406 767 432 q 818 344 818 381 m 372 713 q 394 626 372 678 q 470 672 446 653 q 493 713 494 690 q 475 759 494 738 q 432 781 456 781 q 392 760 411 781 q 372 713 374 739 m 404 158 q 492 181 450 158 q 328 396 394 299 q 264 282 264 346 q 306 192 264 225 q 404 158 347 158 z "},"°":{"ha":486,"x_min":69,"x_max":417,"o":"m 243 704 q 120 753 171 704 q 69 878 69 803 q 120 1002 69 953 q 243 1051 171 1051 q 366 1002 315 1051 q 417 878 417 953 q 366 753 417 803 q 243 704 315 704 m 243 814 q 286 832 268 814 q 304 878 304 850 q 286 924 304 906 q 243 942 268 942 q 200 924 218 942 q 182 878 182 906 q 200 832 182 850 q 243 814 218 814 z "},"|":{"ha":361,"x_min":89,"x_max":272,"o":"m 181 -136 q 116 -110 143 -136 q 89 -44 89 -83 l 89 983 q 116 1049 89 1022 q 181 1075 143 1075 q 245 1049 218 1075 q 272 983 272 1022 l 272 -44 q 245 -110 272 -83 q 181 -136 218 -136 z "},"´":{"ha":378,"x_min":56,"x_max":322,"o":"m 122 753 q 77 769 99 753 q 56 819 56 786 q 72 867 56 843 l 163 990 q 240 1036 196 1036 q 298 1011 274 1036 q 322 947 322 986 q 292 882 322 910 l 174 774 q 122 753 150 753 z "},"˘":{"ha":481,"x_min":56,"x_max":425,"o":"m 240 753 q 131 785 179 753 q 60 875 82 818 q 56 897 56 886 q 74 939 56 921 q 117 957 92 957 q 150 947 135 957 q 172 921 165 938 q 199 888 181 900 q 240 876 217 876 q 281 888 264 876 q 308 921 299 899 q 331 947 315 938 q 364 957 346 957 q 407 939 389 957 q 425 896 425 921 q 421 875 425 886 q 350 785 399 818 q 240 753 301 753 z "},"ˇ":{"ha":553,"x_min":56,"x_max":497,"o":"m 451 990 q 483 968 469 985 q 497 928 497 951 q 494 910 497 917 q 464 865 489 883 l 339 776 q 276 753 308 753 q 214 776 244 753 l 90 865 q 58 910 64 885 q 56 928 56 924 q 69 968 56 951 q 103 990 83 985 q 124 993 117 993 q 157 986 143 993 l 276 932 l 396 986 q 429 993 410 993 q 451 990 438 993 z "},"¸":{"ha":383,"x_min":56,"x_max":328,"o":"m 97 -228 q 56 -175 56 -214 q 72 -132 56 -149 q 111 -115 89 -115 q 128 -118 117 -115 q 168 -125 147 -125 q 213 -110 197 -125 q 228 -72 228 -94 q 210 -31 228 -50 q 163 -7 193 -12 l 163 61 q 286 8 244 53 q 328 -94 328 -36 q 286 -199 328 -154 q 176 -243 244 -243 q 97 -228 138 -243 z "},"ˆ":{"ha":553,"x_min":56,"x_max":497,"o":"m 494 836 q 497 818 497 829 q 483 778 497 794 q 451 757 469 763 q 429 753 442 753 q 396 760 417 753 l 276 815 l 157 760 q 124 753 136 753 q 103 757 114 753 q 69 778 83 763 q 56 818 56 794 q 58 836 56 822 q 90 881 64 861 l 214 969 q 276 993 244 993 q 339 969 308 993 l 464 881 q 494 836 489 863 z "},"¨":{"ha":568,"x_min":56,"x_max":513,"o":"m 149 739 q 83 765 110 739 q 56 833 56 792 q 83 901 56 875 q 149 928 110 928 q 215 901 188 928 q 242 833 242 875 q 215 765 242 792 q 149 739 188 739 m 419 739 q 353 765 381 739 q 326 833 326 792 q 353 901 326 875 q 419 928 381 928 q 485 901 458 928 q 513 833 513 875 q 485 765 513 792 q 419 739 458 739 z "},"˙":{"ha":319,"x_min":56,"x_max":264,"o":"m 160 739 q 86 769 117 739 q 56 844 56 799 q 86 920 56 890 q 160 950 117 950 q 233 920 203 950 q 264 844 264 890 q 233 769 264 799 q 160 739 203 739 z "},"`":{"ha":378,"x_min":56,"x_max":322,"o":"m 256 751 q 204 772 228 751 l 86 881 q 56 946 56 908 q 80 1009 56 983 q 138 1035 104 1035 q 215 989 182 1035 l 306 865 q 322 818 322 842 q 301 768 322 785 q 256 751 281 751 z "},"˝":{"ha":1028,"x_min":0,"x_max":0,"o":""},"¯":{"ha":597,"x_min":56,"x_max":542,"o":"m 128 775 q 76 796 97 775 q 56 847 56 817 q 76 899 56 878 q 128 919 97 919 l 469 919 q 521 899 500 919 q 542 847 542 878 q 521 796 542 817 q 469 775 500 775 l 128 775 z "},"˛":{"ha":383,"x_min":56,"x_max":328,"o":"m 286 -228 q 207 -243 249 -243 q 97 -199 139 -243 q 56 -94 56 -154 q 98 8 56 -36 q 222 61 140 53 l 222 -7 q 173 -31 190 -12 q 156 -72 156 -50 q 172 -110 156 -94 q 217 -125 188 -125 q 256 -118 236 -125 q 272 -115 267 -115 q 311 -132 294 -115 q 328 -175 328 -149 q 286 -228 328 -214 z "},"˚":{"ha":417,"x_min":56,"x_max":361,"o":"m 208 753 q 100 797 144 753 q 56 906 56 840 q 100 1015 56 972 q 208 1058 144 1058 q 317 1015 272 1058 q 361 906 361 972 q 317 797 361 840 q 208 753 272 753 m 208 849 q 247 865 232 849 q 263 906 263 881 q 247 947 263 931 q 208 963 232 963 q 169 947 185 963 q 154 906 154 931 q 169 865 154 881 q 208 849 185 849 z "},"˜":{"ha":519,"x_min":56,"x_max":464,"o":"m 436 765 q 410 758 422 758 q 375 769 390 758 q 335 783 360 783 q 290 772 310 783 q 201 749 249 749 q 75 796 133 749 q 56 838 56 813 q 63 866 56 853 q 83 886 71 879 q 110 893 97 893 q 144 881 129 893 q 185 868 161 868 q 229 879 210 868 q 318 903 271 903 q 444 856 386 903 q 464 814 464 839 q 456 785 464 799 q 436 765 449 772 z "}}}
